SplineFontDB: 3.0
FontName: ThendralUni
FullName: ThendralUni
FamilyName: ThendralUni
Weight: Book
Copyright: (c) 2003. by A.Umar. Free distribution under GNU-GPL.  (c) 2011. by Thamizha.com Licensed under the GNU General Public License along with the following exception:\n\nAs a special exception, if you create a document which uses this font, and embed this font or unaltered portions of this font into the document, this font does not by itself cause the resulting document to be covered by the GNU General Public License. This exception does not however invalidate any other reasons why the document might be covered by the GNU General Public License. If you modify this font, you may extend this exception to your version of the font, but you are not obligated to do so. If you do not wish to do so, delete this exception statement from your version.
Version: 2.0-dev; Oct, 2011
ItalicAngle: 0
UnderlinePosition: -140
UnderlineWidth: 48
Ascent: 1638
Descent: 410
sfntRevision: 0x00010000
LayerCount: 2
Layer: 0 1 "Back"  1
Layer: 1 1 "Fore"  0
XUID: [1021 266 556472974 9203455]
FSType: 8
OS2Version: 1
OS2_WeightWidthSlopeOnly: 0
OS2_UseTypoMetrics: 1
CreationTime: 1054306740
ModificationTime: 1318270172
PfmFamily: 17
TTFWeight: 400
TTFWidth: 5
LineGap: 67
VLineGap: 0
Panose: 2 0 4 0 0 0 0 0 0 0
OS2TypoAscent: -102
OS2TypoAOffset: 1
OS2TypoDescent: -340
OS2TypoDOffset: 1
OS2TypoLinegap: 307
OS2WinAscent: 129
OS2WinAOffset: 1
OS2WinDescent: 10
OS2WinDOffset: 1
HheadAscent: -383
HheadAOffset: 1
HheadDescent: 2
HheadDOffset: 1
OS2SubXSize: 1434
OS2SubYSize: 1331
OS2SubXOff: 0
OS2SubYOff: 283
OS2SupXSize: 1434
OS2SupYSize: 1331
OS2SupXOff: 0
OS2SupYOff: 977
OS2StrikeYSize: 102
OS2StrikeYPos: 530
OS2Vendor: 'HL  '
OS2CodePages: 00000001.00000000
OS2UnicodeRanges: 00100001.00000000.00000000.00000000
Lookup: 4 0 0 "Ligature Substitution lookup 0"  {"Ligature Substitution lookup 0 subtable"  } []

StartChar: .notdef
Encoding: 65536 -1 0
Width: 1542
GlyphClass: 2
Flags: W
LayerCount: 2
Fore
SplineSet
0 0 m 1,0,-1
 0 1702 l 1,1,-1
 1362 1702 l 1,2,-1
 1362 0 l 1,3,-1
 0 0 l 1,0,-1
43 42 m 1,4,-1
 1319 42 l 1,5,-1
 1319 1660 l 1,6,-1
 43 1660 l 1,7,-1
 43 42 l 1,4,-1
EndSplineSet
EndChar

StartChar: exclam
Encoding: 33 33 4
Width: 404
GlyphClass: 2
Flags: W
LayerCount: 2
Fore
SplineSet
56 364 m 1,0,-1
 0 1139 l 1,1,-1
 0 1464 l 1,2,-1
 224 1464 l 1,3,-1
 224 1139 l 1,4,-1
 171 364 l 1,5,-1
 56 364 l 1,0,-1
8 0 m 1,6,-1
 8 205 l 1,7,-1
 214 205 l 1,8,-1
 214 0 l 1,9,-1
 8 0 l 1,6,-1
EndSplineSet
EndChar

StartChar: quotedbl
Encoding: 34 34 5
Width: 714
GlyphClass: 2
Flags: W
LayerCount: 2
Fore
SplineSet
49 1026 m 1,0,-1
 0 1305 l 1,1,-1
 0 1544 l 1,2,-1
 203 1544 l 1,3,-1
 203 1305 l 1,4,-1
 158 1026 l 1,5,-1
 49 1026 l 1,0,-1
379 1026 m 1,6,-1
 330 1305 l 1,7,-1
 330 1544 l 1,8,-1
 534 1544 l 1,9,-1
 534 1305 l 1,10,-1
 488 1026 l 1,11,-1
 379 1026 l 1,6,-1
EndSplineSet
EndChar

StartChar: numbersign
Encoding: 35 35 6
Width: 1269
GlyphClass: 2
Flags: W
LayerCount: 2
Fore
SplineSet
82 0 m 1,0,-1
 170 424 l 1,1,-1
 0 424 l 1,2,-1
 0 573 l 1,3,-1
 198 573 l 1,4,-1
 274 935 l 1,5,-1
 0 935 l 1,6,-1
 0 1084 l 1,7,-1
 303 1084 l 1,8,-1
 391 1510 l 1,9,-1
 540 1510 l 1,10,-1
 452 1084 l 1,11,-1
 766 1084 l 1,12,-1
 854 1510 l 1,13,-1
 1004 1510 l 1,14,-1
 918 1084 l 1,15,-1
 1089 1084 l 1,16,-1
 1089 935 l 1,17,-1
 887 935 l 1,18,-1
 814 573 l 1,19,-1
 1089 573 l 1,20,-1
 1089 424 l 1,21,-1
 783 424 l 1,22,-1
 697 0 l 1,23,-1
 545 0 l 1,24,-1
 632 424 l 1,25,-1
 319 424 l 1,26,-1
 233 0 l 1,27,-1
 82 0 l 1,0,-1
350 573 m 1,28,-1
 662 573 l 1,29,-1
 738 935 l 1,30,-1
 423 935 l 1,31,-1
 350 573 l 1,28,-1
EndSplineSet
EndChar

StartChar: percent
Encoding: 37 37 7
Width: 1753
GlyphClass: 2
Flags: W
LayerCount: 2
Fore
SplineSet
0 1165 m 0,0,1
 0 1319 0 1319 78.5 1429.5 c 128,-1,2
 157 1540 157 1540 306 1540 c 0,3,4
 446 1540 446 1540 535.5 1441 c 128,-1,5
 625 1342 625 1342 625 1154 c 0,6,7
 625 967 625 967 534 868 c 128,-1,8
 443 769 443 769 309 769 c 0,9,10
 178 769 178 769 89 868 c 128,-1,11
 0 967 0 967 0 1165 c 0,0,1
313 1416 m 0,12,13
 245 1416 245 1416 201 1359.5 c 128,-1,14
 157 1303 157 1303 157 1146 c 0,15,16
 157 1005 157 1005 201 948 c 128,-1,17
 245 891 245 891 313 891 c 0,18,19
 380 891 380 891 424.5 950 c 128,-1,20
 469 1009 469 1009 469 1161 c 0,21,22
 469 1297 469 1297 424.5 1356.5 c 128,-1,23
 380 1416 380 1416 313 1416 c 0,12,13
313 0 m 1,24,-1
 1113 1540 l 1,25,-1
 1258 1540 l 1,26,-1
 461 0 l 1,27,-1
 313 0 l 1,24,-1
946 396 m 0,28,29
 946 553 946 553 1025 663 c 128,-1,30
 1104 773 1104 773 1254 773 c 0,31,32
 1391 773 1391 773 1482 674.5 c 128,-1,33
 1573 576 1573 576 1573 386 c 0,34,35
 1573 202 1573 202 1481.5 101 c 128,-1,36
 1390 0 1390 0 1254 0 c 0,37,38
 1124 0 1124 0 1035 99 c 128,-1,39
 946 198 946 198 946 396 c 0,28,29
1258 650 m 256,40,41
 1193 650 1193 650 1148.5 592.5 c 128,-1,42
 1104 535 1104 535 1104 378 c 0,43,44
 1104 239 1104 239 1148 180.5 c 128,-1,45
 1192 122 1192 122 1258 122 c 0,46,47
 1326 122 1326 122 1371 182 c 1,48,49
 1416 235 1416 235 1416 392 c 0,50,51
 1416 533 1416 533 1369.5 591.5 c 128,-1,52
 1323 650 1323 650 1258 650 c 256,40,41
EndSplineSet
EndChar

StartChar: ampersand
Encoding: 38 38 8
Width: 1407
GlyphClass: 2
Flags: W
LayerCount: 2
Fore
SplineSet
883 206 m 1,0,1
 793 107 793 107 688.5 59 c 128,-1,2
 584 11 584 11 464 11 c 0,3,4
 237 11 237 11 106 161 c 1,5,6
 0 286 0 286 0 438 c 0,7,8
 0 572 0 572 87 682.5 c 128,-1,9
 174 793 174 793 347 874 c 1,10,11
 251 984 251 984 217 1054.5 c 128,-1,12
 183 1125 183 1125 183 1195 c 0,13,14
 183 1328 183 1328 286.5 1425 c 128,-1,15
 390 1522 390 1522 548 1522 c 0,16,17
 694 1522 694 1522 790.5 1430 c 128,-1,18
 887 1338 887 1338 887 1209 c 0,19,20
 887 1002 887 1002 610 854 c 1,21,-1
 872 519 l 1,22,23
 918 605 918 605 942 724 c 1,24,-1
 1129 683 l 1,25,26
 1081 492 1081 492 999 367 c 1,27,28
 1102 233 1102 233 1227 143 c 1,29,-1
 1108 0 l 1,30,31
 999 72 999 72 883 206 c 1,0,1
517 970 m 1,32,33
 633 1038 633 1038 667.5 1090.5 c 128,-1,34
 702 1143 702 1143 702 1205 c 0,35,36
 702 1278 702 1278 655.5 1326.5 c 128,-1,37
 609 1375 609 1375 537 1375 c 0,38,39
 468 1375 468 1375 418 1328 c 128,-1,40
 368 1281 368 1281 368 1213 c 0,41,42
 368 1181 368 1181 384 1145 c 128,-1,43
 400 1109 400 1109 437 1063 c 1,44,-1
 517 970 l 1,32,33
770 350 m 1,45,-1
 441 758 l 1,46,47
 296 671 296 671 245 597 c 128,-1,48
 194 523 194 523 194 450 c 0,49,50
 194 359 194 359 264.5 263.5 c 128,-1,51
 335 168 335 168 465 168 c 0,52,53
 548 168 548 168 633.5 219 c 128,-1,54
 719 270 719 270 770 350 c 1,45,-1
EndSplineSet
EndChar

StartChar: quotesingle
Encoding: 39 39 9
Width: 383
GlyphClass: 2
Flags: W
LayerCount: 2
Fore
SplineSet
44 1026 m 1,0,-1
 0 1298 l 1,1,-1
 0 1544 l 1,2,-1
 203 1544 l 1,3,-1
 203 1298 l 1,4,-1
 157 1026 l 1,5,-1
 44 1026 l 1,0,-1
EndSplineSet
EndChar

StartChar: parenleft
Encoding: 40 40 10
Width: 662
GlyphClass: 2
Flags: W
LayerCount: 2
Fore
SplineSet
353 -358 m 1,0,1
 206 -169 206 -169 103 82.5 c 128,-1,2
 0 334 0 334 0 601 c 0,3,4
 0 842 0 842 76 1056 c 0,5,6
 165 1310 165 1310 353 1559 c 1,7,-1
 482 1559 l 1,8,9
 366 1361 366 1361 322 1262 c 0,10,11
 265 1136 265 1136 224.5 964 c 128,-1,12
 184 792 184 792 184 601 c 0,13,14
 184 117 184 117 482 -358 c 1,15,-1
 353 -358 l 1,0,1
EndSplineSet
EndChar

StartChar: parenright
Encoding: 41 41 11
Width: 662
GlyphClass: 2
Flags: W
LayerCount: 2
Fore
SplineSet
129 -358 m 1,0,-1
 0 -358 l 1,1,2
 298 123 298 123 298 601 c 0,3,4
 298 785 298 785 256 972 c 0,5,6
 221 1132 221 1132 160 1261 c 1,7,8
 120 1353 120 1353 0 1559 c 1,9,-1
 129 1559 l 1,10,11
 317 1308 317 1308 405 1056 c 0,12,13
 482 835 482 835 482 601 c 0,14,15
 482 331 482 331 380 82 c 128,-1,16
 278 -167 278 -167 129 -358 c 1,0,-1
EndSplineSet
EndChar

StartChar: asterisk
Encoding: 42 42 12
Width: 1058
GlyphClass: 2
Flags: W
LayerCount: 2
Fore
SplineSet
0 673 m 1,0,-1
 63 864 l 1,1,2
 274 790 274 790 370 734 c 1,3,-1
 342 1064 l 1,4,-1
 535 1064 l 1,5,6
 535 992 535 992 525 910 c 128,-1,7
 515 828 515 828 503 735 c 1,8,9
 559 764 559 764 640.5 797.5 c 128,-1,10
 722 831 722 831 818 864 c 1,11,-1
 878 673 l 1,12,13
 712 622 712 622 545 601 c 1,14,15
 625 536 625 536 773 349 c 1,16,-1
 616 236 l 1,17,18
 535 348 535 348 434 521 c 1,19,20
 340 343 340 343 261 236 c 1,21,-1
 106 349 l 1,22,23
 261 542 261 542 326 601 c 1,24,25
 154 633 154 633 0 673 c 1,0,-1
EndSplineSet
EndChar

StartChar: plus
Encoding: 43 43 13
Width: 1144
GlyphClass: 2
Flags: W
LayerCount: 2
Fore
SplineSet
396 167 m 1,0,-1
 396 568 l 1,1,-1
 0 568 l 1,2,-1
 0 735 l 1,3,-1
 396 735 l 1,4,-1
 396 1134 l 1,5,-1
 565 1134 l 1,6,-1
 565 735 l 1,7,-1
 964 735 l 1,8,-1
 964 568 l 1,9,-1
 565 568 l 1,10,-1
 565 167 l 1,11,-1
 396 167 l 1,0,-1
EndSplineSet
EndChar

StartChar: comma
Encoding: 44 44 14
Width: 397
GlyphClass: 2
Flags: W
LayerCount: 2
Fore
SplineSet
14 1 m 1,0,-1
 14 205 l 1,1,-1
 217 205 l 1,2,-1
 217 1 l 2,3,4
 217 -114 217 -114 177 -182 c 1,5,6
 140 -248 140 -248 49 -289 c 1,7,-1
 0 -212 l 1,8,9
 56 -190 56 -190 86 -136.5 c 128,-1,10
 116 -83 116 -83 116 1 c 1,11,-1
 14 1 l 1,0,-1
EndSplineSet
EndChar

StartChar: hyphen
Encoding: 45 45 15
Width: 732
GlyphClass: 2
Flags: W
LayerCount: 2
Fore
SplineSet
0 561 m 1,0,-1
 0 740 l 1,1,-1
 552 740 l 1,2,-1
 552 561 l 1,3,-1
 0 561 l 1,0,-1
EndSplineSet
EndChar

StartChar: period
Encoding: 46 46 16
Width: 383
GlyphClass: 2
Flags: W
LayerCount: 2
Fore
SplineSet
0 -25 m 1,0,-1
 0 179 l 1,1,-1
 203 179 l 1,2,-1
 203 -25 l 1,3,-1
 0 -25 l 1,0,-1
EndSplineSet
EndChar

StartChar: slash
Encoding: 47 47 17
Width: 748
GlyphClass: 2
Flags: W
LayerCount: 2
Fore
SplineSet
0 0 m 1,0,-1
 424 1510 l 1,1,-1
 568 1510 l 1,2,-1
 145 0 l 1,3,-1
 0 0 l 1,0,-1
EndSplineSet
EndChar

StartChar: zero
Encoding: 48 48 18
Width: 1131
GlyphClass: 2
Flags: W
LayerCount: 2
Fore
SplineSet
0 745 m 0,0,1
 0 1007 0 1007 52 1162 c 128,-1,2
 104 1317 104 1317 209 1404.5 c 128,-1,3
 314 1492 314 1492 475 1492 c 0,4,5
 592 1492 592 1492 682 1444 c 128,-1,6
 772 1396 772 1396 828.5 1307.5 c 128,-1,7
 885 1219 885 1219 918 1092 c 128,-1,8
 951 965 951 965 951 745 c 0,9,10
 951 612 951 612 939 511 c 128,-1,11
 927 410 927 410 898 328 c 1,12,13
 847 175 847 175 742 87.5 c 128,-1,14
 637 0 637 0 475 0 c 0,15,16
 264 0 264 0 142 150 c 1,17,18
 0 332 0 332 0 745 c 0,0,1
184 745 m 0,19,20
 184 390 184 390 267.5 268 c 128,-1,21
 351 146 351 146 475 146 c 256,22,23
 599 146 599 146 683.5 266.5 c 128,-1,24
 768 387 768 387 768 745 c 0,25,26
 768 1105 768 1105 683.5 1224 c 128,-1,27
 599 1343 599 1343 474 1343 c 0,28,29
 353 1343 353 1343 276 1239 c 1,30,31
 184 1105 184 1105 184 745 c 0,19,20
EndSplineSet
EndChar

StartChar: one
Encoding: 49 49 19
Width: 720
GlyphClass: 2
Flags: W
LayerCount: 2
Fore
SplineSet
540 0 m 1,0,-1
 360 0 l 1,1,-1
 360 1144 l 1,2,3
 297 1082 297 1082 189 1021 c 1,4,5
 144 992 144 992 90.5 966.5 c 128,-1,6
 37 941 37 941 0 927 c 1,7,-1
 0 1101 l 1,8,9
 152 1173 152 1173 263.5 1274 c 128,-1,10
 375 1375 375 1375 423 1468 c 1,11,-1
 540 1468 l 1,12,-1
 540 0 l 1,0,-1
EndSplineSet
EndChar

StartChar: two
Encoding: 50 50 20
Width: 1147
GlyphClass: 2
Flags: W
LayerCount: 2
Fore
SplineSet
967 171 m 1,0,-1
 967 0 l 1,1,-1
 0 0 l 1,2,3
 0 38 0 38 4 64 c 128,-1,4
 8 90 8 90 23 125 c 1,5,6
 57 225 57 225 139 320.5 c 128,-1,7
 221 416 221 416 374 541 c 1,8,9
 609 731 609 731 695 847.5 c 128,-1,10
 781 964 781 964 781 1066 c 0,11,12
 781 1173 781 1173 704.5 1246 c 128,-1,13
 628 1319 628 1319 504 1319 c 0,14,15
 381 1319 381 1319 299.5 1242 c 128,-1,16
 218 1165 218 1165 218 1025 c 1,17,-1
 35 1045 l 1,18,19
 53 1250 53 1250 177.5 1359 c 128,-1,20
 302 1468 302 1468 510 1468 c 0,21,22
 720 1468 720 1468 842 1351.5 c 128,-1,23
 964 1235 964 1235 964 1063 c 0,24,25
 964 972 964 972 928.5 887.5 c 128,-1,26
 893 803 893 803 810.5 710.5 c 128,-1,27
 728 618 728 618 534 453 c 1,28,29
 462 394 462 394 430 366 c 0,30,31
 366 310 366 310 325 270 c 1,32,33
 306 249 306 249 286 222 c 128,-1,34
 266 195 266 195 249 171 c 1,35,-1
 967 171 l 1,0,-1
EndSplineSet
EndChar

StartChar: three
Encoding: 51 51 21
Width: 1138
GlyphClass: 2
Flags: W
LayerCount: 2
Fore
SplineSet
0 412 m 1,0,-1
 180 437 l 1,1,2
 210 284 210 284 285.5 216 c 128,-1,3
 361 148 361 148 466 148 c 0,4,5
 592 148 592 148 679 235.5 c 128,-1,6
 766 323 766 323 766 453 c 0,7,8
 766 578 766 578 685 658.5 c 128,-1,9
 604 739 604 739 479 739 c 0,10,11
 427 739 427 739 353 719 c 1,12,-1
 374 876 l 1,13,-1
 402 873 l 1,14,15
 515 873 515 873 607.5 933.5 c 128,-1,16
 700 994 700 994 700 1119 c 0,17,18
 700 1216 700 1216 634.5 1280.5 c 128,-1,19
 569 1345 569 1345 462 1345 c 0,20,21
 406 1345 406 1345 365.5 1330 c 128,-1,22
 325 1315 325 1315 287 1280 c 0,23,24
 220 1219 220 1219 198 1085 c 1,25,-1
 17 1115 l 1,26,27
 51 1295 51 1295 168.5 1394.5 c 128,-1,28
 286 1494 286 1494 458 1494 c 0,29,30
 576 1494 576 1494 677 1443.5 c 128,-1,31
 778 1393 778 1393 832 1303 c 128,-1,32
 886 1213 886 1213 886 1115 c 0,33,34
 886 1025 886 1025 835 941 c 1,35,36
 782 864 782 864 684 819 c 1,37,38
 813 788 813 788 885.5 693 c 128,-1,39
 958 598 958 598 958 457 c 0,40,41
 958 267 958 267 817.5 133.5 c 128,-1,42
 677 0 677 0 466 0 c 0,43,44
 276 0 276 0 146.5 116 c 128,-1,45
 17 232 17 232 0 412 c 1,0,-1
EndSplineSet
EndChar

StartChar: four
Encoding: 52 52 22
Width: 1190
GlyphClass: 2
Flags: W
LayerCount: 2
Fore
SplineSet
633 0 m 1,0,-1
 633 350 l 1,1,-1
 0 350 l 1,2,-1
 0 515 l 1,3,-1
 666 1464 l 1,4,-1
 812 1464 l 1,5,-1
 812 515 l 1,6,-1
 1010 515 l 1,7,-1
 1010 350 l 1,8,-1
 812 350 l 1,9,-1
 812 0 l 1,10,-1
 633 0 l 1,0,-1
633 515 m 1,11,-1
 633 1175 l 1,12,-1
 175 515 l 1,13,-1
 633 515 l 1,11,-1
EndSplineSet
EndChar

StartChar: five
Encoding: 53 53 23
Width: 1148
GlyphClass: 2
Flags: W
LayerCount: 2
Fore
SplineSet
0 408 m 1,0,-1
 187 423 l 1,1,2
 207 286 207 286 283 216 c 128,-1,3
 359 146 359 146 467 146 c 0,4,5
 596 146 596 146 687 245.5 c 128,-1,6
 778 345 778 345 778 504 c 0,7,8
 778 657 778 657 692 746 c 128,-1,9
 606 835 606 835 465 835 c 0,10,11
 375 835 375 835 307 794 c 1,12,13
 241 757 241 757 199 694 c 1,14,-1
 30 714 l 1,15,-1
 171 1466 l 1,16,-1
 898 1466 l 1,17,-1
 898 1294 l 1,18,-1
 316 1294 l 1,19,-1
 237 902 l 1,20,21
 374 995 374 995 512 995 c 0,22,23
 703 995 703 995 835.5 862.5 c 128,-1,24
 968 730 968 730 968 520 c 0,25,26
 968 321 968 321 851 177 c 1,27,28
 713 0 713 0 467 0 c 0,29,30
 269 0 269 0 142 111 c 0,31,32
 77 169 77 169 38.5 245 c 128,-1,33
 0 321 0 321 0 408 c 1,0,-1
EndSplineSet
EndChar

StartChar: six
Encoding: 54 54 24
Width: 1144
GlyphClass: 2
Flags: W
LayerCount: 2
Fore
SplineSet
940 1129 m 1,0,-1
 760 1114 l 1,1,2
 734 1223 734 1223 692 1267 c 1,3,4
 623 1343 623 1343 513 1343 c 0,5,6
 426 1343 426 1343 361 1297 c 1,7,8
 281 1237 281 1237 229.5 1114.5 c 128,-1,9
 178 992 178 992 178 778 c 1,10,11
 243 876 243 876 334 924 c 128,-1,12
 425 972 425 972 533 972 c 0,13,14
 712 972 712 972 838 839 c 128,-1,15
 964 706 964 706 964 497 c 0,16,17
 964 366 964 366 904.5 246 c 128,-1,18
 845 126 845 126 743.5 63 c 128,-1,19
 642 0 642 0 506 0 c 0,20,21
 281 0 281 0 140.5 164 c 128,-1,22
 0 328 0 328 0 709 c 0,23,24
 0 1133 0 1133 155 1325 c 1,25,26
 295 1492 295 1492 524 1492 c 0,27,28
 692 1492 692 1492 803.5 1396.5 c 128,-1,29
 915 1301 915 1301 940 1129 c 1,0,-1
207 497 m 0,30,31
 207 404 207 404 244 321 c 128,-1,32
 281 238 281 238 353 192 c 128,-1,33
 425 146 425 146 505 146 c 0,34,35
 619 146 619 146 699.5 237 c 128,-1,36
 780 328 780 328 780 488 c 0,37,38
 780 637 780 637 698.5 725.5 c 128,-1,39
 617 814 617 814 497 814 c 0,40,41
 376 814 376 814 291.5 725.5 c 128,-1,42
 207 637 207 637 207 497 c 0,30,31
EndSplineSet
EndChar

StartChar: seven
Encoding: 55 55 25
Width: 1128
GlyphClass: 2
Flags: W
LayerCount: 2
Fore
SplineSet
0 1270 m 1,0,-1
 0 1444 l 1,1,-1
 948 1444 l 1,2,-1
 948 1303 l 1,3,4
 880 1231 880 1231 811 1133.5 c 128,-1,5
 742 1036 742 1036 670 910 c 1,6,7
 533 662 533 662 457 403 c 1,8,9
 417 259 417 259 404 169.5 c 128,-1,10
 391 80 391 80 391 0 c 1,11,-1
 204 0 l 1,12,13
 204 163 204 163 273 416 c 1,14,15
 337 655 337 655 458 885.5 c 128,-1,16
 579 1116 579 1116 716 1270 c 1,17,-1
 0 1270 l 1,0,-1
EndSplineSet
EndChar

StartChar: eight
Encoding: 56 56 26
Width: 1141
GlyphClass: 2
Flags: W
LayerCount: 2
Fore
SplineSet
278 816 m 1,0,1
 167 858 167 858 112 934.5 c 128,-1,2
 57 1011 57 1011 57 1114 c 0,3,4
 57 1270 57 1270 171 1384 c 1,5,6
 290 1492 290 1492 477 1492 c 0,7,8
 672 1492 672 1492 787.5 1381 c 128,-1,9
 903 1270 903 1270 903 1110 c 0,10,11
 903 1011 903 1011 850 935 c 128,-1,12
 797 859 797 859 686 816 c 1,13,14
 823 774 823 774 892 675 c 128,-1,15
 961 576 961 576 961 443 c 0,16,17
 961 253 961 253 829 126.5 c 128,-1,18
 697 0 697 0 480 0 c 256,19,20
 263 0 263 0 131.5 128.5 c 128,-1,21
 0 257 0 257 0 447 c 0,22,23
 0 589 0 589 70.5 684 c 128,-1,24
 141 779 141 779 278 816 c 1,0,1
241 1121 m 0,25,26
 241 1019 241 1019 307.5 952.5 c 128,-1,27
 374 886 374 886 481 886 c 0,28,29
 586 886 586 886 652.5 952.5 c 128,-1,30
 719 1019 719 1019 719 1110 c 0,31,32
 719 1206 719 1206 650.5 1274.5 c 128,-1,33
 582 1343 582 1343 480 1343 c 0,34,35
 376 1343 376 1343 308.5 1278 c 128,-1,36
 241 1213 241 1213 241 1121 c 0,25,26
183 447 m 0,37,38
 183 374 183 374 218 298 c 1,39,40
 255 226 255 226 326.5 186 c 128,-1,41
 398 146 398 146 481 146 c 0,42,43
 613 146 613 146 694 230 c 1,44,45
 778 308 778 308 778 440 c 0,46,47
 778 565 778 565 693 656 c 1,48,49
 605 739 605 739 476 739 c 0,50,51
 354 739 354 739 266 656 c 1,52,53
 183 569 183 569 183 447 c 0,37,38
EndSplineSet
EndChar

StartChar: nine
Encoding: 57 57 27
Width: 1139
GlyphClass: 2
Flags: W
LayerCount: 2
Fore
SplineSet
25 363 m 1,0,-1
 198 378 l 1,1,2
 220 257 220 257 281.5 201.5 c 128,-1,3
 343 146 343 146 440 146 c 0,4,5
 523 146 523 146 586 185.5 c 128,-1,6
 649 225 649 225 685.5 282 c 128,-1,7
 722 339 722 339 756 457 c 1,8,9
 782 573 782 573 782 676 c 1,10,-1
 780 713 l 1,11,12
 729 630 729 630 637 575 c 128,-1,13
 545 520 545 520 431 520 c 0,14,15
 253 520 253 520 126.5 651 c 128,-1,16
 0 782 0 782 0 999 c 0,17,18
 0 1217 0 1217 130.5 1354.5 c 128,-1,19
 261 1492 261 1492 459 1492 c 0,20,21
 531 1492 531 1492 594 1474 c 128,-1,22
 657 1456 657 1456 718 1415 c 1,23,24
 837 1339 837 1339 898 1197.5 c 128,-1,25
 959 1056 959 1056 959 786 c 0,26,27
 959 504 959 504 900 338.5 c 128,-1,28
 841 173 841 173 718.5 86.5 c 128,-1,29
 596 0 596 0 436 0 c 0,30,31
 265 0 265 0 158 92.5 c 128,-1,32
 51 185 51 185 25 363 c 1,0,-1
761 1007 m 256,33,34
 761 1160 761 1160 680 1251.5 c 128,-1,35
 599 1343 599 1343 479 1343 c 0,36,37
 363 1343 363 1343 273.5 1246 c 128,-1,38
 184 1149 184 1149 184 992 c 0,39,40
 184 855 184 855 266.5 766.5 c 128,-1,41
 349 678 349 678 475 678 c 0,42,43
 600 678 600 678 680.5 766 c 128,-1,44
 761 854 761 854 761 1007 c 256,33,34
EndSplineSet
EndChar

StartChar: colon
Encoding: 58 58 28
Width: 384
GlyphClass: 2
Flags: W
LayerCount: 2
Fore
SplineSet
0 854 m 1,0,-1
 0 1060 l 1,1,-1
 204 1060 l 1,2,-1
 204 854 l 1,3,-1
 0 854 l 1,0,-1
0 0 m 1,4,-1
 0 204 l 1,5,-1
 204 204 l 1,6,-1
 204 0 l 1,7,-1
 0 0 l 1,4,-1
EndSplineSet
EndChar

StartChar: semicolon
Encoding: 59 59 29
Width: 397
GlyphClass: 2
Flags: W
LayerCount: 2
Fore
SplineSet
14 848 m 1,0,-1
 14 1055 l 1,1,-1
 217 1055 l 1,2,-1
 217 848 l 1,3,-1
 14 848 l 1,0,-1
14 -5 m 1,4,-1
 14 199 l 1,5,-1
 217 199 l 1,6,-1
 217 -5 l 2,7,8
 217 -120 217 -120 177 -188 c 1,9,10
 140 -254 140 -254 49 -295 c 1,11,-1
 0 -218 l 1,12,13
 56 -196 56 -196 86 -142.5 c 128,-1,14
 116 -89 116 -89 116 -5 c 1,15,-1
 14 -5 l 1,4,-1
EndSplineSet
EndChar

StartChar: less
Encoding: 60 60 30
Width: 1149
GlyphClass: 2
Flags: W
LayerCount: 2
Fore
SplineSet
0 570 m 1,0,-1
 0 738 l 1,1,-1
 969 1146 l 1,2,-1
 969 968 l 1,3,-1
 201 654 l 1,4,-1
 969 335 l 1,5,-1
 969 155 l 1,6,-1
 0 570 l 1,0,-1
EndSplineSet
EndChar

StartChar: equal
Encoding: 61 61 31
Width: 1144
GlyphClass: 2
Flags: W
LayerCount: 2
Fore
SplineSet
964 788 m 1,0,-1
 0 788 l 1,1,-1
 0 956 l 1,2,-1
 964 956 l 1,3,-1
 964 788 l 1,0,-1
964 344 m 1,4,-1
 0 344 l 1,5,-1
 0 512 l 1,6,-1
 964 512 l 1,7,-1
 964 344 l 1,4,-1
EndSplineSet
EndChar

StartChar: greater
Encoding: 62 62 32
Width: 1149
GlyphClass: 2
Flags: W
LayerCount: 2
Fore
SplineSet
969 570 m 1,0,-1
 0 155 l 1,1,-1
 0 335 l 1,2,-1
 766 654 l 1,3,-1
 0 968 l 1,4,-1
 0 1146 l 1,5,-1
 969 738 l 1,6,-1
 969 570 l 1,0,-1
EndSplineSet
EndChar

StartChar: question
Encoding: 63 63 33
Width: 1123
GlyphClass: 2
Flags: W
LayerCount: 2
Fore
SplineSet
379 359 m 1,0,-1
 379 414 l 2,1,2
 379 518 379 518 410 597 c 1,3,4
 427 651 427 651 480 712 c 1,5,6
 512 751 512 751 606 834 c 128,-1,7
 700 917 700 917 730 967 c 128,-1,8
 760 1017 760 1017 760 1076 c 0,9,10
 760 1181 760 1181 678 1260.5 c 128,-1,11
 596 1340 596 1340 475 1340 c 0,12,13
 363 1340 363 1340 286.5 1268.5 c 128,-1,14
 210 1197 210 1197 184 1044 c 1,15,-1
 0 1064 l 1,16,17
 24 1268 24 1268 148 1377 c 128,-1,18
 272 1486 272 1486 474 1486 c 0,19,20
 686 1486 686 1486 814.5 1370 c 128,-1,21
 943 1254 943 1254 943 1089 c 0,22,23
 943 992 943 992 896.5 909.5 c 128,-1,24
 850 827 850 827 722 715 c 1,25,26
 637 637 637 637 609 601 c 128,-1,27
 581 565 581 565 567 513 c 128,-1,28
 553 461 553 461 553 359 c 1,29,-1
 379 359 l 1,0,-1
370 0 m 1,30,-1
 370 204 l 1,31,-1
 573 204 l 1,32,-1
 573 0 l 1,33,-1
 370 0 l 1,30,-1
EndSplineSet
EndChar

StartChar: at
Encoding: 64 64 34
Width: 2070
GlyphClass: 2
Flags: W
LayerCount: 2
Fore
SplineSet
1048 593 m 1,0,1
 988 521 988 521 906 474 c 128,-1,2
 824 427 824 427 742 427 c 0,3,4
 651 427 651 427 567.5 479.5 c 128,-1,5
 484 532 484 532 432 640.5 c 128,-1,6
 380 749 380 749 380 875 c 0,7,8
 380 1035 380 1035 460.5 1193 c 128,-1,9
 541 1351 541 1351 662.5 1431 c 128,-1,10
 784 1511 784 1511 899 1511 c 0,11,12
 987 1511 987 1511 1064.5 1464.5 c 128,-1,13
 1142 1418 1142 1418 1199 1326 c 1,14,-1
 1234 1482 l 1,15,-1
 1411 1482 l 1,16,-1
 1269 814 l 1,17,-1
 1238 658 l 1,18,19
 1238 632 1238 632 1259 612.5 c 128,-1,20
 1280 593 1280 593 1307 593 c 0,21,22
 1362 593 1362 593 1445 652 c 0,23,24
 1562 734 1562 734 1627.5 868 c 128,-1,25
 1693 1002 1693 1002 1693 1145 c 0,26,27
 1693 1310 1693 1310 1607 1454.5 c 128,-1,28
 1521 1599 1521 1599 1355 1686.5 c 128,-1,29
 1189 1774 1189 1774 980 1774 c 0,30,31
 747 1774 747 1774 554 1665.5 c 128,-1,32
 361 1557 361 1557 254 1350 c 128,-1,33
 147 1143 147 1143 147 914 c 0,34,35
 147 674 147 674 253 496 c 128,-1,36
 359 318 359 318 561 233 c 128,-1,37
 763 148 763 148 1007 148 c 0,38,39
 1269 148 1269 148 1444.5 233.5 c 128,-1,40
 1620 319 1620 319 1710 448 c 1,41,-1
 1890 448 l 1,42,43
 1836 339 1836 339 1714.5 233.5 c 128,-1,44
 1593 128 1593 128 1423 64 c 128,-1,45
 1253 0 1253 0 1009 0 c 0,46,47
 790 0 790 0 603 56.5 c 128,-1,48
 416 113 416 113 283.5 226 c 128,-1,49
 151 339 151 339 83 491 c 1,50,51
 0 681 0 681 0 898 c 0,52,53
 0 1143 0 1143 99 1361 c 0,54,55
 222 1629 222 1629 444.5 1774 c 128,-1,56
 667 1919 667 1919 988 1919 c 0,57,58
 1234 1919 1234 1919 1434 1816.5 c 128,-1,59
 1634 1714 1634 1714 1745 1516 c 1,60,61
 1840 1343 1840 1343 1840 1141 c 0,62,63
 1840 850 1840 850 1636 628 c 1,64,65
 1455 426 1455 426 1239 426 c 0,66,67
 1203 426 1203 426 1178.5 430 c 128,-1,68
 1154 434 1154 434 1128 446 c 1,69,70
 1089 468 1089 468 1066 507 c 0,71,72
 1054 529 1054 529 1048 593 c 1,0,1
565 863 m 0,73,74
 565 726 565 726 629 650.5 c 128,-1,75
 693 575 693 575 778 575 c 0,76,77
 834 575 834 575 897 608.5 c 128,-1,78
 960 642 960 642 1013 708 c 1,79,80
 1070 771 1070 771 1106 874.5 c 128,-1,81
 1142 978 1142 978 1142 1077 c 0,82,83
 1142 1214 1142 1214 1075.5 1288.5 c 128,-1,84
 1009 1363 1009 1363 911 1363 c 0,85,86
 850 1363 850 1363 790.5 1329 c 128,-1,87
 731 1295 731 1295 680 1223 c 128,-1,88
 629 1151 629 1151 597 1049.5 c 128,-1,89
 565 948 565 948 565 863 c 0,73,74
EndSplineSet
EndChar

StartChar: A
Encoding: 65 65 35
Width: 1548
GlyphClass: 2
Flags: W
LayerCount: 2
Fore
SplineSet
0 0 m 1,0,-1
 560 1464 l 1,1,-1
 769 1464 l 1,2,-1
 1368 0 l 1,3,-1
 1150 0 l 1,4,-1
 978 443 l 1,5,-1
 366 443 l 1,6,-1
 205 0 l 1,7,-1
 0 0 l 1,0,-1
422 602 m 1,8,-1
 918 602 l 1,9,-1
 765 1006 l 1,10,11
 700 1183 700 1183 661 1311 c 1,12,13
 647 1240 647 1240 628.5 1169.5 c 128,-1,14
 610 1099 610 1099 583 1030 c 2,15,-1
 422 602 l 1,8,-1
EndSplineSet
EndChar

StartChar: B
Encoding: 66 66 36
Width: 1285
GlyphClass: 2
Flags: W
LayerCount: 2
Fore
SplineSet
0 0 m 1,0,-1
 0 1464 l 1,1,-1
 549 1464 l 2,2,3
 712 1464 712 1464 815.5 1420 c 128,-1,4
 919 1376 919 1376 976 1281 c 128,-1,5
 1033 1186 1033 1186 1033 1090 c 0,6,7
 1033 995 1033 995 984.5 913.5 c 128,-1,8
 936 832 936 832 830 779 c 1,9,10
 963 737 963 737 1034 644.5 c 128,-1,11
 1105 552 1105 552 1105 425 c 0,12,13
 1105 321 1105 321 1060 233 c 1,14,15
 1021 145 1021 145 956 97.5 c 128,-1,16
 891 50 891 50 794 25 c 128,-1,17
 697 0 697 0 557 0 c 2,18,-1
 0 0 l 1,0,-1
194 848 m 1,19,-1
 511 848 l 2,20,21
 646 848 646 848 694 865 c 1,22,23
 769 888 769 888 806 940.5 c 128,-1,24
 843 993 843 993 843 1064 c 0,25,26
 843 1134 843 1134 810 1190.5 c 128,-1,27
 777 1247 777 1247 712.5 1268 c 128,-1,28
 648 1289 648 1289 487 1289 c 2,29,-1
 194 1289 l 1,30,-1
 194 848 l 1,19,-1
194 172 m 1,31,-1
 557 172 l 2,32,33
 588 172 588 172 624 173.5 c 128,-1,34
 660 175 660 175 690 180 c 0,35,36
 758 192 758 192 803.5 220 c 128,-1,37
 849 248 849 248 877.5 302 c 128,-1,38
 906 356 906 356 906 425 c 0,39,40
 906 505 906 505 862.5 565.5 c 128,-1,41
 819 626 819 626 742.5 651 c 128,-1,42
 666 676 666 676 531 676 c 2,43,-1
 194 676 l 1,44,-1
 194 172 l 1,31,-1
EndSplineSet
EndChar

StartChar: C
Encoding: 67 67 37
Width: 1472
GlyphClass: 2
Flags: W
LayerCount: 2
Fore
SplineSet
1098 537 m 1,0,-1
 1292 488 l 1,1,2
 1231 250 1231 250 1073.5 125 c 128,-1,3
 916 0 916 0 686 0 c 0,4,5
 449 0 449 0 302 95.5 c 128,-1,6
 155 191 155 191 77.5 377 c 128,-1,7
 0 563 0 563 0 766 c 0,8,9
 0 992 0 992 87.5 1163.5 c 128,-1,10
 175 1335 175 1335 337.5 1422.5 c 128,-1,11
 500 1510 500 1510 690 1510 c 0,12,13
 908 1510 908 1510 1058.5 1399 c 128,-1,14
 1209 1288 1209 1288 1266 1086 c 1,15,-1
 1076 1041 l 1,16,17
 1026 1198 1026 1198 929 1272 c 128,-1,18
 832 1346 832 1346 686 1346 c 0,19,20
 516 1346 516 1346 403 1264.5 c 128,-1,21
 290 1183 290 1183 244 1047 c 128,-1,22
 198 911 198 911 198 767 c 0,23,24
 198 581 198 581 252 441 c 128,-1,25
 306 301 306 301 420 232.5 c 128,-1,26
 534 164 534 164 670 164 c 0,27,28
 832 164 832 164 946 257.5 c 128,-1,29
 1060 351 1060 351 1098 537 c 1,0,-1
EndSplineSet
EndChar

StartChar: D
Encoding: 68 68 38
Width: 1390
GlyphClass: 2
Flags: W
LayerCount: 2
Fore
SplineSet
0 0 m 1,0,-1
 0 1464 l 1,1,-1
 505 1464 l 2,2,3
 666 1464 666 1464 765 1442 c 1,4,5
 891 1412 891 1412 979 1337 c 1,6,7
 1093 1243 1093 1243 1151.5 1085.5 c 128,-1,8
 1210 928 1210 928 1210 740 c 0,9,10
 1210 572 1210 572 1171 444.5 c 128,-1,11
 1132 317 1132 317 1074 233 c 128,-1,12
 1016 149 1016 149 938 99 c 1,13,14
 871 54 871 54 765.5 27 c 128,-1,15
 660 0 660 0 528 0 c 2,16,-1
 0 0 l 1,0,-1
194 172 m 1,17,-1
 507 172 l 2,18,19
 644 172 644 172 729 198.5 c 128,-1,20
 814 225 814 225 864 276 c 0,21,22
 934 346 934 346 971.5 460.5 c 128,-1,23
 1009 575 1009 575 1009 743 c 0,24,25
 1009 971 1009 971 934.5 1094 c 128,-1,26
 860 1217 860 1217 753 1261 c 1,27,28
 670 1289 670 1289 501 1289 c 2,29,-1
 194 1289 l 1,30,-1
 194 172 l 1,17,-1
EndSplineSet
EndChar

StartChar: E
Encoding: 69 69 39
Width: 1272
GlyphClass: 2
Flags: W
LayerCount: 2
Fore
SplineSet
0 0 m 1,0,-1
 0 1464 l 1,1,-1
 1058 1464 l 1,2,-1
 1058 1289 l 1,3,-1
 194 1289 l 1,4,-1
 194 842 l 1,5,-1
 1004 842 l 1,6,-1
 1004 671 l 1,7,-1
 194 671 l 1,8,-1
 194 172 l 1,9,-1
 1092 172 l 1,10,-1
 1092 0 l 1,11,-1
 0 0 l 1,0,-1
EndSplineSet
EndChar

StartChar: F
Encoding: 70 70 40
Width: 1166
GlyphClass: 2
Flags: W
LayerCount: 2
Fore
SplineSet
0 0 m 1,0,-1
 0 1464 l 1,1,-1
 986 1464 l 1,2,-1
 986 1289 l 1,3,-1
 194 1289 l 1,4,-1
 194 838 l 1,5,-1
 880 838 l 1,6,-1
 880 664 l 1,7,-1
 194 664 l 1,8,-1
 194 0 l 1,9,-1
 0 0 l 1,0,-1
EndSplineSet
EndChar

StartChar: G
Encoding: 71 71 41
Width: 1533
GlyphClass: 2
Flags: W
LayerCount: 2
Fore
SplineSet
735 598 m 1,0,-1
 735 770 l 1,1,-1
 1353 770 l 1,2,-1
 1353 228 l 1,3,4
 1212 115 1212 115 1061.5 57.5 c 128,-1,5
 911 0 911 0 749 0 c 0,6,7
 635 0 635 0 542.5 21 c 128,-1,8
 450 42 450 42 357 91 c 0,9,10
 181 183 181 183 90.5 357.5 c 128,-1,11
 0 532 0 532 0 747 c 0,12,13
 0 965 0 965 90.5 1149.5 c 128,-1,14
 181 1334 181 1334 348 1422 c 128,-1,15
 515 1510 515 1510 735 1510 c 0,16,17
 894 1510 894 1510 1020.5 1459 c 128,-1,18
 1147 1408 1147 1408 1219.5 1317.5 c 128,-1,19
 1292 1227 1292 1227 1333 1078 c 1,20,-1
 1157 1029 l 1,21,22
 1123 1143 1123 1143 1075.5 1205 c 128,-1,23
 1028 1267 1028 1267 937 1306.5 c 128,-1,24
 846 1346 846 1346 735 1346 c 0,25,26
 661 1346 661 1346 610.5 1338 c 128,-1,27
 560 1330 560 1330 506 1304 c 1,28,29
 407 1263 407 1263 349.5 1199 c 128,-1,30
 292 1135 292 1135 256 1053 c 1,31,32
 201 919 201 919 201 759 c 0,33,34
 201 567 201 567 268.5 433 c 128,-1,35
 336 299 336 299 467 235.5 c 128,-1,36
 598 172 598 172 739 172 c 0,37,38
 864 172 864 172 981 218 c 128,-1,39
 1098 264 1098 264 1165 324 c 1,40,-1
 1165 598 l 1,41,-1
 735 598 l 1,0,-1
EndSplineSet
EndChar

StartChar: H
Encoding: 72 72 42
Width: 1326
GlyphClass: 2
Flags: W
LayerCount: 2
Fore
SplineSet
0 0 m 1,0,-1
 0 1464 l 1,1,-1
 193 1464 l 1,2,-1
 193 862 l 1,3,-1
 952 862 l 1,4,-1
 952 1464 l 1,5,-1
 1146 1464 l 1,6,-1
 1146 0 l 1,7,-1
 952 0 l 1,8,-1
 952 689 l 1,9,-1
 193 689 l 1,10,-1
 193 0 l 1,11,-1
 0 0 l 1,0,-1
EndSplineSet
EndChar

StartChar: I
Encoding: 73 73 43
Width: 374
GlyphClass: 2
Flags: W
LayerCount: 2
Fore
SplineSet
0 0 m 1,0,-1
 0 1464 l 1,1,-1
 194 1464 l 1,2,-1
 194 0 l 1,3,-1
 0 0 l 1,0,-1
EndSplineSet
EndChar

StartChar: J
Encoding: 74 74 44
Width: 982
GlyphClass: 2
Flags: W
LayerCount: 2
Fore
SplineSet
0 438 m 1,0,-1
 173 462 l 1,1,2
 173 379 173 379 189.5 323 c 128,-1,3
 206 267 206 267 236 234 c 0,4,5
 294 171 294 171 391 171 c 0,6,7
 461 171 461 171 515 204.5 c 128,-1,8
 569 238 569 238 589.5 297 c 128,-1,9
 610 356 610 356 610 480 c 2,10,-1
 610 1486 l 1,11,-1
 802 1486 l 1,12,-1
 802 489 l 2,13,14
 802 303 802 303 758 204 c 128,-1,15
 714 105 714 105 616 52.5 c 128,-1,16
 518 0 518 0 391 0 c 0,17,18
 202 0 202 0 97 110 c 0,19,20
 46 164 46 164 23 244 c 128,-1,21
 0 324 0 324 0 438 c 1,0,-1
EndSplineSet
EndChar

StartChar: K
Encoding: 75 75 45
Width: 1389
GlyphClass: 2
Flags: W
LayerCount: 2
Fore
SplineSet
0 0 m 1,0,-1
 0 1464 l 1,1,-1
 194 1464 l 1,2,-1
 194 737 l 1,3,-1
 919 1464 l 1,4,-1
 1183 1464 l 1,5,-1
 571 870 l 1,6,-1
 1209 0 l 1,7,-1
 954 0 l 1,8,-1
 434 740 l 1,9,-1
 194 507 l 1,10,-1
 194 0 l 1,11,-1
 0 0 l 1,0,-1
EndSplineSet
EndChar

StartChar: L
Encoding: 76 76 46
Width: 1096
GlyphClass: 2
Flags: W
LayerCount: 2
Fore
SplineSet
0 0 m 1,0,-1
 0 1464 l 1,1,-1
 195 1464 l 1,2,-1
 195 172 l 1,3,-1
 916 172 l 1,4,-1
 916 0 l 1,5,-1
 0 0 l 1,0,-1
EndSplineSet
EndChar

StartChar: M
Encoding: 77 77 47
Width: 1575
GlyphClass: 2
Flags: W
LayerCount: 2
Fore
SplineSet
0 0 m 1,0,-1
 0 1464 l 1,1,-1
 291 1464 l 1,2,-1
 637 427 l 1,3,-1
 706 211 l 1,4,-1
 783 446 l 1,5,-1
 1136 1464 l 1,6,-1
 1395 1464 l 1,7,-1
 1395 0 l 1,8,-1
 1209 0 l 1,9,-1
 1209 1224 l 1,10,-1
 783 0 l 1,11,-1
 611 0 l 1,12,-1
 188 1244 l 1,13,-1
 188 0 l 1,14,-1
 0 0 l 1,0,-1
EndSplineSet
EndChar

StartChar: N
Encoding: 78 78 48
Width: 1332
GlyphClass: 2
Flags: W
LayerCount: 2
Fore
SplineSet
0 0 m 1,0,-1
 0 1464 l 1,1,-1
 198 1464 l 1,2,-1
 966 316 l 1,3,-1
 966 1464 l 1,4,-1
 1152 1464 l 1,5,-1
 1152 0 l 1,6,-1
 954 0 l 1,7,-1
 186 1151 l 1,8,-1
 186 0 l 1,9,-1
 0 0 l 1,0,-1
EndSplineSet
EndChar

StartChar: O
Encoding: 79 79 49
Width: 1580
GlyphClass: 2
Flags: W
LayerCount: 2
Fore
SplineSet
0 737 m 0,0,1
 0 1099 0 1099 196.5 1306.5 c 128,-1,2
 393 1514 393 1514 701 1514 c 0,3,4
 903 1514 903 1514 1065.5 1417.5 c 128,-1,5
 1228 1321 1228 1321 1314 1147.5 c 128,-1,6
 1400 974 1400 974 1400 753 c 0,7,8
 1400 535 1400 535 1310.5 359.5 c 128,-1,9
 1221 184 1221 184 1054 89 c 1,10,11
 977 44 977 44 887 22 c 128,-1,12
 797 0 797 0 701 0 c 0,13,14
 493 0 493 0 331 99 c 128,-1,15
 169 198 169 198 84.5 372 c 128,-1,16
 0 546 0 546 0 737 c 0,0,1
200 733 m 0,17,18
 200 470 200 470 343 317.5 c 128,-1,19
 486 165 486 165 699 165 c 0,20,21
 917 165 917 165 1058 318 c 128,-1,22
 1199 471 1199 471 1199 753 c 0,23,24
 1199 931 1199 931 1139 1065 c 128,-1,25
 1079 1199 1079 1199 962.5 1272.5 c 128,-1,26
 846 1346 846 1346 703 1346 c 0,27,28
 499 1346 499 1346 349.5 1205 c 128,-1,29
 200 1064 200 1064 200 733 c 0,17,18
EndSplineSet
EndChar

StartChar: P
Encoding: 80 80 50
Width: 1298
GlyphClass: 2
Flags: W
LayerCount: 2
Fore
SplineSet
0 0 m 1,0,-1
 0 1464 l 1,1,-1
 552 1464 l 2,2,3
 704 1464 704 1464 774 1449 c 1,4,5
 888 1430 888 1430 955 1380 c 1,6,7
 1026 1332 1026 1332 1074 1239 c 1,8,9
 1094 1196 1094 1196 1106 1145.5 c 128,-1,10
 1118 1095 1118 1095 1118 1041 c 0,11,12
 1118 857 1118 857 999.5 726 c 128,-1,13
 881 595 881 595 568 595 c 2,14,-1
 195 595 l 1,15,-1
 195 0 l 1,16,-1
 0 0 l 1,0,-1
195 767 m 1,17,-1
 572 767 l 2,18,19
 757 767 757 767 837.5 836 c 128,-1,20
 918 905 918 905 918 1034 c 0,21,22
 918 1126 918 1126 871 1191.5 c 128,-1,23
 824 1257 824 1257 748 1277 c 0,24,25
 701 1289 701 1289 568 1289 c 2,26,-1
 195 1289 l 1,27,-1
 195 767 l 1,17,-1
EndSplineSet
EndChar

StartChar: Q
Encoding: 81 81 51
Width: 1606
GlyphClass: 2
Flags: W
LayerCount: 2
Fore
SplineSet
1179 192 m 1,0,1
 1311 99 1311 99 1426 55 c 1,2,-1
 1369 -79 l 1,3,4
 1209 -19 1209 -19 1056 101 c 1,5,6
 893 11 893 11 697 11 c 0,7,8
 496 11 496 11 336 107 c 128,-1,9
 176 203 176 203 88 376 c 128,-1,10
 0 549 0 549 0 767 c 0,11,12
 0 984 0 984 87 1159.5 c 128,-1,13
 174 1335 174 1335 337 1431 c 1,14,15
 416 1476 416 1476 508.5 1500.5 c 128,-1,16
 601 1525 601 1525 701 1525 c 0,17,18
 901 1525 901 1525 1062.5 1428.5 c 128,-1,19
 1224 1332 1224 1332 1311.5 1156 c 128,-1,20
 1399 980 1399 980 1399 767 c 0,21,22
 1399 589 1399 589 1345.5 445 c 128,-1,23
 1292 301 1292 301 1179 192 c 1,0,1
752 449 m 1,24,25
 922 403 922 403 1028 308 c 1,26,27
 1200 465 1200 465 1200 776 c 0,28,29
 1200 951 1200 951 1140.5 1083 c 128,-1,30
 1081 1215 1081 1215 963.5 1290.5 c 128,-1,31
 846 1366 846 1366 701 1366 c 0,32,33
 484 1366 484 1366 342.5 1218 c 128,-1,34
 201 1070 201 1070 201 776 c 0,35,36
 201 494 201 494 340.5 339.5 c 128,-1,37
 480 185 480 185 701 185 c 0,38,39
 807 185 807 185 897 224 c 1,40,41
 807 284 807 284 705 308 c 1,42,-1
 752 449 l 1,24,25
EndSplineSet
EndChar

StartChar: R
Encoding: 82 82 52
Width: 1468
GlyphClass: 2
Flags: W
LayerCount: 2
Fore
SplineSet
0 0 m 1,0,-1
 0 1464 l 1,1,-1
 648 1464 l 2,2,3
 841 1464 841 1464 942.5 1424.5 c 128,-1,4
 1044 1385 1044 1385 1106.5 1285.5 c 128,-1,5
 1169 1186 1169 1186 1169 1064 c 0,6,7
 1169 908 1169 908 1069 801.5 c 128,-1,8
 969 695 969 695 757 667 c 1,9,10
 834 630 834 630 873 592 c 1,11,12
 955 519 955 519 1035 399 c 1,13,-1
 1288 0 l 1,14,-1
 1044 0 l 1,15,-1
 853 305 l 1,16,17
 810 370 810 370 774 423.5 c 128,-1,18
 738 477 738 477 712 507 c 1,19,20
 659 576 659 576 613 603 c 1,21,22
 589 619 589 619 570.5 627.5 c 128,-1,23
 552 636 552 636 526 642 c 1,24,-1
 418 650 l 1,25,-1
 193 650 l 1,26,-1
 193 0 l 1,27,-1
 0 0 l 1,0,-1
193 817 m 1,28,-1
 609 817 l 2,29,30
 744 817 744 817 817.5 843.5 c 128,-1,31
 891 870 891 870 930 930.5 c 128,-1,32
 969 991 969 991 969 1064 c 0,33,34
 969 1167 969 1167 892.5 1234 c 128,-1,35
 816 1301 816 1301 656 1301 c 2,36,-1
 193 1301 l 1,37,-1
 193 817 l 1,28,-1
EndSplineSet
EndChar

StartChar: S
Encoding: 83 83 53
Width: 1346
GlyphClass: 2
Flags: W
LayerCount: 2
Fore
SplineSet
0 493 m 1,0,-1
 183 510 l 1,1,2
 195 401 195 401 242.5 330 c 128,-1,3
 290 259 290 259 389.5 215.5 c 128,-1,4
 489 172 489 172 615 172 c 0,5,6
 729 172 729 172 812.5 205 c 128,-1,7
 896 238 896 238 937 295 c 0,8,9
 954 320 954 320 965.5 352.5 c 128,-1,10
 977 385 977 385 977 420 c 0,11,12
 977 489 977 489 937 541.5 c 128,-1,13
 897 594 897 594 805 626 c 1,14,15
 756 646 756 646 546 698 c 0,16,17
 449 722 449 722 375.5 746 c 128,-1,18
 302 770 302 770 264 790 c 0,19,20
 157 844 157 844 107 924 c 1,21,22
 56 1010 56 1010 56 1109 c 0,23,24
 56 1217 56 1217 120 1314 c 128,-1,25
 184 1411 184 1411 303.5 1460.5 c 128,-1,26
 423 1510 423 1510 571 1510 c 0,27,28
 652 1510 652 1510 722 1498.5 c 128,-1,29
 792 1487 792 1487 857 1457 c 1,30,31
 981 1408 981 1408 1050.5 1302.5 c 128,-1,32
 1120 1197 1120 1197 1120 1074 c 1,33,-1
 934 1060 l 1,34,35
 922 1194 922 1194 834.5 1268 c 128,-1,36
 747 1342 747 1342 579 1342 c 0,37,38
 405 1342 405 1342 324.5 1276 c 128,-1,39
 244 1210 244 1210 244 1121 c 0,40,41
 244 1045 244 1045 298 993 c 128,-1,42
 352 941 352 941 590 888 c 128,-1,43
 828 835 828 835 915 794 c 0,44,45
 1041 736 1041 736 1104 645 c 1,46,47
 1135 598 1135 598 1150.5 547 c 128,-1,48
 1166 496 1166 496 1166 436 c 0,49,50
 1166 320 1166 320 1100 217.5 c 128,-1,51
 1034 115 1034 115 908.5 57.5 c 128,-1,52
 783 0 783 0 624 0 c 0,53,54
 423 0 423 0 289.5 57.5 c 128,-1,55
 156 115 156 115 80 230 c 0,56,57
 43 287 43 287 21.5 355.5 c 128,-1,58
 0 424 0 424 0 493 c 1,0,-1
EndSplineSet
EndChar

StartChar: T
Encoding: 84 84 54
Width: 1341
GlyphClass: 2
Flags: W
LayerCount: 2
Fore
SplineSet
483 0 m 1,0,-1
 483 1289 l 1,1,-1
 0 1289 l 1,2,-1
 0 1464 l 1,3,-1
 1161 1464 l 1,4,-1
 1161 1289 l 1,5,-1
 677 1289 l 1,6,-1
 677 0 l 1,7,-1
 483 0 l 1,0,-1
EndSplineSet
EndChar

StartChar: U
Encoding: 85 85 55
Width: 1331
GlyphClass: 2
Flags: W
LayerCount: 2
Fore
SplineSet
957 1486 m 1,0,-1
 1151 1486 l 1,1,-1
 1151 641 l 2,2,3
 1151 417 1151 417 1101 290.5 c 128,-1,4
 1051 164 1051 164 921.5 82 c 128,-1,5
 792 0 792 0 579 0 c 0,6,7
 373 0 373 0 244 69 c 128,-1,8
 115 138 115 138 57.5 273.5 c 128,-1,9
 0 409 0 409 0 641 c 2,10,-1
 0 1486 l 1,11,-1
 193 1486 l 1,12,-1
 193 642 l 2,13,14
 193 454 193 454 228 360 c 1,15,16
 264 271 264 271 350 222 c 1,17,18
 442 172 442 172 563 172 c 0,19,20
 773 172 773 172 865 269.5 c 128,-1,21
 957 367 957 367 957 642 c 2,22,-1
 957 1486 l 1,0,-1
EndSplineSet
EndChar

StartChar: V
Encoding: 86 86 56
Width: 1518
GlyphClass: 2
Flags: W
LayerCount: 2
Fore
SplineSet
568 0 m 1,0,-1
 0 1464 l 1,1,-1
 210 1464 l 1,2,-1
 591 401 l 2,3,4
 593 397 593 397 621 306 c 1,5,6
 666 169 666 169 668 161 c 1,7,8
 682 217 682 217 701.5 277 c 128,-1,9
 721 337 721 337 746 401 c 1,10,-1
 1142 1464 l 1,11,-1
 1338 1464 l 1,12,-1
 766 0 l 1,13,-1
 568 0 l 1,0,-1
EndSplineSet
EndChar

StartChar: W
Encoding: 87 87 57
Width: 2062
GlyphClass: 2
Flags: W
LayerCount: 2
Fore
SplineSet
388 0 m 1,0,-1
 0 1464 l 1,1,-1
 198 1464 l 1,2,-1
 421 505 l 1,3,4
 453 373 453 373 484 205 c 1,5,-1
 550 474 l 1,6,-1
 828 1464 l 1,7,-1
 1061 1464 l 1,8,-1
 1271 724 l 1,9,10
 1351 434 1351 434 1383 205 c 1,11,12
 1412 344 1412 344 1457 523 c 1,13,-1
 1686 1464 l 1,14,-1
 1882 1464 l 1,15,-1
 1479 0 l 1,16,-1
 1294 0 l 1,17,-1
 985 1114 l 1,18,-1
 940 1285 l 1,19,-1
 897 1114 l 1,20,-1
 586 0 l 1,21,-1
 388 0 l 1,0,-1
EndSplineSet
EndChar

StartChar: X
Encoding: 88 88 58
Width: 1522
GlyphClass: 2
Flags: W
LayerCount: 2
Fore
SplineSet
0 0 m 1,0,-1
 566 763 l 1,1,-1
 68 1464 l 1,2,-1
 298 1464 l 1,3,-1
 564 1087 l 2,4,5
 647 969 647 969 681 908 c 1,6,7
 725 981 725 981 796 1075 c 2,8,-1
 1090 1464 l 1,9,-1
 1302 1464 l 1,10,-1
 788 773 l 1,11,-1
 1342 0 l 1,12,-1
 1101 0 l 1,13,-1
 734 522 l 1,14,-1
 670 619 l 1,15,-1
 601 511 l 1,16,-1
 232 0 l 1,17,-1
 0 0 l 1,0,-1
EndSplineSet
EndChar

StartChar: Y
Encoding: 89 89 59
Width: 1519
GlyphClass: 2
Flags: W
LayerCount: 2
Fore
SplineSet
564 0 m 1,0,-1
 564 619 l 1,1,-1
 0 1464 l 1,2,-1
 234 1464 l 1,3,-1
 523 1022 l 2,4,5
 599 904 599 904 672 775 c 1,6,7
 706 834 706 834 743 896 c 0,8,9
 774 946 774 946 831 1033 c 2,10,-1
 1115 1464 l 1,11,-1
 1339 1464 l 1,12,-1
 757 619 l 1,13,-1
 757 0 l 1,14,-1
 564 0 l 1,0,-1
EndSplineSet
EndChar

StartChar: Z
Encoding: 90 90 60
Width: 1336
GlyphClass: 2
Flags: W
LayerCount: 2
Fore
SplineSet
0 0 m 1,0,-1
 0 180 l 1,1,-1
 749 1116 l 2,2,3
 790 1167 790 1167 829 1212 c 128,-1,4
 868 1257 868 1257 900 1289 c 1,5,-1
 85 1289 l 1,6,-1
 85 1464 l 1,7,-1
 1132 1464 l 1,8,-1
 1132 1289 l 1,9,-1
 310 276 l 1,10,-1
 222 172 l 1,11,-1
 1156 172 l 1,12,-1
 1156 0 l 1,13,-1
 0 0 l 1,0,-1
EndSplineSet
EndChar

StartChar: bracketleft
Encoding: 91 91 61
Width: 576
GlyphClass: 2
Flags: W
LayerCount: 2
Fore
SplineSet
0 -285 m 1,0,-1
 0 1585 l 1,1,-1
 396 1585 l 1,2,-1
 396 1436 l 1,3,-1
 181 1436 l 1,4,-1
 181 -136 l 1,5,-1
 396 -136 l 1,6,-1
 396 -285 l 1,7,-1
 0 -285 l 1,0,-1
EndSplineSet
EndChar

StartChar: backslash
Encoding: 92 92 62
Width: 748
GlyphClass: 2
Flags: W
LayerCount: 2
Fore
SplineSet
424 -105 m 1,0,-1
 0 1405 l 1,1,-1
 145 1405 l 1,2,-1
 568 -105 l 1,3,-1
 424 -105 l 1,0,-1
EndSplineSet
EndChar

StartChar: bracketright
Encoding: 93 93 63
Width: 576
GlyphClass: 2
Flags: W
LayerCount: 2
Fore
SplineSet
396 -285 m 1,0,-1
 0 -285 l 1,1,-1
 0 -136 l 1,2,-1
 217 -136 l 1,3,-1
 217 1436 l 1,4,-1
 0 1436 l 1,5,-1
 0 1585 l 1,6,-1
 396 1585 l 1,7,-1
 396 -285 l 1,0,-1
EndSplineSet
EndChar

StartChar: asciicircum
Encoding: 94 94 64
Width: 1032
GlyphClass: 2
Flags: W
LayerCount: 2
Fore
SplineSet
187 629 m 1,0,-1
 0 629 l 1,1,-1
 354 1427 l 1,2,-1
 499 1427 l 1,3,-1
 852 629 l 1,4,-1
 671 629 l 1,5,-1
 425 1224 l 1,6,-1
 187 629 l 1,0,-1
EndSplineSet
EndChar

StartChar: underscore
Encoding: 95 95 65
Width: 1370
GlyphClass: 2
Flags: W
LayerCount: 2
Fore
SplineSet
0 -752 m 1,0,-1
 0 -621 l 1,1,-1
 1190 -621 l 1,2,-1
 1190 -752 l 1,3,-1
 0 -752 l 1,0,-1
EndSplineSet
EndChar

StartChar: grave
Encoding: 96 96 66
Width: 557
GlyphClass: 2
Flags: W
LayerCount: 2
Fore
SplineSet
377 1170 m 1,0,-1
 232 1170 l 1,1,-1
 0 1451 l 1,2,-1
 241 1451 l 1,3,-1
 377 1170 l 1,0,-1
EndSplineSet
EndChar

StartChar: a
Encoding: 97 97 67
Width: 1157
GlyphClass: 2
Flags: W
LayerCount: 2
Fore
SplineSet
753 154 m 1,0,1
 650 69 650 69 558.5 34.5 c 128,-1,2
 467 0 467 0 362 0 c 0,3,4
 190 0 190 0 95 86.5 c 128,-1,5
 0 173 0 173 0 303 c 0,6,7
 0 379 0 379 36 444.5 c 128,-1,8
 72 510 72 510 125.5 547.5 c 128,-1,9
 179 585 179 585 258 608 c 1,10,-1
 418 634 l 1,11,12
 633 659 633 659 738 695 c 1,13,-1
 738 743 l 2,14,15
 738 851 738 851 689 897 c 1,16,17
 616 959 616 959 483 959 c 0,18,19
 360 959 360 959 298.5 914.5 c 128,-1,20
 237 870 237 870 206 756 c 1,21,-1
 30 782 l 1,22,23
 56 893 56 893 110 961 c 1,24,25
 159 1029 159 1029 265.5 1067.5 c 128,-1,26
 372 1106 372 1106 509 1106 c 0,27,28
 644 1106 644 1106 730 1076 c 1,29,30
 811 1042 811 1042 853 993.5 c 128,-1,31
 895 945 895 945 910 874 c 0,32,33
 918 835 918 835 918.5 791 c 128,-1,34
 919 747 919 747 919 706 c 2,35,-1
 919 467 l 2,36,37
 919 207 919 207 927.5 160.5 c 128,-1,38
 936 114 936 114 946 86 c 128,-1,39
 956 58 956 58 977 24 c 1,40,-1
 789 24 l 1,41,42
 761 78 761 78 753 154 c 1,0,1
738 554 m 1,43,44
 640 518 640 518 444 488 c 1,45,46
 335 473 335 473 289 451 c 1,47,48
 243 432 243 432 218 392 c 128,-1,49
 193 352 193 352 193 308 c 0,50,51
 193 236 193 236 246.5 188.5 c 128,-1,52
 300 141 300 141 404 141 c 0,53,54
 509 141 509 141 589.5 185.5 c 128,-1,55
 670 230 670 230 709 310 c 1,56,57
 738 373 738 373 738 489 c 2,58,-1
 738 554 l 1,43,44
EndSplineSet
EndChar

StartChar: b
Encoding: 98 98 68
Width: 1099
GlyphClass: 2
Flags: W
LayerCount: 2
Fore
SplineSet
168 23 m 1,0,-1
 0 23 l 1,1,-1
 0 1486 l 1,2,-1
 180 1486 l 1,3,-1
 180 964 l 1,4,5
 291 1106 291 1106 470 1106 c 0,6,7
 569 1106 569 1106 657 1066 c 128,-1,8
 745 1026 745 1026 798 957 c 1,9,10
 854 892 854 892 886.5 787.5 c 128,-1,11
 919 683 919 683 919 569 c 0,12,13
 919 299 919 299 783.5 149.5 c 128,-1,14
 648 0 648 0 462 0 c 0,15,16
 275 0 275 0 168 156 c 1,17,-1
 168 23 l 1,0,-1
165 561 m 0,18,19
 165 369 165 369 217 285 c 0,20,21
 302 148 302 148 447 148 c 0,22,23
 564 148 564 148 650 250 c 128,-1,24
 736 352 736 352 736 554 c 0,25,26
 736 760 736 760 652.5 859 c 128,-1,27
 569 958 569 958 455 958 c 0,28,29
 337 958 337 958 251 856.5 c 128,-1,30
 165 755 165 755 165 561 c 0,18,19
EndSplineSet
EndChar

StartChar: c
Encoding: 99 99 69
Width: 1104
GlyphClass: 2
Flags: W
LayerCount: 2
Fore
SplineSet
747 412 m 1,0,-1
 924 389 l 1,1,2
 893 203 893 203 773.5 101.5 c 128,-1,3
 654 0 654 0 482 0 c 0,4,5
 264 0 264 0 132 143 c 128,-1,6
 0 286 0 286 0 549 c 0,7,8
 0 722 0 722 56 851 c 128,-1,9
 112 980 112 980 228 1043 c 128,-1,10
 344 1106 344 1106 482 1106 c 0,11,12
 654 1106 654 1106 764 1018.5 c 128,-1,13
 874 931 874 931 905 771 c 1,14,-1
 732 745 l 1,15,16
 707 851 707 851 643 905 c 128,-1,17
 579 959 579 959 491 959 c 0,18,19
 356 959 356 959 270 861 c 128,-1,20
 184 763 184 763 184 554 c 0,21,22
 184 344 184 344 267 246.5 c 128,-1,23
 350 149 350 149 481 149 c 0,24,25
 587 149 587 149 657.5 212.5 c 128,-1,26
 728 276 728 276 747 412 c 1,0,-1
EndSplineSet
EndChar

StartChar: d
Encoding: 100 100 70
Width: 1099
GlyphClass: 2
Flags: W
LayerCount: 2
Fore
SplineSet
752 23 m 1,0,-1
 752 156 l 1,1,2
 655 0 655 0 456 0 c 0,3,4
 334 0 334 0 225.5 70.5 c 128,-1,5
 117 141 117 141 58.5 267 c 128,-1,6
 0 393 0 393 0 553 c 0,7,8
 0 714 0 714 53.5 841.5 c 128,-1,9
 107 969 107 969 212 1037.5 c 128,-1,10
 317 1106 317 1106 448 1106 c 0,11,12
 549 1106 549 1106 620 1065 c 1,13,14
 690 1029 690 1029 740 961 c 1,15,-1
 740 1486 l 1,16,-1
 919 1486 l 1,17,-1
 919 23 l 1,18,-1
 752 23 l 1,0,-1
186 553 m 0,19,20
 186 347 186 347 270 247.5 c 128,-1,21
 354 148 354 148 475 148 c 0,22,23
 591 148 591 148 674 245.5 c 128,-1,24
 757 343 757 343 757 537 c 0,25,26
 757 751 757 751 672 854.5 c 128,-1,27
 587 958 587 958 466 958 c 0,28,29
 346 958 346 958 266 860.5 c 128,-1,30
 186 763 186 763 186 553 c 0,19,20
EndSplineSet
EndChar

StartChar: e
Encoding: 101 101 71
Width: 1156
GlyphClass: 2
Flags: W
LayerCount: 2
Fore
SplineSet
785 365 m 1,0,-1
 969 343 l 1,1,2
 927 183 927 183 807.5 91.5 c 128,-1,3
 688 0 688 0 504 0 c 0,4,5
 271 0 271 0 135.5 143.5 c 128,-1,6
 0 287 0 287 0 545 c 0,7,8
 0 810 0 810 137.5 958 c 128,-1,9
 275 1106 275 1106 495 1106 c 0,10,11
 709 1106 709 1106 842.5 963 c 128,-1,12
 976 820 976 820 976 554 c 1,13,-1
 975 508 l 1,14,-1
 183 508 l 1,15,16
 183 423 183 423 208.5 357 c 128,-1,17
 234 291 234 291 283 240 c 1,18,19
 374 149 374 149 504 149 c 0,20,21
 604 149 604 149 673.5 200.5 c 128,-1,22
 743 252 743 252 785 365 c 1,0,-1
194 655 m 1,23,-1
 786 655 l 1,24,25
 774 787 774 787 719 855 c 0,26,27
 633 959 633 959 496 959 c 0,28,29
 371 959 371 959 282.5 873 c 128,-1,30
 194 787 194 787 194 655 c 1,23,-1
EndSplineSet
EndChar

StartChar: f
Encoding: 102 102 72
Width: 801
GlyphClass: 2
Flags: W
LayerCount: 2
Fore
SplineSet
160 0 m 1,0,-1
 160 919 l 1,1,-1
 0 919 l 1,2,-1
 0 1060 l 1,3,-1
 160 1060 l 1,4,-1
 160 1173 l 2,5,6
 160 1276 160 1276 181 1336.5 c 128,-1,7
 202 1397 202 1397 268.5 1441.5 c 128,-1,8
 335 1486 335 1486 451 1486 c 0,9,10
 525 1486 525 1486 621 1468 c 1,11,-1
 592 1314 l 1,12,13
 569 1318 569 1318 540.5 1320 c 128,-1,14
 512 1322 512 1322 488 1322 c 0,15,16
 406 1322 406 1322 371.5 1287 c 128,-1,17
 337 1252 337 1252 337 1155 c 2,18,-1
 337 1060 l 1,19,-1
 543 1060 l 1,20,-1
 543 919 l 1,21,-1
 337 919 l 1,22,-1
 337 0 l 1,23,-1
 160 0 l 1,0,-1
EndSplineSet
EndChar

StartChar: g
Encoding: 103 103 73
Width: 1114
GlyphClass: 2
Flags: W
LayerCount: 2
Fore
SplineSet
37 -81 m 1,0,-1
 210 -107 l 1,1,2
 224 -188 224 -188 271 -224 c 1,3,4
 342 -275 342 -275 454 -275 c 0,5,6
 579 -275 579 -275 645.5 -225.5 c 128,-1,7
 712 -176 712 -176 740 -85 c 1,8,9
 752 -30 752 -30 752 145 c 1,10,11
 636 7 636 7 458 7 c 0,12,13
 240 7 240 7 120 164.5 c 128,-1,14
 0 322 0 322 0 542 c 0,15,16
 0 693 0 693 55.5 821 c 128,-1,17
 111 949 111 949 214 1019.5 c 128,-1,18
 317 1090 317 1090 460 1090 c 0,19,20
 648 1090 648 1090 769 938 c 1,21,-1
 769 1067 l 1,22,-1
 934 1067 l 1,23,-1
 934 151 l 2,24,25
 934 -97 934 -97 884.5 -199 c 128,-1,26
 835 -301 835 -301 727.5 -361.5 c 128,-1,27
 620 -422 620 -422 456 -422 c 0,28,29
 359 -422 359 -422 284 -401.5 c 128,-1,30
 209 -381 209 -381 149 -336 c 1,31,32
 37 -256 37 -256 37 -81 c 1,0,-1
186 556 m 0,33,34
 186 346 186 346 268 251 c 128,-1,35
 350 156 350 156 476 156 c 0,36,37
 597 156 597 156 681.5 249 c 128,-1,38
 766 342 766 342 766 551 c 0,39,40
 766 744 766 744 679.5 843 c 128,-1,41
 593 942 593 942 472 942 c 0,42,43
 354 942 354 942 270 845.5 c 128,-1,44
 186 749 186 749 186 556 c 0,33,34
EndSplineSet
EndChar

StartChar: h
Encoding: 104 104 74
Width: 1043
GlyphClass: 2
Flags: W
LayerCount: 2
Fore
SplineSet
0 0 m 1,0,-1
 0 1464 l 1,1,-1
 181 1464 l 1,2,-1
 181 938 l 1,3,4
 307 1083 307 1083 497 1083 c 0,5,6
 616 1083 616 1083 701 1037 c 1,7,8
 789 993 789 993 826 909.5 c 128,-1,9
 863 826 863 826 863 672 c 2,10,-1
 863 0 l 1,11,-1
 682 0 l 1,12,-1
 682 672 l 2,13,14
 682 808 682 808 624.5 869 c 128,-1,15
 567 930 567 930 460 930 c 0,16,17
 383 930 383 930 312.5 889 c 128,-1,18
 242 848 242 848 209 775 c 1,19,20
 181 701 181 701 181 580 c 2,21,-1
 181 0 l 1,22,-1
 0 0 l 1,0,-1
EndSplineSet
EndChar

StartChar: i
Encoding: 105 105 75
Width: 360
GlyphClass: 2
Flags: W
LayerCount: 2
Fore
SplineSet
0 1257 m 1,0,-1
 0 1464 l 1,1,-1
 180 1464 l 1,2,-1
 180 1257 l 1,3,-1
 0 1257 l 1,0,-1
0 0 m 1,4,-1
 0 1061 l 1,5,-1
 180 1061 l 1,6,-1
 180 0 l 1,7,-1
 0 0 l 1,4,-1
EndSplineSet
EndChar

StartChar: j
Encoding: 106 106 76
Width: 586
GlyphClass: 2
Flags: W
LayerCount: 2
Fore
SplineSet
227 1146 m 1,0,-1
 227 1355 l 1,1,-1
 406 1355 l 1,2,-1
 406 1146 l 1,3,-1
 227 1146 l 1,0,-1
0 -519 m 1,4,-1
 34 -366 l 1,5,6
 83 -379 83 -379 118 -379 c 0,7,8
 171 -379 171 -379 199 -344.5 c 128,-1,9
 227 -310 227 -310 227 -161 c 2,10,-1
 227 952 l 1,11,-1
 406 952 l 1,12,-1
 406 -165 l 2,13,14
 406 -361 406 -361 356 -439 c 1,15,16
 289 -538 289 -538 140 -538 c 0,17,18
 90 -538 90 -538 66.5 -534.5 c 128,-1,19
 43 -531 43 -531 0 -519 c 1,4,-1
EndSplineSet
EndChar

StartChar: k
Encoding: 107 107 77
Width: 1059
GlyphClass: 2
Flags: W
LayerCount: 2
Fore
SplineSet
0 0 m 1,0,-1
 0 1464 l 1,1,-1
 181 1464 l 1,2,-1
 181 630 l 1,3,-1
 605 1061 l 1,4,-1
 838 1061 l 1,5,-1
 434 667 l 1,6,-1
 879 0 l 1,7,-1
 658 0 l 1,8,-1
 307 542 l 1,9,-1
 181 421 l 1,10,-1
 181 0 l 1,11,-1
 0 0 l 1,0,-1
EndSplineSet
EndChar

StartChar: l
Encoding: 108 108 78
Width: 359
GlyphClass: 2
Flags: W
LayerCount: 2
Fore
SplineSet
0 0 m 1,0,-1
 0 1464 l 1,1,-1
 179 1464 l 1,2,-1
 179 0 l 1,3,-1
 0 0 l 1,0,-1
EndSplineSet
EndChar

StartChar: m
Encoding: 109 109 79
Width: 1616
GlyphClass: 2
Flags: W
LayerCount: 2
Fore
SplineSet
0 0 m 1,0,-1
 0 1060 l 1,1,-1
 162 1060 l 1,2,-1
 162 911 l 1,3,4
 211 987 211 987 293.5 1034.5 c 128,-1,5
 376 1082 376 1082 483 1082 c 0,6,7
 597 1082 597 1082 673.5 1034.5 c 128,-1,8
 750 987 750 987 781 896 c 1,9,10
 906 1082 906 1082 1108 1082 c 0,11,12
 1265 1082 1265 1082 1350.5 993 c 128,-1,13
 1436 904 1436 904 1436 727 c 2,14,-1
 1436 0 l 1,15,-1
 1257 0 l 1,16,-1
 1257 667 l 2,17,18
 1257 774 1257 774 1238 820 c 1,19,20
 1223 868 1223 868 1176.5 897.5 c 128,-1,21
 1130 927 1130 927 1069 927 c 0,22,23
 956 927 956 927 883 853.5 c 128,-1,24
 810 780 810 780 810 614 c 2,25,-1
 810 0 l 1,26,-1
 629 0 l 1,27,-1
 629 689 l 2,28,29
 629 807 629 807 586 868 c 1,30,31
 540 927 540 927 441 927 c 0,32,33
 366 927 366 927 300 888 c 1,34,35
 239 847 239 847 210 770.5 c 128,-1,36
 181 694 181 694 181 549 c 2,37,-1
 181 0 l 1,38,-1
 0 0 l 1,0,-1
EndSplineSet
EndChar

StartChar: n
Encoding: 110 110 80
Width: 1041
GlyphClass: 2
Flags: W
LayerCount: 2
Fore
SplineSet
0 0 m 1,0,-1
 0 1060 l 1,1,-1
 163 1060 l 1,2,-1
 163 909 l 1,3,4
 281 1082 281 1082 499 1082 c 0,5,6
 599 1082 599 1082 675 1048 c 1,7,8
 759 1013 759 1013 796 957 c 1,9,10
 837 903 837 903 850 826 c 0,11,12
 858 784 858 784 859.5 739 c 128,-1,13
 861 694 861 694 861 651 c 2,14,-1
 861 0 l 1,15,-1
 681 0 l 1,16,-1
 681 643 l 2,17,18
 681 754 681 754 660.5 808 c 128,-1,19
 640 862 640 862 587 894.5 c 128,-1,20
 534 927 534 927 463 927 c 0,21,22
 348 927 348 927 264.5 855.5 c 128,-1,23
 181 784 181 784 181 578 c 2,24,-1
 181 0 l 1,25,-1
 0 0 l 1,0,-1
EndSplineSet
EndChar

StartChar: o
Encoding: 111 111 81
Width: 1172
GlyphClass: 2
Flags: W
LayerCount: 2
Fore
SplineSet
0 553 m 0,0,1
 0 844 0 844 163 991 c 1,2,3
 302 1106 302 1106 496 1106 c 0,4,5
 717 1106 717 1106 854.5 963 c 128,-1,6
 992 820 992 820 992 569 c 0,7,8
 992 367 992 367 932 249 c 128,-1,9
 872 131 872 131 752.5 65.5 c 128,-1,10
 633 0 633 0 496 0 c 0,11,12
 278 0 278 0 139 143 c 128,-1,13
 0 286 0 286 0 553 c 0,0,1
185 553 m 0,14,15
 185 348 185 348 273.5 248.5 c 128,-1,16
 362 149 362 149 496 149 c 256,17,18
 630 149 630 149 718 248 c 1,19,20
 763 302 763 302 786 377.5 c 128,-1,21
 809 453 809 453 809 558 c 0,22,23
 809 755 809 755 719 857 c 128,-1,24
 629 959 629 959 496 959 c 256,25,26
 363 959 363 959 274 857.5 c 128,-1,27
 185 756 185 756 185 553 c 0,14,15
EndSplineSet
EndChar

StartChar: p
Encoding: 112 112 82
Width: 1100
GlyphClass: 2
Flags: W
LayerCount: 2
Fore
SplineSet
-114 -491 m 1,0,-1
 -114 976 l 1,1,-1
 49 976 l 1,2,-1
 49 838 l 1,3,4
 107 918 107 918 179.5 958.5 c 128,-1,5
 252 999 252 999 357 999 c 0,6,7
 491 999 491 999 595.5 929.5 c 128,-1,8
 700 860 700 860 753 731 c 128,-1,9
 806 602 806 602 806 454 c 0,10,11
 806 289 806 289 749 161 c 128,-1,12
 692 33 692 33 577.5 -37.5 c 128,-1,13
 463 -108 463 -108 343 -108 c 0,14,15
 252 -108 252 -108 182.5 -70.5 c 128,-1,16
 113 -33 113 -33 67 27 c 1,17,-1
 67 -491 l 1,18,-1
 -114 -491 l 1,0,-1
49 439 m 0,19,20
 49 237 49 237 132.5 139 c 128,-1,21
 216 41 216 41 331 41 c 0,22,23
 450 41 450 41 535.5 142 c 128,-1,24
 621 243 621 243 621 456 c 0,25,26
 621 660 621 660 538.5 759 c 128,-1,27
 456 858 456 858 339 858 c 0,28,29
 228 858 228 858 136 751 c 1,30,31
 49 644 49 644 49 439 c 0,19,20
EndSplineSet
EndChar

StartChar: q
Encoding: 113 113 83
Width: 1097
GlyphClass: 2
Flags: W
LayerCount: 2
Fore
SplineSet
737 -391 m 1,0,-1
 737 128 l 1,1,2
 701 76 701 76 622 31 c 1,3,4
 580 10 580 10 543.5 1 c 128,-1,5
 507 -8 507 -8 462 -8 c 0,6,7
 272 -8 272 -8 136 143.5 c 128,-1,8
 0 295 0 295 0 556 c 0,9,10
 0 713 0 713 56 841.5 c 128,-1,11
 112 970 112 970 214.5 1034.5 c 128,-1,12
 317 1099 317 1099 447 1099 c 0,13,14
 642 1099 642 1099 756 934 c 1,15,-1
 756 1076 l 1,16,-1
 917 1076 l 1,17,-1
 917 -391 l 1,18,-1
 737 -391 l 1,0,-1
184 550 m 0,19,20
 184 349 184 349 270 241 c 1,21,22
 356 141 356 141 477 141 c 0,23,24
 591 141 591 141 673.5 237 c 128,-1,25
 756 333 756 333 756 534 c 0,26,27
 756 745 756 745 668 851.5 c 128,-1,28
 580 958 580 958 463 958 c 0,29,30
 348 958 348 958 266 858 c 128,-1,31
 184 758 184 758 184 550 c 0,19,20
EndSplineSet
EndChar

StartChar: r
Encoding: 114 114 84
Width: 756
GlyphClass: 2
Flags: W
LayerCount: 2
Fore
SplineSet
0 0 m 1,0,-1
 0 1060 l 1,1,-1
 161 1060 l 1,2,-1
 161 899 l 1,3,4
 190 952 190 952 220.5 990.5 c 128,-1,5
 251 1029 251 1029 275 1048 c 1,6,7
 328 1082 328 1082 389 1082 c 0,8,9
 480 1082 480 1082 576 1025 c 1,10,-1
 512 858 l 1,11,12
 449 896 449 896 381 896 c 0,13,14
 323 896 323 896 276.5 863 c 128,-1,15
 230 830 230 830 209 763 c 0,16,17
 179 666 179 666 179 553 c 2,18,-1
 179 0 l 1,19,-1
 0 0 l 1,0,-1
EndSplineSet
EndChar

StartChar: s
Encoding: 115 115 85
Width: 1058
GlyphClass: 2
Flags: W
LayerCount: 2
Fore
SplineSet
0 340 m 1,0,-1
 177 367 l 1,1,2
 194 260 194 260 259 203 c 1,3,4
 330 149 330 149 451 149 c 0,5,6
 577 149 577 149 635.5 199.5 c 128,-1,7
 694 250 694 250 694 316 c 0,8,9
 694 377 694 377 641 412 c 1,10,11
 603 439 603 439 458 473 c 1,12,13
 259 522 259 522 185.5 557 c 128,-1,14
 112 592 112 592 67 659 c 1,15,16
 28 726 28 726 28 802 c 0,17,18
 28 874 28 874 60.5 932.5 c 128,-1,19
 93 991 93 991 149 1033 c 0,20,21
 185 1060 185 1060 263 1086 c 1,22,23
 298 1094 298 1094 338.5 1100 c 128,-1,24
 379 1106 379 1106 418 1106 c 0,25,26
 543 1106 543 1106 634.5 1071.5 c 128,-1,27
 726 1037 726 1037 778 973 c 1,28,29
 821 912 821 912 839 810 c 1,30,-1
 664 786 l 1,31,32
 652 866 652 866 595 915 c 1,33,34
 533 959 533 959 432 959 c 0,35,36
 309 959 309 959 255.5 918.5 c 128,-1,37
 202 878 202 878 202 823 c 0,38,39
 202 808 202 808 208 791.5 c 128,-1,40
 214 775 214 775 225 759 c 0,41,42
 246 730 246 730 294 713 c 1,43,-1
 451 665 l 1,44,45
 633 618 633 618 717 581 c 1,46,47
 793 550 793 550 835.5 489 c 128,-1,48
 878 428 878 428 878 334 c 0,49,50
 878 246 878 246 827 165 c 1,51,52
 774 87 774 87 676 42 c 1,53,54
 629 24 629 24 570 12 c 128,-1,55
 511 0 511 0 451 0 c 0,56,57
 246 0 246 0 138.5 84.5 c 128,-1,58
 31 169 31 169 0 340 c 1,0,-1
EndSplineSet
EndChar

StartChar: t
Encoding: 116 116 86
Width: 696
GlyphClass: 2
Flags: W
LayerCount: 2
Fore
SplineSet
489 175 m 1,0,-1
 516 17 l 1,1,2
 476 8 476 8 445 4 c 128,-1,3
 414 0 414 0 379 0 c 0,4,5
 283 0 283 0 228 30.5 c 128,-1,6
 173 61 173 61 151.5 112 c 128,-1,7
 130 163 130 163 130 324 c 2,8,-1
 130 933 l 1,9,-1
 0 933 l 1,10,-1
 0 1074 l 1,11,-1
 130 1074 l 1,12,-1
 130 1336 l 1,13,-1
 309 1444 l 1,14,-1
 309 1074 l 1,15,-1
 489 1074 l 1,16,-1
 489 933 l 1,17,-1
 309 933 l 1,18,-1
 309 315 l 2,19,20
 309 241 309 241 318.5 217.5 c 128,-1,21
 328 194 328 194 351 180.5 c 128,-1,22
 374 167 374 167 410 167 c 2,23,-1
 444 167 l 1,24,25
 473 174 473 174 489 175 c 1,0,-1
EndSplineSet
EndChar

StartChar: u
Encoding: 117 117 87
Width: 1038
GlyphClass: 2
Flags: W
LayerCount: 2
Fore
SplineSet
699 24 m 1,0,-1
 699 179 l 1,1,2
 574 0 574 0 362 0 c 0,3,4
 272 0 272 0 187 37 c 128,-1,5
 102 74 102 74 65 126 c 0,6,7
 48 150 48 150 34.5 184 c 128,-1,8
 21 218 21 218 10 259 c 1,9,10
 0 316 0 316 0 427 c 2,11,-1
 0 1084 l 1,12,-1
 179 1084 l 1,13,-1
 179 496 l 2,14,15
 179 347 179 347 190 306 c 0,16,17
 209 234 209 234 262 193 c 1,18,19
 320 154 320 154 399 154 c 0,20,21
 483 154 483 154 551.5 196 c 128,-1,22
 620 238 620 238 649 307.5 c 128,-1,23
 678 377 678 377 678 516 c 2,24,-1
 678 1084 l 1,25,-1
 858 1084 l 1,26,-1
 858 24 l 1,27,-1
 699 24 l 1,0,-1
EndSplineSet
EndChar

StartChar: v
Encoding: 118 118 88
Width: 1150
GlyphClass: 2
Flags: W
LayerCount: 2
Fore
SplineSet
403 0 m 1,0,-1
 0 1060 l 1,1,-1
 187 1060 l 1,2,-1
 416 424 l 2,3,4
 426 396 426 396 457 296 c 1,5,6
 476 239 476 239 484 212 c 1,7,-1
 551 412 l 1,8,-1
 786 1060 l 1,9,-1
 970 1060 l 1,10,-1
 570 0 l 1,11,-1
 403 0 l 1,0,-1
EndSplineSet
EndChar

StartChar: w
Encoding: 119 119 89
Width: 1632
GlyphClass: 2
Flags: W
LayerCount: 2
Fore
SplineSet
324 0 m 1,0,-1
 0 1060 l 1,1,-1
 185 1060 l 1,2,-1
 352 447 l 1,3,-1
 416 220 l 1,4,-1
 471 439 l 1,5,-1
 638 1060 l 1,6,-1
 824 1060 l 1,7,-1
 981 445 l 1,8,-1
 1035 243 l 1,9,-1
 1096 447 l 1,10,-1
 1278 1060 l 1,11,-1
 1452 1060 l 1,12,-1
 1121 0 l 1,13,-1
 935 0 l 1,14,-1
 766 635 l 1,15,-1
 725 815 l 1,16,-1
 511 0 l 1,17,-1
 324 0 l 1,0,-1
EndSplineSet
EndChar

StartChar: x
Encoding: 120 120 90
Width: 1172
GlyphClass: 2
Flags: W
LayerCount: 2
Fore
SplineSet
0 0 m 1,0,-1
 388 552 l 1,1,-1
 28 1060 l 1,2,-1
 253 1060 l 1,3,-1
 416 811 l 1,4,-1
 489 693 l 1,5,-1
 572 808 l 1,6,-1
 749 1060 l 1,7,-1
 964 1060 l 1,8,-1
 598 560 l 1,9,-1
 992 0 l 1,10,-1
 771 0 l 1,11,-1
 553 328 l 1,12,-1
 496 419 l 1,13,-1
 218 0 l 1,14,-1
 0 0 l 1,0,-1
EndSplineSet
EndChar

StartChar: y
Encoding: 121 121 91
Width: 1149
GlyphClass: 2
Flags: W
LayerCount: 2
Fore
SplineSet
93 -417 m 1,0,-1
 73 -248 l 1,1,2
 134 -264 134 -264 177 -264 c 0,3,4
 238 -264 238 -264 271 -244 c 1,5,6
 306 -226 306 -226 330 -188 c 1,7,8
 344 -168 344 -168 386 -53 c 1,9,-1
 402 -11 l 1,10,-1
 0 1052 l 1,11,-1
 193 1052 l 1,12,-1
 414 437 l 2,13,14
 432 385 432 385 452.5 319.5 c 128,-1,15
 473 254 473 254 489 193 c 1,16,17
 520 311 520 311 564 433 c 2,18,-1
 790 1052 l 1,19,-1
 969 1052 l 1,20,-1
 568 -27 l 1,21,22
 500 -204 500 -204 467 -266 c 1,23,24
 417 -354 417 -354 357.5 -396 c 128,-1,25
 298 -438 298 -438 210 -438 c 0,26,27
 154 -438 154 -438 93 -417 c 1,0,-1
EndSplineSet
EndChar

StartChar: z
Encoding: 122 122 92
Width: 1117
GlyphClass: 2
Flags: W
LayerCount: 2
Fore
SplineSet
0 0 m 1,0,-1
 0 145 l 1,1,-1
 674 919 l 1,2,-1
 469 913 l 1,3,-1
 38 913 l 1,4,-1
 38 1060 l 1,5,-1
 904 1060 l 1,6,-1
 904 940 l 1,7,-1
 331 267 l 1,8,-1
 221 145 l 1,9,10
 275 145 275 145 308 147 c 0,11,12
 440 155 440 155 447 155 c 2,13,-1
 937 155 l 1,14,-1
 937 0 l 1,15,-1
 0 0 l 1,0,-1
EndSplineSet
EndChar

StartChar: braceleft
Encoding: 123 123 93
Width: 759
GlyphClass: 2
Flags: W
LayerCount: 2
Fore
SplineSet
0 732 m 1,0,1
 74 732 74 732 123 773.5 c 128,-1,2
 172 815 172 815 191 881 c 1,3,4
 196 923 196 923 201.5 995.5 c 128,-1,5
 207 1068 207 1068 207 1117 c 0,6,7
 207 1282 207 1282 214.5 1352.5 c 128,-1,8
 222 1423 222 1423 246 1472 c 128,-1,9
 270 1521 270 1521 303.5 1549.5 c 128,-1,10
 337 1578 337 1578 399 1600 c 1,11,12
 439 1609 439 1609 522 1609 c 2,13,-1
 579 1609 l 1,14,-1
 579 1452 l 1,15,-1
 546 1452 l 2,16,17
 439 1452 439 1452 406.5 1414 c 128,-1,18
 374 1376 374 1376 374 1247 c 2,19,-1
 374 1040 l 2,20,21
 374 948 374 948 363 919 c 1,22,23
 346 812 346 812 302 754.5 c 128,-1,24
 258 697 258 697 165 651 c 1,25,26
 276 606 276 606 325 512.5 c 128,-1,27
 374 419 374 419 374 202 c 1,28,-1
 378 -30 l 1,29,30
 386 -96 386 -96 419 -125 c 1,31,32
 457 -152 457 -152 546 -152 c 2,33,-1
 579 -152 l 1,34,-1
 579 -308 l 1,35,-1
 522 -308 l 2,36,37
 423 -308 423 -308 381 -293 c 1,38,39
 317 -268 317 -268 276.5 -219.5 c 128,-1,40
 236 -171 236 -171 219 -88 c 1,41,42
 207 -8 207 -8 207 171 c 0,43,44
 207 344 207 344 191 416 c 128,-1,45
 175 488 175 488 125 529 c 1,46,47
 70 569 70 569 0 569 c 1,48,-1
 0 732 l 1,0,1
EndSplineSet
EndChar

StartChar: bar
Encoding: 124 124 94
Width: 335
GlyphClass: 2
Flags: W
LayerCount: 2
Fore
SplineSet
0 -308 m 1,0,-1
 0 1609 l 1,1,-1
 155 1609 l 1,2,-1
 155 -308 l 1,3,-1
 0 -308 l 1,0,-1
EndSplineSet
EndChar

StartChar: braceright
Encoding: 125 125 95
Width: 759
GlyphClass: 2
Flags: W
LayerCount: 2
Fore
SplineSet
579 732 m 1,0,-1
 579 569 l 1,1,2
 503 569 503 569 453 528.5 c 128,-1,3
 403 488 403 488 388 418 c 128,-1,4
 373 348 373 348 373 186 c 2,5,-1
 373 87 l 2,6,7
 373 1 373 1 366 -35 c 1,8,9
 358 -115 358 -115 333 -166 c 128,-1,10
 308 -217 308 -217 273 -250 c 1,11,12
 240 -277 240 -277 180 -297 c 1,13,14
 159 -302 159 -302 135 -305 c 128,-1,15
 111 -308 111 -308 56 -308 c 2,16,-1
 0 -308 l 1,17,-1
 0 -152 l 1,18,-1
 31 -152 l 2,19,20
 136 -152 136 -152 168 -113 c 1,21,22
 203 -79 203 -79 203 54 c 0,23,24
 203 177 203 177 205 248.5 c 128,-1,25
 207 320 207 320 212 371 c 1,26,27
 225 481 225 481 277 546 c 1,28,29
 324 613 324 613 411 651 c 1,30,31
 301 702 301 702 252 793.5 c 128,-1,32
 203 885 203 885 203 1101 c 2,33,-1
 203 1223 l 2,34,35
 203 1300 203 1300 198 1348 c 128,-1,36
 193 1396 193 1396 161 1424 c 128,-1,37
 129 1452 129 1452 31 1452 c 2,38,-1
 0 1452 l 1,39,-1
 0 1609 l 1,40,-1
 56 1609 l 2,41,42
 159 1609 159 1609 211.5 1589.5 c 128,-1,43
 264 1570 264 1570 305 1518.5 c 128,-1,44
 346 1467 346 1467 358 1388 c 1,45,46
 365 1350 365 1350 369 1285.5 c 128,-1,47
 373 1221 373 1221 373 1131 c 0,48,49
 373 945 373 945 388 880.5 c 128,-1,50
 403 816 403 816 453 774 c 0,51,52
 477 755 477 755 509.5 743.5 c 128,-1,53
 542 732 542 732 579 732 c 1,0,-1
EndSplineSet
EndChar

StartChar: asciitilde
Encoding: 126 126 96
Width: 1202
GlyphClass: 2
Flags: W
LayerCount: 2
Fore
SplineSet
0 1037 m 1,0,-1
 0 1241 l 1,1,2
 108 1362 108 1362 277 1362 c 0,3,4
 337 1362 337 1362 405 1343 c 1,5,6
 459 1331 459 1331 592 1274 c 1,7,-1
 695 1237 l 1,8,9
 726 1229 726 1229 737.5 1228.5 c 128,-1,10
 749 1228 749 1228 764 1228 c 0,11,12
 824 1228 824 1228 897 1266 c 1,13,14
 965 1305 965 1305 1022 1365 c 1,15,-1
 1022 1153 l 1,16,17
 958 1095 958 1095 895 1067 c 128,-1,18
 832 1039 832 1039 745 1039 c 0,19,20
 683 1039 683 1039 630 1052 c 128,-1,21
 577 1065 577 1065 460 1118.5 c 128,-1,22
 343 1172 343 1172 261 1172 c 0,23,24
 196 1172 196 1172 142 1145.5 c 128,-1,25
 88 1119 88 1119 0 1037 c 1,0,-1
EndSplineSet
EndChar

StartChar: copyright
Encoding: 169 169 97
Width: 2094
GlyphClass: 2
Flags: W
LayerCount: 2
Fore
SplineSet
1432 125 m 1,0,1
 1205 0 1205 0 959 0 c 0,2,3
 701 0 701 0 477 128 c 0,4,5
 250 257 250 257 125 482.5 c 128,-1,6
 0 708 0 708 0 956 c 0,7,8
 0 1209 0 1209 133.5 1438 c 128,-1,9
 267 1667 267 1667 490.5 1789 c 128,-1,10
 714 1911 714 1911 959 1911 c 0,11,12
 1198 1911 1198 1911 1427 1788 c 1,13,14
 1650 1667 1650 1667 1782 1440.5 c 128,-1,15
 1914 1214 1914 1214 1914 956 c 0,16,17
 1914 701 1914 701 1783 475.5 c 128,-1,18
 1652 250 1652 250 1432 125 c 1,0,1
959 1704 m 0,19,20
 762 1704 762 1704 587 1609 c 128,-1,21
 412 1514 412 1514 307 1334.5 c 128,-1,22
 202 1155 202 1155 202 956 c 0,23,24
 202 762 202 762 304 581 c 1,25,26
 405 404 405 404 584.5 304 c 128,-1,27
 764 204 764 204 959 204 c 0,28,29
 1157 204 1157 204 1335 306 c 128,-1,30
 1513 408 1513 408 1606 581 c 1,31,32
 1707 763 1707 763 1707 956 c 256,33,34
 1707 1149 1707 1149 1607 1330.5 c 128,-1,35
 1507 1512 1507 1512 1327.5 1608 c 128,-1,36
 1148 1704 1148 1704 959 1704 c 0,19,20
961 396 m 0,37,38
 731 396 731 396 589 546 c 128,-1,39
 447 696 447 696 447 952 c 0,40,41
 447 1209 447 1209 586 1355 c 1,42,43
 730 1503 730 1503 969 1503 c 0,44,45
 1320 1503 1320 1503 1421 1169 c 1,46,-1
 1227 1121 l 1,47,48
 1144 1318 1144 1318 964 1318 c 0,49,50
 832 1318 832 1318 750 1225 c 1,51,52
 665 1127 665 1127 665 947 c 0,53,54
 665 770 665 770 746 680 c 1,55,56
 823 592 823 592 951 592 c 0,57,58
 1054 592 1054 592 1130 650 c 128,-1,59
 1206 708 1206 708 1235 835 c 1,60,-1
 1439 779 l 1,61,62
 1395 591 1395 591 1266.5 493.5 c 128,-1,63
 1138 396 1138 396 961 396 c 0,37,38
EndSplineSet
EndChar

StartChar: Pulli
Encoding: 2946 2946 98
Width: 570
GlyphClass: 2
Flags: W
LayerCount: 2
Fore
SplineSet
146 1254 m 0,0,1
 65 1254 65 1254 8.5 1313 c 128,-1,2
 -48 1372 -48 1372 -48 1451 c 0,3,4
 -48 1531 -48 1531 9 1588.5 c 128,-1,5
 66 1646 66 1646 146 1646 c 0,6,7
 224 1646 224 1646 283 1588.5 c 128,-1,8
 342 1531 342 1531 342 1451 c 0,9,10
 342 1374 342 1374 285 1314 c 128,-1,11
 228 1254 228 1254 146 1254 c 0,0,1
EndSplineSet
EndChar

StartChar: Ayutham
Encoding: 2947 2947 99
Width: 1783
GlyphClass: 2
Flags: W
LayerCount: 2
Fore
SplineSet
189 20 m 1,0,1
 132 39 132 39 89.5 81 c 128,-1,2
 47 123 47 123 22 169 c 1,3,4
 0 221 0 221 0 276 c 2,5,-1
 0 323 l 2,6,7
 0 381 0 381 20 423.5 c 128,-1,8
 40 466 40 466 92 507 c 1,9,10
 128 538 128 538 188 558 c 1,11,-1
 242 572 l 1,12,-1
 302 579 l 1,13,-1
 351 579 l 2,14,15
 394 579 394 579 446 561.5 c 128,-1,16
 498 544 498 544 547 507 c 1,17,18
 596 474 596 474 623 425 c 1,19,-1
 639 385 l 2,20,21
 649 358 649 358 649 323 c 2,22,-1
 649 276 l 2,23,24
 649 218 649 218 627 175 c 1,25,26
 616 148 616 148 559 84 c 1,27,28
 524 49 524 49 459 20 c 1,29,-1
 406 7 l 1,30,-1
 351 0 l 1,31,-1
 302 0 l 2,32,33
 242 0 242 0 189 20 c 1,0,1
387 129 m 0,34,35
 418 141 418 141 438 167.5 c 128,-1,36
 458 194 458 194 467 226 c 2,37,-1
 474 253 l 1,38,-1
 478 293 l 1,39,40
 478 331 478 331 470.5 354.5 c 128,-1,41
 463 378 463 378 455 389 c 1,42,43
 451 403 451 403 439 413 c 1,44,45
 423 435 423 435 390 447 c 1,46,47
 370 458 370 458 326 464 c 1,48,49
 294 464 294 464 267.5 453 c 128,-1,50
 241 442 241 442 208 413 c 1,51,52
 189 389 189 389 177 355 c 1,53,-1
 169 329 l 1,54,-1
 168 290 l 1,55,56
 168 245 168 245 174.5 223 c 128,-1,57
 181 201 181 201 208 168 c 0,58,59
 225 148 225 148 257 131 c 1,60,61
 296 117 296 117 326 117 c 0,62,63
 357 117 357 117 387 129 c 0,34,35
1579 169 m 1,64,65
 1560 131 1560 131 1518 88 c 1,66,67
 1477 51 1477 51 1411 20 c 1,68,-1
 1358 7 l 1,69,-1
 1298 0 l 1,70,-1
 1252 0 l 1,71,-1
 1197 3 l 1,72,73
 1176 3 1176 3 1145 16 c 0,74,75
 1096 35 1096 35 1046 80 c 1,76,77
 1027 99 1027 99 1004 129 c 1,78,79
 991 149 991 149 974 172 c 1,80,81
 951 222 951 222 951 276 c 2,82,-1
 951 323 l 2,83,84
 951 381 951 381 975 424.5 c 128,-1,85
 999 468 999 468 1045.5 506 c 128,-1,86
 1092 544 1092 544 1141.5 561.5 c 128,-1,87
 1191 579 1191 579 1252 579 c 2,88,-1
 1298 579 l 2,89,90
 1352 579 1352 579 1408.5 559.5 c 128,-1,91
 1465 540 1465 540 1507 504 c 1,92,93
 1542 482 1542 482 1576 425 c 1,94,-1
 1594 385 l 1,95,96
 1603 358 1603 358 1603 323 c 2,97,-1
 1603 276 l 2,98,99
 1603 232 1603 232 1579 169 c 1,64,65
1342 129 m 1,100,101
 1365 137 1365 137 1388 165 c 1,102,-1
 1422 222 l 1,103,-1
 1430 256 l 1,104,-1
 1431 290 l 1,105,106
 1431 331 1431 331 1424.5 354.5 c 128,-1,107
 1418 378 1418 378 1409 389 c 1,108,109
 1405 403 1405 403 1393 413 c 1,110,111
 1377 435 1377 435 1348.5 446.5 c 128,-1,112
 1320 458 1320 458 1277 464 c 1,113,114
 1248 464 1248 464 1221.5 453.5 c 128,-1,115
 1195 443 1195 443 1160 415 c 1,116,117
 1141 390 1141 390 1130 359 c 1,118,-1
 1122 294 l 1,119,-1
 1122 248 l 1,120,121
 1127 229 1127 229 1132 215 c 128,-1,122
 1137 201 1137 201 1163 169 c 1,123,-1
 1211 129 l 1,124,125
 1240 117 1240 117 1277 117 c 0,126,127
 1301 117 1301 117 1342 129 c 1,100,101
969 1280 m 1,128,-1
 1011 1257 l 1,129,130
 1039 1244 1039 1244 1060 1227 c 0,131,132
 1107 1189 1107 1189 1133 1144 c 1,133,-1
 1149 1103 l 2,134,135
 1160 1076 1160 1076 1160 1042 c 2,136,-1
 1160 998 l 2,137,138
 1160 941 1160 941 1139.5 897.5 c 128,-1,139
 1119 854 1119 854 1068 805 c 0,140,141
 1048 785 1048 785 970 740 c 1,142,-1
 919 725 l 1,143,-1
 862 720 l 1,144,-1
 813 720 l 2,145,146
 757 720 757 720 703 737 c 128,-1,147
 649 754 649 754 604 797 c 128,-1,148
 559 840 559 840 532 889 c 1,149,150
 511 941 511 941 511 998 c 2,151,-1
 511 1042 l 2,152,153
 511 1102 511 1102 532 1140 c 1,154,155
 555 1185 555 1185 603 1227 c 1,156,-1
 647 1253 l 1,157,-1
 700 1280 l 1,158,159
 753 1297 753 1297 813 1297 c 2,160,-1
 862 1297 l 2,161,162
 907 1297 907 1297 969 1280 c 1,128,-1
898 846 m 256,163,164
 929 858 929 858 949 884.5 c 128,-1,165
 969 911 969 911 978 945 c 2,166,-1
 986 977 l 1,167,-1
 989 1011 l 1,168,169
 989 1048 989 1048 981.5 1071.5 c 128,-1,170
 974 1095 974 1095 966 1106 c 1,171,172
 962 1120 962 1120 950 1129 c 1,173,174
 934 1152 934 1152 901 1165 c 1,175,176
 881 1175 881 1175 837 1181 c 1,177,178
 805 1181 805 1181 778.5 1170 c 128,-1,179
 752 1159 752 1159 719 1129 c 1,180,181
 700 1106 700 1106 688 1072 c 1,182,-1
 680 1044 l 1,183,-1
 679 1007 l 1,184,185
 679 962 679 962 685.5 940 c 128,-1,186
 692 918 692 918 719 885 c 0,187,188
 736 865 736 865 768 847 c 1,189,190
 806 834 806 834 837 834 c 0,191,192
 867 834 867 834 898 846 c 256,163,164
EndSplineSet
EndChar

StartChar: TamlA
Encoding: 2949 2949 100
Width: 1938
GlyphClass: 2
Flags: W
LayerCount: 2
Fore
SplineSet
1594 1344 m 1,0,-1
 1758 1344 l 1,1,-1
 1758 -162 l 1,2,-1
 1594 -162 l 1,3,-1
 1594 391 l 1,4,-1
 1365 391 l 1,5,6
 1328 317 1328 317 1259 235 c 1,7,8
 1207 184 1207 184 1098 109 c 1,9,10
 1012 60 1012 60 903 29.5 c 128,-1,11
 794 -1 794 -1 690 -1 c 1,12,-1
 576 -4 l 1,13,14
 464 -4 464 -4 372.5 18.5 c 128,-1,15
 281 41 281 41 197 88 c 1,16,17
 110 133 110 133 57 203 c 0,18,19
 17 255 17 255 0 349 c 1,20,-1
 0 391 l 2,21,22
 0 439 0 439 42 475 c 1,23,24
 85 506 85 506 180 506 c 2,25,-1
 1232 506 l 1,26,-1
 1234 516 l 1,27,-1
 1240 549 l 1,28,-1
 1247 589 l 1,29,-1
 1248 626 l 1,30,-1
 1248 694 l 1,31,-1
 1243 797 l 1,32,33
 1236 848 1236 848 1234 861 c 1,34,35
 1224 888 1224 888 1222 897 c 2,36,-1
 1191 991 l 1,37,-1
 1173 1034 l 1,38,-1
 1145 1081 l 2,39,40
 1100 1156 1100 1156 1056 1191.5 c 128,-1,41
 1012 1227 1012 1227 970 1227 c 1,42,43
 975 1223 975 1223 979.5 1217 c 128,-1,44
 984 1211 984 1211 997 1190 c 1,45,-1
 1020 1142 l 1,46,-1
 1035 1095 l 1,47,-1
 1041 1064 l 1,48,-1
 1041 923 l 2,49,50
 1041 874 1041 874 1021 837 c 128,-1,51
 1001 800 1001 800 959 770 c 1,52,53
 928 751 928 751 879 732 c 1,54,55
 849 726 849 726 826.5 722 c 128,-1,56
 804 718 804 718 781 718 c 0,57,58
 743 718 743 718 698.5 730.5 c 128,-1,59
 654 743 654 743 610 767 c 1,60,61
 576 791 576 791 549 836 c 1,62,63
 532 873 532 873 532 923 c 2,64,-1
 532 1089 l 2,65,66
 532 1146 532 1146 549 1186.5 c 128,-1,67
 566 1227 566 1227 610 1272 c 1,68,69
 639 1295 639 1295 698 1323 c 1,70,-1
 747 1337 l 1,71,-1
 806 1344 l 1,72,-1
 922 1344 l 2,73,74
 1036 1344 1036 1344 1129 1295 c 1,75,76
 1173 1270 1173 1270 1214 1233.5 c 128,-1,77
 1255 1197 1255 1197 1293 1144 c 1,78,79
 1346 1064 1346 1064 1379 954 c 1,80,-1
 1403 844 l 1,81,-1
 1411 718 l 1,82,-1
 1411 602 l 1,83,-1
 1410 577 l 1,84,-1
 1410 555 l 2,85,86
 1410 535 1410 535 1405 531 c 1,87,-1
 1399 506 l 1,88,-1
 1594 506 l 1,89,-1
 1594 1344 l 1,0,-1
838 137 m 1,90,91
 905 150 905 150 973 189 c 128,-1,92
 1041 228 1041 228 1096 280 c 1,93,94
 1134 314 1134 314 1186 391 c 1,95,-1
 158 391 l 1,96,-1
 158 348 l 2,97,98
 158 303 158 303 187.5 265.5 c 128,-1,99
 217 228 217 228 274 190 c 1,100,101
 313 167 313 167 403 139 c 1,102,-1
 484 125 l 1,103,-1
 576 119 l 1,104,-1
 690 117 l 1,105,106
 772 117 772 117 838 137 c 1,90,91
878 1136 m 2,107,108
 878 1154 878 1154 870 1169 c 1,109,-1
 849 1197 l 1,110,-1
 818 1213 l 1,111,-1
 784 1219 l 1,112,-1
 747 1213 l 1,113,-1
 716 1197 l 1,114,115
 707 1190 707 1190 698 1174 c 1,116,-1
 690 1136 l 1,117,-1
 690 901 l 1,118,-1
 696 874 l 1,119,-1
 715 852 l 1,120,-1
 743 840 l 1,121,-1
 780 836 l 1,122,123
 806 836 806 836 814 840 c 1,124,-1
 847 852 l 1,125,126
 859 858 859 858 870 874 c 1,127,-1
 878 901 l 1,128,-1
 878 1136 l 2,107,108
EndSplineSet
EndChar

StartChar: TamlAA
Encoding: 2950 2950 101
Width: 2362
GlyphClass: 2
Flags: W
LayerCount: 2
Fore
SplineSet
1793 -64 m 1,0,1
 1850 -40 1850 -40 1920 24 c 0,2,3
 1949 50 1949 50 1963 77 c 1,4,-1
 1994 126 l 1,5,-1
 2013 178 l 1,6,-1
 2018 248 l 1,7,8
 2018 294 2018 294 2010.5 318.5 c 128,-1,9
 2003 343 2003 343 1984 373.5 c 128,-1,10
 1965 404 1965 404 1949 417.5 c 128,-1,11
 1933 431 1933 431 1902 437 c 1,12,-1
 1861 431 l 1,13,-1
 1820 412 l 1,14,-1
 1796 396 l 1,15,-1
 1763 370 l 1,16,-1
 1763 135 l 1,17,-1
 1603 135 l 1,18,-1
 1603 389 l 1,19,-1
 1369 389 l 1,20,21
 1332 315 1332 315 1263 233 c 1,22,-1
 1229 201 l 1,23,-1
 1191 169 l 1,24,-1
 1103 106 l 1,25,26
 1018 57 1018 57 908 26.5 c 128,-1,27
 798 -4 798 -4 696 -4 c 1,28,-1
 582 -7 l 1,29,30
 470 -7 470 -7 379 15 c 128,-1,31
 288 37 288 37 199 85 c 1,32,33
 112 129 112 129 59 201 c 1,34,35
 23 244 23 244 0 347 c 1,36,-1
 0 389 l 2,37,38
 0 404 0 404 12 430.5 c 128,-1,39
 24 457 24 457 47 473 c 1,40,-1
 107 496 l 1,41,-1
 185 504 l 1,42,-1
 1240 504 l 1,43,-1
 1248 561 l 1,44,-1
 1252 625 l 1,45,-1
 1252 693 l 2,46,47
 1252 815 1252 815 1225 900 c 1,48,49
 1205 983 1205 983 1152 1076 c 1,50,51
 1130 1121 1130 1121 1107 1144 c 1,52,53
 1088 1169 1088 1169 1060 1190 c 1,54,55
 1018 1227 1018 1227 977 1227 c 1,56,-1
 1005 1186 l 1,57,-1
 1026 1142 l 1,58,-1
 1039 1094 l 1,59,-1
 1044 1064 l 1,60,-1
 1044 923 l 2,61,62
 1044 874 1044 874 1024.5 836.5 c 128,-1,63
 1005 799 1005 799 966 770 c 0,64,65
 950 758 950 758 882 729 c 1,66,-1
 837 719 l 1,67,-1
 786 715 l 1,68,69
 748 715 748 715 702.5 727 c 128,-1,70
 657 739 657 739 615 763 c 1,71,72
 580 788 580 788 554 834 c 1,73,-1
 542 864 l 1,74,-1
 534 923 l 1,75,-1
 534 1089 l 2,76,77
 534 1146 534 1146 554 1189 c 1,78,79
 566 1223 566 1223 615 1273 c 1,80,81
 649 1301 649 1301 705.5 1329.5 c 128,-1,82
 762 1358 762 1358 813 1358 c 2,83,-1
 930 1358 l 1,84,85
 1046 1331 1046 1331 1138 1295 c 1,86,87
 1185 1270 1185 1270 1224 1234 c 1,88,89
 1251 1207 1251 1207 1263 1192.5 c 128,-1,90
 1275 1178 1275 1178 1297 1144 c 0,91,92
 1350 1062 1350 1062 1383 946.5 c 128,-1,93
 1416 831 1416 831 1416 717 c 2,94,-1
 1416 601 l 1,95,-1
 1414 574 l 1,96,-1
 1412 548 l 1,97,98
 1412 526 1412 526 1408 522 c 1,99,-1
 1408 504 l 1,100,-1
 1603 504 l 1,101,-1
 1603 1344 l 1,102,-1
 1763 1344 l 1,103,-1
 1763 504 l 1,104,-1
 1789 521 l 1,105,-1
 1830 537 l 1,106,-1
 1880 549 l 1,107,-1
 1926 553 l 1,108,109
 1990 553 1990 553 2025 530 c 1,110,111
 2063 514 2063 514 2101.5 471.5 c 128,-1,112
 2140 429 2140 429 2163 367 c 1,113,114
 2182 308 2182 308 2182 233 c 0,115,116
 2182 135 2182 135 2145 68.5 c 128,-1,117
 2108 2 2108 2 2021 -72 c 0,118,119
 1946 -135 1946 -135 1857.5 -172 c 128,-1,120
 1769 -209 1769 -209 1665 -215 c 0,121,122
 1638 -217 1638 -217 1609 -217 c 0,123,124
 1522 -217 1522 -217 1408 -203 c 1,125,-1
 1374 -185 l 1,126,-1
 1352 -177 l 1,127,-1
 1324 -165 l 1,128,-1
 1294 -148 l 1,129,130
 1256 -125 1256 -125 1211 -81 c 1,131,-1
 1193 -41 l 1,132,-1
 1185 -3 l 1,133,-1
 1185 44 l 2,134,135
 1185 82 1185 82 1195 101 c 2,136,-1
 1209 126 l 1,137,-1
 1229 157 l 1,138,-1
 1285 205 l 1,139,140
 1316 170 1316 170 1348 137 c 1,141,-1
 1369 108 l 1,142,-1
 1352 69 l 1,143,-1
 1348 21 l 1,144,-1
 1361 -11 l 1,145,-1
 1408 -52 l 1,146,-1
 1435 -68 l 1,147,-1
 1465 -81 l 1,148,-1
 1493 -89 l 1,149,-1
 1533 -93 l 1,150,-1
 1647 -95 l 1,151,152
 1727 -95 1727 -95 1793 -64 c 1,0,1
841 137 m 1,153,154
 909 149 909 149 970 187 c 1,155,156
 1031 222 1031 222 1089.5 274.5 c 128,-1,157
 1148 327 1148 327 1189 389 c 1,158,-1
 164 389 l 1,159,-1
 164 346 l 2,160,161
 164 300 164 300 193.5 263 c 128,-1,162
 223 226 223 226 280 187 c 1,163,164
 318 165 318 165 409 137 c 1,165,-1
 490 122 l 1,166,-1
 582 117 l 1,167,-1
 696 114 l 2,168,169
 733 114 733 114 765.5 117.5 c 128,-1,170
 798 121 798 121 841 137 c 1,153,154
760 1219 m 1,171,-1
 729 1195 l 1,172,-1
 705 1162 l 1,173,-1
 696 1136 l 1,174,-1
 696 900 l 1,175,-1
 703 874 l 1,176,-1
 721 851 l 1,177,-1
 749 839 l 1,178,-1
 784 835 l 1,179,180
 810 835 810 835 820 839 c 2,181,-1
 850 851 l 1,182,183
 862 858 862 858 873 874 c 1,184,-1
 881 900 l 1,185,-1
 881 1136 l 2,186,187
 881 1152 881 1152 873.5 1167 c 128,-1,188
 866 1182 866 1182 848 1197 c 1,189,-1
 817 1219 l 1,190,-1
 789 1227 l 1,191,192
 776 1227 776 1227 760 1219 c 1,171,-1
EndSplineSet
EndChar

StartChar: Taml_I
Encoding: 2951 2951 102
Width: 1830
GlyphClass: 2
Flags: W
LayerCount: 2
Fore
SplineSet
890 1063 m 1,0,-1
 911 1022 l 1,1,-1
 926 977 l 1,2,-1
 933 938 l 1,3,-1
 933 775 l 2,4,5
 933 724 933 724 910 690 c 1,6,7
 899 667 899 667 846 630 c 1,8,9
 812 610 812 610 769 599 c 1,10,-1
 677 591 l 1,11,12
 624 591 624 591 590 600.5 c 128,-1,13
 556 610 556 610 542 616 c 128,-1,14
 528 622 528 622 498 641 c 1,15,16
 465 665 465 665 442 708 c 1,17,18
 431 731 431 731 430 739 c 1,19,20
 422 766 422 766 422 797 c 2,21,-1
 422 964 l 2,22,23
 422 1018 422 1018 439.5 1058 c 128,-1,24
 457 1098 457 1098 502 1143 c 1,25,26
 546 1182 546 1182 591 1198 c 1,27,-1
 640 1212 l 1,28,-1
 696 1219 l 1,29,-1
 812 1219 l 2,30,31
 903 1219 903 1219 975.5 1182 c 128,-1,32
 1048 1145 1048 1145 1108 1071 c 0,33,34
 1132 1040 1132 1040 1156 996.5 c 128,-1,35
 1180 953 1180 953 1197 907 c 1,36,37
 1231 808 1231 808 1231 708 c 2,38,-1
 1231 591 l 1,39,-1
 1227 534 l 1,40,41
 1223 502 1223 502 1212 470 c 1,42,-1
 1197 413 l 1,43,-1
 1188 379 l 1,44,45
 1216 367 1216 367 1233 351 c 1,46,-1
 1273 325 l 1,47,-1
 1306 297 l 1,48,-1
 1334 271 l 1,49,50
 1364 240 1364 240 1378 202 c 2,51,-1
 1390 167 l 1,52,-1
 1394 126 l 1,53,-1
 1394 -11 l 2,54,55
 1394 -58 1394 -58 1369.5 -108.5 c 128,-1,56
 1345 -159 1345 -159 1296 -205 c 1,57,58
 1247 -243 1247 -243 1188 -269 c 1,59,-1
 1131 -282 l 1,60,-1
 1067 -289 l 1,61,-1
 884 -290 l 2,62,63
 841 -290 841 -290 820 -281 c 1,64,-1
 755 -260 l 1,65,-1
 701 -236 l 1,66,-1
 628 -197 l 1,67,-1
 552 -233 l 1,68,-1
 483 -263 l 1,69,-1
 422 -281 l 1,70,-1
 373 -289 l 1,71,-1
 185 -290 l 2,72,73
 136 -290 136 -290 111 -274 c 1,74,75
 101 -273 101 -273 52 -232 c 1,76,77
 34 -213 34 -213 19 -172 c 1,78,-1
 11 -141 l 1,79,-1
 3 -106 l 1,80,-1
 0 -11 l 1,81,-1
 3 30 l 1,82,-1
 7 43 l 1,83,-1
 18 66 l 1,84,-1
 54 138 l 1,85,-1
 107 199 l 1,86,-1
 185 264 l 1,87,-1
 140 377 l 1,88,-1
 103 504 l 1,89,-1
 79 633 l 1,90,-1
 71 755 l 1,91,-1
 71 1053 l 2,92,93
 71 1179 71 1179 119 1312 c 1,94,95
 144 1373 144 1373 181 1429 c 1,96,-1
 221 1486 l 1,97,-1
 270 1540 l 1,98,99
 373 1646 373 1646 484 1699 c 128,-1,100
 595 1752 595 1752 720 1752 c 2,101,-1
 975 1752 l 2,102,103
 1127 1752 1127 1752 1239 1705 c 1,104,105
 1360 1662 1360 1662 1451.5 1577 c 128,-1,106
 1543 1492 1543 1492 1599 1384 c 1,107,108
 1620 1335 1620 1335 1635 1279 c 128,-1,109
 1650 1223 1650 1223 1650 1170 c 2,110,-1
 1650 244 l 1,111,-1
 1486 244 l 1,112,-1
 1486 1170 l 2,113,114
 1486 1270 1486 1270 1447 1347 c 1,115,116
 1410 1429 1410 1429 1330.5 1494.5 c 128,-1,117
 1251 1560 1251 1560 1140.5 1599 c 128,-1,118
 1030 1638 1030 1638 907 1638 c 2,119,-1
 766 1638 l 2,120,121
 667 1638 667 1638 573 1591 c 128,-1,122
 479 1544 479 1544 387 1441 c 1,123,124
 320 1356 320 1356 274 1247 c 1,125,-1
 244 1141 l 1,126,-1
 233 1070 l 1,127,-1
 233 755 l 1,128,-1
 240 651 l 1,129,-1
 258 534 l 1,130,-1
 270 476 l 1,131,-1
 285 428 l 1,132,-1
 304 379 l 1,133,-1
 326 336 l 1,134,-1
 395 375 l 1,135,-1
 491 413 l 1,136,-1
 591 442 l 1,137,-1
 677 453 l 1,138,-1
 884 453 l 1,139,-1
 921 449 l 1,140,-1
 965 438 l 1,141,-1
 987 430 l 1,142,-1
 1010 422 l 1,143,-1
 1047 404 l 1,144,-1
 1051 418 l 1,145,-1
 1055 438 l 1,146,-1
 1056 462 l 1,147,-1
 1062 493 l 1,148,-1
 1066 549 l 1,149,-1
 1067 591 l 1,150,-1
 1067 683 l 2,151,152
 1067 790 1067 790 1051 841 c 1,153,154
 1039 915 1039 915 1010 964 c 1,155,156
 983 1018 983 1018 941 1057 c 1,157,158
 907 1083 907 1083 858 1102 c 1,159,-1
 890 1063 l 1,0,-1
224 114 m 1,160,-1
 197 73 l 1,161,-1
 175 27 l 1,162,-1
 167 -8 l 1,163,-1
 172 -80 l 1,164,165
 179 -119 179 -119 189 -134 c 2,166,-1
 209 -163 l 1,167,-1
 233 -172 l 1,168,-1
 326 -175 l 2,169,170
 340 -175 340 -175 358 -164 c 1,171,-1
 405 -144 l 1,172,-1
 458 -115 l 1,173,-1
 489 -106 l 1,174,-1
 426 -46 l 1,175,-1
 369 11 l 1,176,-1
 305 83 l 1,177,-1
 256 150 l 1,178,-1
 224 114 l 1,160,-1
1062 160 m 1,179,-1
 957 42 l 1,180,-1
 849 -60 l 1,181,-1
 818 -88 l 1,182,-1
 744 -148 l 1,183,-1
 774 -156 l 1,184,-1
 822 -164 l 1,185,-1
 872 -171 l 1,186,-1
 907 -172 l 1,187,-1
 999 -175 l 1,188,189
 1039 -175 1039 -175 1066 -164 c 1,190,191
 1098 -159 1098 -159 1110 -148 c 1,192,-1
 1150 -128 l 2,193,194
 1185 -110 1185 -110 1208 -75 c 1,195,-1
 1224 -44 l 1,196,-1
 1231 -8 l 1,197,-1
 1231 81 l 2,198,199
 1231 107 1231 107 1223 134 c 1,200,-1
 1203 187 l 1,201,-1
 1171 234 l 1,202,-1
 1139 264 l 1,203,-1
 1104 214 l 1,204,-1
 1062 160 l 1,179,-1
973 313 m 1,205,-1
 921 324 l 1,206,-1
 865 332 l 1,207,-1
 837 336 l 1,208,-1
 648 336 l 1,209,-1
 606 328 l 1,210,-1
 528 309 l 1,211,-1
 450 279 l 1,212,-1
 373 244 l 1,213,-1
 426 152 l 1,214,-1
 489 62 l 1,215,-1
 556 -18 l 1,216,217
 591 -56 591 -56 628 -80 c 1,218,219
 685 -48 685 -48 728 -3 c 1,220,221
 759 19 759 19 837 97 c 1,222,-1
 884 150 l 1,223,-1
 930 207 l 1,224,225
 961 242 961 242 999 312 c 1,226,-1
 973 313 l 1,205,-1
587 747 m 1,227,-1
 610 724 l 1,228,-1
 643 710 l 1,229,-1
 677 706 l 1,230,231
 704 706 704 706 709 710 c 1,232,-1
 740 722 l 1,233,234
 755 732 755 732 759 744 c 1,235,-1
 766 775 l 1,236,-1
 766 1010 l 2,237,238
 766 1029 766 1029 759 1045 c 1,239,-1
 740 1071 l 1,240,-1
 709 1087 l 1,241,-1
 675 1094 l 1,242,-1
 639 1087 l 1,243,-1
 608 1071 l 2,244,245
 598 1065 598 1065 590 1049 c 1,246,-1
 582 1010 l 1,247,-1
 582 775 l 1,248,-1
 587 747 l 1,227,-1
EndSplineSet
EndChar

StartChar: Taml_II
Encoding: 2952 2952 103
Width: 1272
GlyphClass: 2
Flags: W
LayerCount: 2
Fore
SplineSet
606 858 m 1,0,-1
 162 858 l 1,1,-1
 162 0 l 1,2,-1
 0 0 l 1,3,-1
 0 975 l 1,4,-1
 1042 975 l 1,5,-1
 1042 858 l 1,6,-1
 766 858 l 1,7,-1
 766 0 l 1,8,-1
 606 0 l 1,9,-1
 606 858 l 1,0,-1
326 355 m 1,10,11
 314 359 314 359 299 378 c 1,12,-1
 279 417 l 1,13,-1
 275 462 l 1,14,-1
 280 515 l 1,15,16
 287 542 287 542 303 560 c 1,17,18
 316 579 316 579 334 591 c 128,-1,19
 352 603 352 603 381 603 c 0,20,21
 401 603 401 603 416.5 595 c 128,-1,22
 432 587 432 587 450.5 567.5 c 128,-1,23
 469 548 469 548 477 519 c 1,24,-1
 485 464 l 1,25,-1
 479 415 l 1,26,27
 473 394 473 394 457 377 c 0,28,29
 428 347 428 347 369 347 c 0,30,31
 343 347 343 347 326 355 c 1,10,11
1084 415 m 1,32,-1
 1065 382 l 1,33,34
 1060 370 1060 370 1026 355 c 1,35,-1
 976 347 l 1,36,-1
 932 354 l 1,37,38
 916 359 916 359 902.5 379 c 128,-1,39
 889 399 889 399 884 431 c 1,40,-1
 880 487 l 1,41,-1
 885 531 l 1,42,43
 888 542 888 542 911 565 c 1,44,-1
 943 587 l 1,45,-1
 981 595 l 1,46,47
 1004 595 1004 595 1022 584 c 1,48,49
 1038 580 1038 580 1053 565 c 128,-1,50
 1068 550 1068 550 1084 518 c 1,51,-1
 1092 464 l 1,52,53
 1092 438 1092 438 1084 415 c 1,32,-1
EndSplineSet
EndChar

StartChar: TamlU
Encoding: 2953 2953 104
Width: 1734
GlyphClass: 2
Flags: W
LayerCount: 2
Fore
SplineSet
71 0 m 1,0,-1
 44 4 l 1,1,-1
 22 20 l 1,2,-1
 4 41 l 1,3,-1
 0 68 l 1,4,-1
 0 135 l 2,5,6
 0 174 0 174 11 191.5 c 128,-1,7
 22 209 22 209 47 209 c 0,8,9
 337 209 337 209 493 295.5 c 128,-1,10
 649 382 649 382 649 553 c 2,11,-1
 649 645 l 2,12,13
 649 687 649 687 627 724 c 1,14,15
 608 762 608 762 563.5 791.5 c 128,-1,16
 519 821 519 821 476 839.5 c 128,-1,17
 433 858 433 858 394 858 c 1,18,19
 418 853 418 853 439 830 c 1,20,21
 462 812 462 812 478 782 c 2,22,-1
 492 754 l 1,23,-1
 502 728 l 1,24,-1
 508 698 l 1,25,-1
 511 671 l 1,26,-1
 511 603 l 2,27,28
 511 550 511 550 488 507 c 1,29,30
 470 462 470 462 429 434 c 1,31,32
 417 421 417 421 390 409 c 2,33,-1
 337 386 l 1,34,-1
 284 377 l 1,35,-1
 234 373 l 1,36,-1
 188 374 l 2,37,38
 163 374 163 374 135.5 384 c 128,-1,39
 108 394 108 394 69 421 c 1,40,41
 48 438 48 438 16 488 c 1,42,43
 0 527 0 527 0 579 c 2,44,-1
 0 671 l 2,45,46
 0 732 0 732 25.5 785.5 c 128,-1,47
 51 839 51 839 105 880.5 c 128,-1,48
 159 922 159 922 237 953 c 1,49,-1
 313 968 l 1,50,-1
 394 975 l 1,51,-1
 486 975 l 2,52,53
 542 975 542 975 612 950 c 0,54,55
 668 931 668 931 714 885 c 0,56,57
 730 869 730 869 748 843 c 128,-1,58
 766 817 766 817 786 781 c 1,59,60
 813 713 813 713 813 645 c 2,61,-1
 813 531 l 2,62,63
 813 443 813 443 775 372.5 c 128,-1,64
 737 302 737 302 641 237 c 1,65,66
 585 201 585 201 492 169 c 1,67,-1
 394 141 l 1,68,-1
 277 117 l 1,69,-1
 1554 117 l 1,70,-1
 1554 0 l 1,71,-1
 71 0 l 1,0,-1
290 491 m 2,72,-1
 322 508 l 1,73,-1
 343 530 l 1,74,-1
 351 553 l 1,75,-1
 351 694 l 2,76,77
 351 706 351 706 343 724 c 1,78,-1
 322 746 l 1,79,-1
 292 760 l 1,80,-1
 257 764 l 1,81,82
 225 764 225 764 218 760 c 1,83,-1
 189 748 l 2,84,85
 177 742 177 742 169 725 c 1,86,-1
 163 694 l 1,87,-1
 163 553 l 2,88,89
 163 540 163 540 172 530 c 2,90,-1
 192 507 l 1,91,-1
 218 491 l 1,92,-1
 256 487 l 1,93,94
 282 487 282 487 290 491 c 2,72,-1
EndSplineSet
EndChar

StartChar: TamlUU
Encoding: 2954 2954 105
Width: 2453
GlyphClass: 2
Flags: W
LayerCount: 2
Fore
SplineSet
2273 0 m 1,0,-1
 67 0 l 1,1,-1
 40 4 l 1,2,-1
 20 20 l 1,3,-1
 4 41 l 1,4,-1
 0 68 l 1,5,-1
 0 135 l 2,6,7
 0 174 0 174 11.5 191.5 c 128,-1,8
 23 209 23 209 43 209 c 0,9,10
 204 209 204 209 314 229 c 1,11,12
 367 240 367 240 414.5 256 c 128,-1,13
 462 272 462 272 494 294 c 1,14,15
 572 337 572 337 611 403 c 1,16,17
 649 476 649 476 649 553 c 2,18,-1
 649 645 l 2,19,20
 649 687 649 687 626.5 724.5 c 128,-1,21
 604 762 604 762 561.5 791.5 c 128,-1,22
 519 821 519 821 475.5 839.5 c 128,-1,23
 432 858 432 858 394 858 c 1,24,25
 419 853 419 853 439 830 c 1,26,27
 462 809 462 809 476 782 c 1,28,-1
 500 725 l 1,29,-1
 511 671 l 1,30,-1
 511 603 l 2,31,32
 511 550 511 550 488 507 c 1,33,34
 470 462 470 462 428 434 c 1,35,36
 416 421 416 421 390 409 c 2,37,-1
 337 386 l 1,38,-1
 283 377 l 1,39,-1
 234 373 l 1,40,-1
 188 374 l 2,41,42
 164 374 164 374 136 384 c 128,-1,43
 108 394 108 394 69 421 c 1,44,45
 49 438 49 438 16 488 c 1,46,47
 0 527 0 527 0 579 c 2,48,-1
 0 671 l 2,49,50
 0 733 0 733 26.5 786 c 128,-1,51
 53 839 53 839 107 880.5 c 128,-1,52
 161 922 161 922 238 953 c 1,53,-1
 310 968 l 1,54,-1
 394 975 l 1,55,-1
 486 975 l 2,56,57
 543 975 543 975 611 950 c 1,58,59
 672 931 672 931 714 883 c 1,60,61
 758 843 758 843 782 778 c 1,62,63
 789 762 789 762 799 725.5 c 128,-1,64
 809 689 809 689 809 645 c 2,65,-1
 809 531 l 2,66,67
 809 450 809 450 766 363 c 1,68,69
 722 301 722 301 639 237 c 1,70,71
 584 201 584 201 492 169 c 1,72,-1
 394 141 l 1,73,-1
 278 117 l 1,74,-1
 2273 117 l 1,75,-1
 2273 0 l 1,0,-1
222 760 m 1,76,-1
 190 742 l 1,77,-1
 168 717 l 1,78,-1
 160 694 l 1,79,-1
 160 553 l 1,80,-1
 173 527 l 1,81,-1
 198 504 l 1,82,-1
 230 491 l 1,83,-1
 268 487 l 1,84,85
 294 487 294 487 298 491 c 1,86,-1
 322 503 l 1,87,-1
 339 523 l 1,88,-1
 345 553 l 1,89,-1
 345 694 l 1,90,-1
 343 706 l 1,91,-1
 339 720 l 1,92,-1
 329 729 l 1,93,-1
 318 742 l 2,94,95
 306 756 306 756 290 760 c 1,96,-1
 256 766 l 1,97,-1
 222 760 l 1,76,-1
2043 256 m 1,98,-1
 1902 256 l 1,99,-1
 1902 883 l 1,100,-1
 1810 883 l 2,101,102
 1784 883 1784 883 1766 874 c 2,103,-1
 1728 854 l 1,104,105
 1720 853 1720 853 1700 821 c 1,106,-1
 1692 786 l 1,107,-1
 1692 256 l 1,108,-1
 1555 256 l 1,109,-1
 1555 742 l 2,110,111
 1555 769 1555 769 1546.5 787 c 128,-1,112
 1538 805 1538 805 1511 835 c 1,113,114
 1499 857 1499 857 1476 866 c 1,115,116
 1468 873 1468 873 1437 883 c 1,117,-1
 1320 883 l 1,118,-1
 1278 881 l 2,119,120
 1265 881 1265 881 1260 877 c 1,121,-1
 1236 865 l 1,122,-1
 1202 846 l 2,123,124
 1197 843 1197 843 1170.5 816.5 c 128,-1,125
 1144 790 1144 790 1125 754 c 1,126,-1
 1111 694 l 1,127,-1
 1159 717 l 1,128,-1
 1217 725 l 1,129,130
 1270 725 1270 725 1296 717 c 128,-1,131
 1322 709 1322 709 1332 703.5 c 128,-1,132
 1342 698 1342 698 1357 687 c 0,133,134
 1379 672 1379 672 1397 642.5 c 128,-1,135
 1415 613 1415 613 1415 579 c 2,136,-1
 1415 415 l 2,137,138
 1415 377 1415 377 1399 354 c 1,139,140
 1387 329 1387 329 1347 302 c 1,141,142
 1317 278 1317 278 1278 266 c 1,143,-1
 1242 258 l 1,144,-1
 1202 256 l 1,145,146
 1155 256 1155 256 1128 266 c 2,147,-1
 1083 282 l 1,148,-1
 1046 309 l 1,149,150
 1010 333 1010 333 988 359 c 0,151,152
 984 363 984 363 982 372 c 128,-1,153
 980 381 980 381 972 415 c 1,154,-1
 972 645 l 2,155,156
 972 690 972 690 975 711.5 c 128,-1,157
 978 733 978 733 995 770 c 0,158,159
 1019 821 1019 821 1071 878 c 1,160,161
 1113 922 1113 922 1179 949 c 1,162,-1
 1233 964 l 1,163,164
 1270 972 1270 972 1289.5 973.5 c 128,-1,165
 1309 975 1309 975 1320 975 c 2,166,-1
 1415 975 l 2,167,168
 1472 975 1472 975 1520 958 c 128,-1,169
 1568 941 1568 941 1599 901 c 1,170,171
 1612 919 1612 919 1632 934 c 1,172,-1
 1675 956 l 1,173,-1
 1727 971 l 1,174,-1
 1788 975 l 1,175,-1
 2273 975 l 1,176,-1
 2273 883 l 1,177,-1
 2043 883 l 1,178,-1
 2043 256 l 1,98,-1
1111 390 m 1,179,-1
 1117 363 l 1,180,-1
 1136 342 l 1,181,-1
 1163 329 l 1,182,-1
 1197 325 l 1,183,-1
 1228 327 l 1,184,-1
 1254 339 l 1,185,-1
 1270 359 l 1,186,-1
 1277 390 l 1,187,-1
 1277 531 l 1,188,-1
 1270 560 l 1,189,-1
 1252 580 l 1,190,-1
 1225 595 l 2,191,192
 1213 601 1213 601 1197 601 c 0,193,194
 1171 601 1171 601 1163 597 c 2,195,-1
 1136 583 l 2,196,197
 1124 576 1124 576 1117 561 c 1,198,-1
 1111 531 l 1,199,-1
 1111 390 l 1,179,-1
EndSplineSet
EndChar

StartChar: TamlE
Encoding: 2958 2958 106
Width: 1407
GlyphClass: 2
Flags: W
LayerCount: 2
Fore
SplineSet
787 0 m 1,0,-1
 787 858 l 1,1,-1
 461 858 l 2,2,3
 417 858 417 858 388.5 854 c 128,-1,4
 360 850 360 850 332 835 c 1,5,6
 277 817 277 817 233 766 c 1,7,8
 195 729 195 729 176.5 687 c 128,-1,9
 158 645 158 645 158 603 c 1,10,11
 183 628 183 628 214 640 c 128,-1,12
 245 652 245 652 283 652 c 0,13,14
 334 652 334 652 366 636 c 1,15,16
 410 619 410 619 440 588 c 1,17,18
 471 564 471 564 491 520 c 128,-1,19
 511 476 511 476 511 439 c 2,20,-1
 511 232 l 2,21,22
 511 190 511 190 491 154.5 c 128,-1,23
 471 119 471 119 427 73 c 1,24,25
 383 37 383 37 340.5 18.5 c 128,-1,26
 298 0 298 0 255 0 c 0,27,28
 198 0 198 0 157 15 c 1,29,30
 112 27 112 27 74 61 c 0,31,32
 40 91 40 91 20 135.5 c 128,-1,33
 0 180 0 180 0 232 c 2,34,-1
 0 531 l 1,35,-1
 5 617 l 1,36,-1
 13 656 l 1,37,-1
 28 698 l 1,38,39
 58 774 58 774 113.5 840.5 c 128,-1,40
 169 907 169 907 250.5 941 c 128,-1,41
 332 975 332 975 414 975 c 2,42,-1
 1227 975 l 1,43,-1
 1227 858 l 1,44,-1
 947 858 l 1,45,-1
 947 0 l 1,46,-1
 787 0 l 1,0,-1
165 169 m 1,47,-1
 183 141 l 1,48,49
 195 129 195 129 215 123 c 1,50,-1
 253 119 l 1,51,52
 279 119 279 119 287 123 c 2,53,-1
 318 141 l 1,54,-1
 339 169 l 1,55,-1
 347 209 l 1,56,-1
 347 390 l 2,57,58
 347 413 347 413 339 427 c 1,59,-1
 318 454 l 1,60,-1
 287 474 l 1,61,-1
 253 480 l 1,62,-1
 214 474 l 1,63,-1
 185 458 l 1,64,-1
 165 430 l 1,65,66
 158 413 158 413 158 390 c 2,67,-1
 158 209 l 1,68,-1
 165 169 l 1,47,-1
EndSplineSet
EndChar

StartChar: TamlEE
Encoding: 2959 2959 107
Width: 1412
GlyphClass: 2
Flags: W
LayerCount: 2
Fore
SplineSet
696 -299 m 1,0,-1
 607 -210 l 1,1,-1
 788 3 l 1,2,-1
 788 860 l 1,3,-1
 466 860 l 2,4,5
 414 860 414 860 392 857.5 c 128,-1,6
 370 855 370 855 334 838 c 1,7,8
 281 819 281 819 237 769 c 1,9,10
 200 731 200 731 181 689.5 c 128,-1,11
 162 648 162 648 162 605 c 1,12,13
 188 630 188 630 218.5 642 c 128,-1,14
 249 654 249 654 290 654 c 1,15,-1
 337 652 l 2,16,17
 351 652 351 652 374 638 c 1,18,19
 413 621 413 621 440 590 c 1,20,21
 471 564 471 564 491 523.5 c 128,-1,22
 511 483 511 483 511 441 c 2,23,-1
 511 234 l 2,24,25
 511 193 511 193 491 157 c 128,-1,26
 471 121 471 121 427 76 c 1,27,28
 383 40 383 40 340.5 21.5 c 128,-1,29
 298 3 298 3 256 3 c 0,30,31
 197 3 197 3 157 17 c 1,32,33
 112 29 112 29 75 64 c 1,34,35
 40 93 40 93 20 137.5 c 128,-1,36
 0 182 0 182 0 234 c 2,37,-1
 0 533 l 1,38,-1
 6 620 l 1,39,-1
 14 658 l 1,40,-1
 28 701 l 1,41,42
 59 781 59 781 118 846.5 c 128,-1,43
 177 912 177 912 256 944 c 0,44,45
 298 960 298 960 336 968.5 c 128,-1,46
 374 977 374 977 418 977 c 2,47,-1
 1232 977 l 1,48,-1
 1232 860 l 1,49,-1
 951 860 l 1,50,-1
 951 3 l 1,51,-1
 696 -299 l 1,0,-1
162 211 m 1,52,-1
 169 171 l 1,53,-1
 189 143 l 1,54,55
 204 132 204 132 218 125 c 1,56,-1
 256 121 l 1,57,58
 281 121 281 121 290 125 c 2,59,-1
 322 143 l 1,60,-1
 343 171 l 1,61,-1
 351 211 l 1,62,-1
 351 392 l 2,63,64
 351 415 351 415 343 429 c 1,65,-1
 322 456 l 1,66,-1
 291 476 l 1,67,-1
 256 483 l 1,68,-1
 220 476 l 1,69,-1
 189 459 l 1,70,-1
 169 429 l 2,71,72
 162 417 162 417 162 392 c 2,73,-1
 162 211 l 1,52,-1
EndSplineSet
EndChar

StartChar: TamlAI
Encoding: 2960 2960 108
Width: 1500
GlyphClass: 2
Flags: W
LayerCount: 2
Fore
SplineSet
809 244 m 1,0,-1
 649 244 l 1,1,-1
 649 591 l 1,2,-1
 647 651 l 2,3,4
 647 671 647 671 633 701 c 1,5,6
 616 752 616 752 582 788 c 1,7,8
 564 812 564 812 528 826 c 1,9,-1
 462 846 l 1,10,-1
 394 846 l 2,11,12
 367 846 367 846 347 836 c 1,13,14
 329 830 329 830 310 812 c 1,15,-1
 286 781 l 1,16,-1
 277 755 l 1,17,18
 341 755 341 755 371 739 c 1,19,20
 413 725 413 725 451 689 c 1,21,22
 480 659 480 659 494 620 c 2,23,-1
 507 583 l 1,24,-1
 511 542 l 1,25,-1
 511 475 l 2,26,27
 511 435 511 435 492.5 388.5 c 128,-1,28
 474 342 474 342 435 305 c 1,29,-1
 353 258 l 1,30,-1
 300 248 l 1,31,-1
 256 244 l 1,32,33
 225 244 225 244 165 262 c 1,34,35
 143 273 143 273 81 317 c 1,36,37
 44 354 44 354 20 403 c 1,38,39
 0 470 0 470 0 499 c 2,40,-1
 0 591 l 2,41,42
 0 667 0 667 21.5 719 c 128,-1,43
 43 771 43 771 94 836.5 c 128,-1,44
 145 902 145 902 213.5 932.5 c 128,-1,45
 282 963 282 963 370 963 c 2,46,-1
 437 963 l 2,47,48
 467 963 467 963 510.5 952 c 128,-1,49
 554 941 554 941 599 914 c 1,50,-1
 664 862 l 2,51,52
 691 841 691 841 717 797 c 1,53,54
 736 834 736 834 764 862 c 2,55,-1
 790 889 l 1,56,-1
 824 912 l 2,57,58
 856 934 856 934 893 949 c 1,59,-1
 973 963 l 1,60,-1
 1043 963 l 2,61,62
 1115 963 1115 963 1168 937 c 1,63,64
 1225 912 1225 912 1260 861 c 1,65,66
 1289 816 1289 816 1304 759 c 1,67,-1
 1316 701 l 1,68,-1
 1320 634 l 1,69,-1
 1320 378 l 2,70,71
 1320 297 1320 297 1290 233 c 1,72,73
 1266 172 1266 172 1211.5 119 c 128,-1,74
 1157 66 1157 66 1076 35 c 1,75,76
 1058 30 1058 30 1013.5 19 c 128,-1,77
 969 8 969 8 925 8 c 2,78,-1
 437 8 l 1,79,-1
 391 7 l 2,80,81
 371 7 371 7 337 -8 c 1,82,83
 300 -18 300 -18 256 -46 c 1,84,85
 210 -79 210 -79 181 -118 c 1,86,87
 159 -156 159 -156 159 -198 c 2,88,-1
 159 -291 l 2,89,90
 159 -324 159 -324 176 -347 c 1,91,92
 181 -363 181 -363 196 -377 c 1,93,-1
 229 -411 l 1,94,95
 265 -445 265 -445 300 -461 c 1,96,-1
 333 -469 l 1,97,-1
 370 -477 l 1,98,-1
 437 -480 l 1,99,100
 475 -480 475 -480 512 -457 c 1,101,102
 551 -438 551 -438 580 -400 c 1,103,104
 604 -371 604 -371 633 -321 c 1,105,-1
 645 -285 l 1,106,-1
 649 -244 l 1,107,-1
 649 -133 l 1,108,-1
 809 -133 l 1,109,-1
 809 -313 l 2,110,111
 809 -332 809 -332 821 -363 c 1,112,-1
 836 -392 l 1,113,-1
 856 -418 l 1,114,-1
 881 -441 l 1,115,-1
 907 -458 l 1,116,-1
 973 -477 l 1,117,-1
 996 -480 l 1,118,119
 1035 -480 1035 -480 1058 -462 c 1,120,121
 1083 -450 1083 -450 1107.5 -425.5 c 128,-1,122
 1132 -401 1132 -401 1142.5 -379 c 128,-1,123
 1153 -357 1153 -357 1160 -312 c 1,124,-1
 1160 -222 l 1,125,-1
 1156 -187 l 1,126,127
 1152 -168 1152 -168 1145 -160 c 1,128,-1
 1132 -130 l 1,129,-1
 1114 -106 l 1,130,-1
 1203 -12 l 1,131,132
 1224 -18 1224 -18 1240 -41 c 1,133,-1
 1281 -93 l 1,134,-1
 1293 -114 l 1,135,-1
 1309 -156 l 1,136,-1
 1316 -183 l 1,137,-1
 1320 -222 l 1,138,-1
 1320 -339 l 2,139,140
 1320 -396 1320 -396 1298 -438 c 1,141,142
 1282 -481 1282 -481 1246.5 -513.5 c 128,-1,143
 1211 -546 1211 -546 1153 -571 c 1,144,145
 1087 -591 1087 -591 1043 -591 c 1,146,-1
 947 -594 l 2,147,148
 917 -594 917 -594 881 -582 c 1,149,150
 850 -575 850 -575 817 -555 c 1,151,-1
 760 -512 l 1,152,153
 733 -485 733 -485 717 -453 c 1,154,155
 699 -484 699 -484 660 -510 c 1,156,157
 645 -522 645 -522 629 -533 c 1,158,159
 625 -537 625 -537 595.5 -553 c 128,-1,160
 566 -569 566 -569 508 -582 c 1,161,-1
 445 -590 l 1,162,-1
 414 -591 l 1,163,-1
 322 -594 l 1,164,165
 245 -594 245 -594 200 -571 c 1,166,167
 173 -565 173 -565 143 -546 c 1,168,-1
 96 -512 l 1,169,170
 44 -476 44 -476 22 -423.5 c 128,-1,171
 0 -371 0 -371 0 -312 c 2,172,-1
 0 -199 l 2,173,174
 0 -133 0 -133 36 -66 c 1,175,176
 67 -22 67 -22 147 35 c 1,177,-1
 218 70 l 1,178,-1
 294 99 l 1,179,180
 334 111 334 111 378 117 c 1,181,-1
 462 123 l 1,182,-1
 905 123 l 2,183,184
 954 123 954 123 996.5 143 c 128,-1,185
 1039 163 1039 163 1078.5 196 c 128,-1,186
 1118 229 1118 229 1139 285.5 c 128,-1,187
 1160 342 1160 342 1160 378 c 2,188,-1
 1160 616 l 2,189,190
 1160 663 1160 663 1146.5 703.5 c 128,-1,191
 1133 744 1133 744 1111 775 c 1,192,193
 1092 805 1092 805 1070 822 c 1,194,195
 1052 841 1052 841 1022 846 c 1,196,-1
 973 846 l 2,197,198
 943 846 943 846 920.5 836 c 128,-1,199
 898 826 898 826 863 792 c 1,200,201
 845 771 845 771 824 709 c 1,202,-1
 813 663 l 1,203,-1
 809 616 l 1,204,-1
 809 244 l 1,0,-1
347 567 m 2,205,206
 347 583 347 583 340 594.5 c 128,-1,207
 333 606 333 606 318 614 c 1,208,-1
 288 626 l 1,209,-1
 253 630 l 1,210,211
 220 630 220 630 214 626 c 1,212,-1
 185 614 l 1,213,-1
 165 595 l 1,214,215
 159 583 159 583 159 567 c 2,216,-1
 159 427 l 1,217,-1
 173 407 l 1,218,-1
 202 385 l 1,219,-1
 233 366 l 1,220,-1
 256 361 l 1,221,-1
 276 366 l 1,222,-1
 309 385 l 1,223,-1
 337 407 l 1,224,-1
 347 427 l 1,225,-1
 347 567 l 2,205,206
EndSplineSet
EndChar

StartChar: TamlO
Encoding: 2962 2962 109
Width: 1500
GlyphClass: 2
Flags: W
LayerCount: 2
Fore
SplineSet
206 26 m 1,0,-1
 370 -66 l 1,1,-1
 366 -100 l 1,2,3
 366 -123 366 -123 378 -148.5 c 128,-1,4
 390 -174 390 -174 406.5 -186.5 c 128,-1,5
 423 -199 423 -199 459 -215 c 1,6,-1
 496 -225 l 1,7,-1
 532 -227 l 1,8,-1
 578 -229 l 1,9,10
 631 -229 631 -229 652 -219 c 1,11,12
 684 -213 684 -213 703 -196 c 1,13,14
 726 -184 726 -184 741 -152 c 1,15,16
 757 -127 757 -127 766 -88 c 1,17,18
 766 -55 766 -55 770 -51 c 1,19,-1
 776 -25 l 1,20,21
 782 7 782 7 805 30 c 1,22,23
 817 46 817 46 858 71 c 1,24,25
 837 78 837 78 780 108 c 0,26,27
 760 118 760 118 741 136 c 1,28,-1
 704 174 l 1,29,-1
 673 213 l 1,30,-1
 645 265 l 1,31,-1
 631 315 l 1,32,-1
 625 373 l 1,33,-1
 625 421 l 2,34,35
 625 457 625 457 642.5 506 c 128,-1,36
 660 555 660 555 698 603 c 128,-1,37
 736 651 736 651 770 678 c 0,38,39
 784 688 784 688 833 700 c 1,40,-1
 947 700 l 1,41,-1
 1004 698 l 1,42,-1
 1034 696 l 1,43,-1
 1039 690 l 1,44,-1
 1043 676 l 1,45,-1
 1043 654 l 1,46,47
 1027 654 1027 654 1011 639 c 1,48,-1
 978 602 l 1,49,-1
 955 555 l 1,50,-1
 947 513 l 1,51,-1
 947 465 l 1,52,-1
 955 433 l 1,53,-1
 986 392 l 1,54,-1
 1019 358 l 1,55,-1
 1043 349 l 1,56,-1
 1064 349 l 1,57,58
 1084 354 1084 354 1092 358 c 1,59,60
 1111 372 1111 372 1132 400 c 1,61,-1
 1152 460 l 1,62,-1
 1160 537 l 1,63,-1
 1160 605 l 2,64,65
 1160 667 1160 667 1152.5 708 c 128,-1,66
 1145 749 1145 749 1119 795 c 1,67,68
 1092 857 1092 857 1003 940 c 1,69,70
 934 993 934 993 845 1020 c 128,-1,71
 756 1047 756 1047 669 1047 c 2,72,-1
 508 1047 l 2,73,74
 482 1047 482 1047 466 1043 c 1,75,76
 433 1043 433 1043 375 1021 c 1,77,78
 321 1002 321 1002 261 956 c 1,79,80
 222 929 222 929 185 876 c 1,81,-1
 169 839 l 1,82,-1
 159 792 l 1,83,84
 184 817 184 817 214.5 829 c 128,-1,85
 245 841 245 841 284 841 c 0,86,87
 334 841 334 841 366 825 c 1,88,89
 410 808 410 808 441 777 c 1,90,91
 471 753 471 753 491 709.5 c 128,-1,92
 511 666 511 666 511 628 c 2,93,-1
 511 421 l 2,94,95
 511 368 511 368 491 326.5 c 128,-1,96
 471 285 471 285 434 254 c 128,-1,97
 397 223 397 223 349 208 c 1,98,-1
 304 198 l 1,99,-1
 253 194 l 1,100,101
 212 194 212 194 168 206.5 c 128,-1,102
 124 219 124 219 79 249 c 1,103,-1
 48 280 l 1,104,-1
 20 323 l 1,105,106
 0 384 0 384 0 421 c 2,107,-1
 0 743 l 2,108,109
 0 808 0 808 34.5 874.5 c 128,-1,110
 69 941 69 941 151 1013.5 c 128,-1,111
 233 1086 233 1086 335 1125 c 128,-1,112
 437 1164 437 1164 532 1164 c 2,113,-1
 778 1164 l 1,114,-1
 837 1158 l 1,115,-1
 897 1146 l 1,116,117
 905 1143 905 1143 923.5 1137 c 128,-1,118
 942 1131 942 1131 958 1123 c 1,119,120
 1068 1086 1068 1086 1156 1005 c 1,121,122
 1237 929 1237 929 1278.5 841 c 128,-1,123
 1320 753 1320 753 1320 654 c 2,124,-1
 1320 487 l 2,125,126
 1320 442 1320 442 1300.5 394 c 128,-1,127
 1281 346 1281 346 1248 311 c 1,128,-1
 1215 280 l 1,129,-1
 1175 251 l 1,130,131
 1137 232 1137 232 1088 232 c 2,132,-1
 1022 232 l 1,133,-1
 981 235 l 1,134,-1
 946 249 l 1,135,136
 913 267 913 267 885 312 c 1,137,-1
 841 406 l 1,138,139
 829 453 829 453 829 505 c 2,140,-1
 829 537 l 1,141,-1
 833 562 l 1,142,-1
 805 525 l 1,143,-1
 778 482 l 1,144,-1
 749 422 l 1,145,-1
 741 373 l 1,146,147
 741 320 741 320 758.5 280 c 128,-1,148
 776 240 776 240 821 196 c 1,149,150
 863 159 863 159 907 140 c 1,151,-1
 946 126 l 2,152,153
 965 120 965 120 996 120 c 2,154,-1
 1252 118 l 1,155,-1
 1252 2 l 1,156,-1
 1064 2 l 2,157,158
 1038 2 1038 2 1012 -6 c 1,159,-1
 959 -39 l 1,160,-1
 919 -84 l 1,161,-1
 905 -135 l 1,162,-1
 905 -187 l 2,163,164
 905 -213 905 -213 886 -242.5 c 128,-1,165
 867 -272 867 -272 832 -293.5 c 128,-1,166
 797 -315 797 -315 744 -329 c 1,167,-1
 688 -340 l 1,168,-1
 625 -344 l 1,169,-1
 511 -345 l 1,170,-1
 458 -344 l 2,171,172
 441 -344 441 -344 410 -329 c 1,173,174
 371 -319 371 -319 317.5 -287.5 c 128,-1,175
 264 -256 264 -256 233 -207 c 1,176,-1
 216 -168 l 1,177,178
 210 -150 210 -150 206 -111 c 1,179,-1
 206 26 l 1,0,-1
159 398 m 1,180,-1
 165 358 l 1,181,-1
 184 331 l 1,182,183
 196 319 196 319 216 312 c 1,184,-1
 253 308 l 1,185,186
 280 308 280 308 288 312 c 2,187,-1
 318 331 l 1,188,-1
 339 358 l 1,189,-1
 347 398 l 1,190,-1
 347 579 l 2,191,192
 347 602 347 602 339 616 c 1,193,-1
 318 646 l 1,194,-1
 288 666 l 1,195,-1
 252 671 l 1,196,-1
 214 666 l 1,197,-1
 185 647 l 1,198,-1
 165 619 l 1,199,200
 159 602 159 602 159 579 c 2,201,-1
 159 398 l 1,180,-1
EndSplineSet
EndChar

StartChar: TamlOO
Encoding: 2963 2963 110
Width: 1500
GlyphClass: 2
Flags: W
LayerCount: 2
Fore
SplineSet
532 -336 m 2,0,1
 532 -370 532 -370 504 -398 c 1,2,3
 484 -424 484 -424 414 -451 c 1,4,-1
 466 -457 l 1,5,-1
 508 -459 l 1,6,7
 568 -459 568 -459 595 -451 c 1,8,9
 612 -449 612 -449 632.5 -443 c 128,-1,10
 653 -437 653 -437 678 -426.5 c 128,-1,11
 703 -416 703 -416 727 -388 c 1,12,13
 752 -366 752 -366 766 -312 c 1,14,15
 766 -279 766 -279 770 -275 c 1,16,-1
 776 -249 l 1,17,18
 782 -217 782 -217 805 -194 c 1,19,20
 817 -178 817 -178 858 -153 c 1,21,22
 837 -146 837 -146 780 -116 c 0,23,24
 760 -106 760 -106 741 -88 c 1,25,-1
 704 -50 l 1,26,-1
 673 -11 l 1,27,-1
 645 41 l 1,28,-1
 631 91 l 1,29,-1
 625 149 l 1,30,-1
 625 197 l 2,31,32
 625 233 625 233 642.5 282 c 128,-1,33
 660 331 660 331 698 379 c 128,-1,34
 736 427 736 427 770 454 c 0,35,36
 784 464 784 464 833 476 c 1,37,-1
 947 476 l 1,38,-1
 1004 474 l 1,39,-1
 1034 472 l 1,40,-1
 1039 466 l 1,41,-1
 1043 452 l 1,42,-1
 1043 430 l 1,43,44
 1027 430 1027 430 1011 415 c 1,45,-1
 978 378 l 1,46,-1
 955 331 l 1,47,-1
 947 289 l 1,48,-1
 947 241 l 1,49,-1
 955 209 l 1,50,-1
 986 168 l 1,51,-1
 1019 134 l 1,52,-1
 1043 125 l 1,53,-1
 1064 125 l 1,54,55
 1084 130 1084 130 1092 134 c 1,56,57
 1111 148 1111 148 1132 176 c 1,58,-1
 1152 236 l 1,59,-1
 1160 313 l 1,60,-1
 1160 381 l 2,61,62
 1160 443 1160 443 1152.5 484 c 128,-1,63
 1145 525 1145 525 1119 571 c 1,64,65
 1092 633 1092 633 1003 716 c 1,66,67
 934 769 934 769 845 796 c 128,-1,68
 756 823 756 823 669 823 c 2,69,-1
 508 823 l 2,70,71
 482 823 482 823 466 819 c 1,72,73
 433 819 433 819 375 797 c 1,74,75
 321 778 321 778 261 732 c 1,76,77
 222 705 222 705 185 652 c 1,78,-1
 169 615 l 1,79,-1
 159 568 l 1,80,81
 184 593 184 593 214.5 605 c 128,-1,82
 245 617 245 617 284 617 c 0,83,84
 334 617 334 617 366 601 c 1,85,86
 410 584 410 584 441 553 c 1,87,88
 471 529 471 529 491 485.5 c 128,-1,89
 511 442 511 442 511 404 c 2,90,-1
 511 197 l 2,91,92
 511 144 511 144 491 102.5 c 128,-1,93
 471 61 471 61 434 30 c 128,-1,94
 397 -1 397 -1 349 -16 c 1,95,-1
 304 -26 l 1,96,-1
 253 -30 l 1,97,98
 212 -30 212 -30 168 -17.5 c 128,-1,99
 124 -5 124 -5 79 25 c 1,100,-1
 48 56 l 1,101,-1
 20 99 l 1,102,103
 0 160 0 160 0 197 c 2,104,-1
 0 519 l 2,105,106
 0 584 0 584 34.5 650.5 c 128,-1,107
 69 717 69 717 151 789.5 c 128,-1,108
 233 862 233 862 335 901 c 128,-1,109
 437 940 437 940 532 940 c 2,110,-1
 778 940 l 1,111,-1
 837 934 l 1,112,-1
 897 922 l 1,113,114
 905 919 905 919 923.5 913 c 128,-1,115
 942 907 942 907 958 899 c 1,116,117
 1068 862 1068 862 1156 781 c 1,118,119
 1237 705 1237 705 1278.5 617 c 128,-1,120
 1320 529 1320 529 1320 430 c 2,121,-1
 1320 263 l 2,122,123
 1320 218 1320 218 1300.5 170 c 128,-1,124
 1281 122 1281 122 1248 87 c 1,125,-1
 1215 56 l 1,126,-1
 1175 27 l 1,127,128
 1137 8 1137 8 1088 8 c 2,129,-1
 1022 8 l 1,130,-1
 981 11 l 1,131,-1
 946 25 l 1,132,133
 913 43 913 43 885 88 c 1,134,-1
 841 182 l 1,135,136
 829 229 829 229 829 281 c 2,137,-1
 829 313 l 1,138,-1
 833 338 l 1,139,-1
 805 301 l 1,140,-1
 778 258 l 1,141,-1
 749 198 l 1,142,-1
 741 149 l 1,143,144
 741 96 741 96 758.5 56 c 128,-1,145
 776 16 776 16 821 -28 c 1,146,147
 863 -65 863 -65 907 -84 c 1,148,-1
 946 -98 l 2,149,150
 965 -104 965 -104 996 -104 c 2,151,-1
 1252 -106 l 1,152,-1
 1252 -222 l 1,153,-1
 1064 -222 l 2,154,155
 1038 -222 1038 -222 1012 -230 c 1,156,-1
 959 -263 l 1,157,-1
 919 -308 l 1,158,-1
 905 -359 l 1,159,-1
 905 -411 l 2,160,161
 905 -437 905 -437 886 -466.5 c 128,-1,162
 867 -496 867 -496 832 -517.5 c 128,-1,163
 797 -539 797 -539 744 -553 c 1,164,-1
 688 -564 l 1,165,-1
 625 -568 l 1,166,-1
 511 -569 l 1,167,-1
 462 -568 l 2,168,169
 435 -568 435 -568 398 -553 c 1,170,171
 366 -545 366 -545 302 -511 c 1,172,173
 261 -484 261 -484 233 -437 c 0,174,175
 226 -424 226 -424 216 -397 c 128,-1,176
 206 -370 206 -370 206 -335 c 2,177,-1
 206 -270 l 1,178,-1
 208 -249 l 1,179,-1
 214 -230 l 1,180,-1
 225 -210 l 1,181,-1
 241 -191 l 2,182,183
 257 -173 257 -173 277 -161 c 1,184,-1
 322 -153 l 1,185,-1
 394 -155 l 1,186,187
 437 -155 437 -155 447 -159 c 2,188,-1
 488 -178 l 1,189,-1
 520 -209 l 1,190,191
 532 -226 532 -226 532 -245 c 2,192,-1
 532 -336 l 2,0,1
458 -290 m 2,193,-1
 449 -274 l 1,194,-1
 425 -253 l 1,195,196
 413 -247 413 -247 391 -247 c 1,197,-1
 366 -251 l 1,198,-1
 343 -263 l 1,199,-1
 326 -286 l 1,200,-1
 322 -312 l 1,201,202
 322 -336 322 -336 326 -343 c 1,203,-1
 343 -362 l 1,204,-1
 366 -374 l 1,205,-1
 391 -378 l 1,206,-1
 418 -374 l 1,207,-1
 441 -362 l 1,208,-1
 455 -340 l 2,209,210
 462 -328 462 -328 462 -312 c 0,211,212
 462 -298 462 -298 458 -290 c 2,193,-1
347 355 m 2,213,214
 347 378 347 378 339 392 c 1,215,-1
 318 422 l 1,216,-1
 288 442 l 1,217,-1
 252 447 l 1,218,-1
 214 442 l 1,219,-1
 185 423 l 1,220,-1
 165 395 l 1,221,222
 159 378 159 378 159 355 c 2,223,-1
 159 174 l 1,224,-1
 165 134 l 1,225,-1
 184 107 l 1,226,227
 196 95 196 95 216 88 c 1,228,-1
 253 84 l 1,229,230
 280 84 280 84 288 88 c 2,231,-1
 318 107 l 1,232,-1
 339 134 l 1,233,-1
 347 174 l 1,234,-1
 347 355 l 2,213,214
EndSplineSet
EndChar

StartChar: TamlKA
Encoding: 2965 2965 112
Width: 1382
GlyphClass: 2
Flags: W
LayerCount: 2
Fore
SplineSet
1043 384 m 2,0,1
 1043 441 1043 441 1008 469.5 c 128,-1,2
 973 498 973 498 904 498 c 2,3,-1
 787 498 l 1,4,-1
 787 309 l 2,5,6
 787 168 787 168 681.5 90 c 128,-1,7
 576 12 576 12 370 12 c 1,8,-1
 295 14 l 2,9,10
 272 14 272 14 233 27 c 1,11,12
 158 46 158 46 116 81 c 1,13,14
 61 111 61 111 30.5 166.5 c 128,-1,15
 0 222 0 222 0 287 c 2,16,-1
 0 476 l 2,17,18
 0 500 0 500 8.5 523 c 128,-1,19
 17 546 17 546 34 567 c 1,20,-1
 70 599 l 1,21,-1
 114 614 l 1,22,-1
 206 614 l 1,23,-1
 206 986 l 1,24,-1
 1064 986 l 1,25,-1
 1064 869 l 1,26,-1
 787 869 l 1,27,-1
 787 614 l 1,28,-1
 924 614 l 2,29,30
 985 614 985 614 1006 611.5 c 128,-1,31
 1027 609 1027 609 1052 598 c 1,32,33
 1096 586 1096 586 1141 553 c 1,34,35
 1172 529 1172 529 1187 489 c 128,-1,36
 1202 449 1202 449 1202 401 c 2,37,-1
 1202 267 l 2,38,39
 1202 212 1202 212 1182 164 c 1,40,-1
 1156 119 l 1,41,42
 1141 99 1141 99 1117 77 c 1,43,-1
 1017 18 l 1,44,45
 961 0 961 0 894 0 c 1,46,-1
 820 4 l 1,47,-1
 880 129 l 1,48,-1
 904 123 l 1,49,50
 920 123 920 123 950 136 c 128,-1,51
 980 149 980 149 1003 176 c 1,52,-1
 1033 232 l 1,53,-1
 1037 255 l 1,54,-1
 1043 287 l 1,55,-1
 1043 384 l 2,0,1
484 141 m 0,56,57
 524 150 524 150 550 175 c 2,58,-1
 608 230 l 1,59,-1
 625 287 l 1,60,-1
 625 498 l 1,61,-1
 230 498 l 1,62,-1
 214 493 l 1,63,-1
 198 484 l 1,64,-1
 185 468 l 1,65,-1
 181 450 l 1,66,-1
 181 267 l 2,67,68
 181 240 181 240 198 216 c 1,69,-1
 249 171 l 1,70,-1
 318 138 l 1,71,-1
 355 130 l 1,72,-1
 394 129 l 2,73,74
 431 129 431 129 484 141 c 0,56,57
370 614 m 1,75,-1
 625 614 l 1,76,-1
 625 869 l 1,77,-1
 370 869 l 1,78,-1
 370 614 l 1,75,-1
EndSplineSet
EndChar

StartChar: TamlNGA
Encoding: 2969 2969 113
Width: 1572
GlyphClass: 2
Flags: W
LayerCount: 2
Fore
SplineSet
578 276 m 1,0,-1
 414 276 l 1,1,-1
 414 858 l 1,2,-1
 159 858 l 1,3,-1
 159 0 l 1,4,-1
 0 0 l 1,5,-1
 0 975 l 1,6,-1
 833 975 l 1,7,-1
 833 858 l 1,8,-1
 578 858 l 1,9,-1
 578 628 l 1,10,11
 612 659 612 659 666.5 676.5 c 128,-1,12
 721 694 721 694 788 694 c 0,13,14
 832 694 832 694 869.5 675 c 128,-1,15
 907 656 907 656 935 615 c 1,16,17
 966 579 966 579 981 526 c 1,18,-1
 993 474 l 1,19,-1
 997 415 l 1,20,-1
 991 331 l 1,21,-1
 985 297 l 1,22,-1
 973 245 l 2,23,24
 966 217 966 217 935 176 c 1,25,26
 921 153 921 153 881 117 c 1,27,-1
 1228 117 l 1,28,-1
 1228 975 l 1,29,-1
 1392 975 l 1,30,-1
 1392 0 l 1,31,-1
 370 0 l 1,32,-1
 370 117 l 1,33,-1
 669 117 l 1,34,35
 717 133 717 133 742.5 156.5 c 128,-1,36
 768 180 768 180 794 225 c 1,37,-1
 809 258 l 1,38,-1
 824 315 l 1,39,-1
 833 373 l 1,40,-1
 833 415 l 2,41,42
 833 464 833 464 824 482 c 1,43,44
 817 514 817 514 797.5 535 c 128,-1,45
 778 556 778 556 757 564 c 1,46,-1
 709 576 l 1,47,48
 664 576 664 576 633 553 c 1,49,50
 603 535 603 535 578 487 c 1,51,-1
 578 276 l 1,0,-1
EndSplineSet
EndChar

StartChar: TamlCA
Encoding: 2970 2970 114
Width: 1248
GlyphClass: 2
Flags: W
LayerCount: 2
Fore
SplineSet
787 487 m 1,0,-1
 787 298 l 2,1,2
 787 157 787 157 681.5 78.5 c 128,-1,3
 576 0 576 0 369 0 c 1,4,-1
 295 3 l 2,5,6
 272 3 272 3 232 16 c 1,7,8
 158 35 158 35 115 69 c 1,9,10
 61 100 61 100 30.5 155 c 128,-1,11
 0 210 0 210 0 276 c 2,12,-1
 0 464 l 2,13,14
 0 488 0 488 8.5 511.5 c 128,-1,15
 17 535 17 535 34 556 c 1,16,-1
 70 588 l 1,17,-1
 114 603 l 1,18,-1
 210 603 l 1,19,-1
 210 975 l 1,20,-1
 1068 975 l 1,21,-1
 1068 858 l 1,22,-1
 787 858 l 1,23,-1
 787 603 l 1,24,-1
 1042 603 l 1,25,-1
 1042 487 l 1,26,-1
 787 487 l 1,0,-1
185 256 m 2,27,28
 185 229 185 229 202 205 c 1,29,-1
 252 160 l 1,30,-1
 322 127 l 1,31,-1
 364 117 l 1,32,-1
 393 117 l 2,33,34
 435 117 435 117 475.5 129 c 128,-1,35
 516 141 516 141 554 165 c 1,36,-1
 607 218 l 1,37,-1
 625 276 l 1,38,-1
 625 487 l 1,39,-1
 230 487 l 1,40,-1
 214 482 l 1,41,-1
 199 472 l 1,42,-1
 187 456 l 1,43,-1
 185 439 l 1,44,-1
 185 256 l 2,27,28
625 603 m 1,45,-1
 625 858 l 1,46,-1
 369 858 l 1,47,-1
 369 603 l 1,48,-1
 625 603 l 1,45,-1
EndSplineSet
EndChar

StartChar: TamlJA
Encoding: 2972 2972 115
Width: 1500
GlyphClass: 2
Flags: W
LayerCount: 2
Fore
SplineSet
788 -392 m 1,0,-1
 809 -421 l 1,1,-1
 844 -444 l 1,2,-1
 885 -459 l 1,3,-1
 925 -464 l 1,4,-1
 996 -467 l 1,5,-1
 1048 -455 l 2,6,7
 1076 -448 1076 -448 1103 -423 c 1,8,-1
 1122 -409 l 1,9,10
 1133 -403 1133 -403 1145 -383 c 1,11,12
 1157 -371 1157 -371 1160 -348 c 1,13,-1
 1160 -300 l 2,14,15
 1160 -283 1160 -283 1148 -258 c 1,16,-1
 1111 -219 l 1,17,18
 1087 -201 1087 -201 1064 -193 c 1,19,-1
 1022 -185 l 1,20,-1
 905 -186 l 2,21,22
 877 -186 877 -186 801 -250 c 1,23,-1
 713 -335 l 1,24,-1
 603 -452 l 1,25,26
 554 -512 554 -512 486 -544 c 1,27,28
 423 -578 423 -578 370 -578 c 1,29,-1
 322 -581 l 1,30,31
 273 -581 273 -581 208 -562 c 1,32,33
 185 -558 185 -558 176.5 -555 c 128,-1,34
 168 -552 168 -552 153 -546 c 1,35,-1
 104 -516 l 1,36,37
 63 -485 63 -485 27 -432 c 1,38,-1
 8 -379 l 1,39,-1
 0 -323 l 1,40,-1
 0 -186 l 2,41,42
 0 -120 0 -120 36 -53 c 1,43,44
 67 -9 67 -9 147 48 c 1,45,-1
 218 83 l 1,46,-1
 294 112 l 1,47,48
 334 124 334 124 378 130 c 1,49,-1
 462 136 l 1,50,-1
 905 136 l 2,51,52
 954 136 954 136 996.5 156 c 128,-1,53
 1039 176 1039 176 1078.5 209 c 128,-1,54
 1118 242 1118 242 1139 298.5 c 128,-1,55
 1160 355 1160 355 1160 391 c 2,56,-1
 1160 629 l 2,57,58
 1160 696 1160 696 1149 722 c 1,59,60
 1144 760 1144 760 1118 794 c 1,61,62
 1099 825 1099 825 1081.5 835 c 128,-1,63
 1064 845 1064 845 1022 859 c 1,64,-1
 973 859 l 2,65,66
 943 859 943 859 920.5 849 c 128,-1,67
 898 839 898 839 863 805 c 1,68,69
 845 784 845 784 824 722 c 1,70,-1
 813 676 l 1,71,-1
 809 629 l 1,72,-1
 809 257 l 1,73,-1
 649 257 l 1,74,-1
 649 604 l 2,75,76
 649 668 649 668 636 718 c 128,-1,77
 623 768 623 768 596 797 c 1,78,79
 574 825 574 825 554.5 835 c 128,-1,80
 535 845 535 845 486 859 c 1,81,-1
 394 859 l 1,82,-1
 334 854 l 1,83,-1
 277 837 l 1,84,-1
 233 806 l 1,85,86
 214 794 214 794 206 768 c 1,87,-1
 238 774 l 1,88,-1
 273 776 l 1,89,90
 321 776 321 776 367.5 756.5 c 128,-1,91
 414 737 414 737 447 704 c 1,92,93
 467 686 467 686 494 633 c 1,94,-1
 507 596 l 1,95,-1
 511 555 l 1,96,-1
 511 488 l 2,97,98
 511 432 511 432 492.5 395.5 c 128,-1,99
 474 359 474 359 435 321 c 1,100,101
 409 299 409 299 353 275 c 1,102,-1
 309 265 l 1,103,-1
 257 261 l 1,104,105
 214 261 214 261 167 273.5 c 128,-1,106
 120 286 120 286 79 318 c 1,107,-1
 48 349 l 1,108,-1
 20 391 l 1,109,-1
 6 439 l 1,110,-1
 0 488 l 1,111,-1
 0 629 l 2,112,113
 0 696 0 696 24 758.5 c 128,-1,114
 48 821 48 821 101 870 c 1,115,116
 155 923 155 923 218 950 c 1,117,-1
 282 968 l 1,118,-1
 347 976 l 1,119,-1
 437 976 l 2,120,121
 467 976 467 976 510.5 965 c 128,-1,122
 554 954 554 954 599 927 c 1,123,-1
 664 875 l 2,124,125
 691 854 691 854 717 810 c 1,126,127
 736 847 736 847 764 875 c 2,128,-1
 790 902 l 1,129,-1
 824 925 l 2,130,131
 856 947 856 947 893 962 c 1,132,-1
 973 976 l 1,133,-1
 1064 976 l 2,134,135
 1122 976 1122 976 1167.5 951.5 c 128,-1,136
 1213 927 1213 927 1247 882 c 1,137,138
 1262 859 1262 859 1272 840.5 c 128,-1,139
 1282 822 1282 822 1298 778 c 1,140,-1
 1313 717 l 1,141,-1
 1320 647 l 1,142,-1
 1320 391 l 2,143,144
 1320 318 1320 318 1295 257 c 128,-1,145
 1270 196 1270 196 1220 138 c 1,146,147
 1175 93 1175 93 1088 51 c 1,148,149
 1012 21 1012 21 925 21 c 2,150,-1
 437 21 l 1,151,-1
 391 20 l 2,152,153
 371 20 371 20 337 5 c 1,154,155
 300 -5 300 -5 256 -33 c 1,156,157
 210 -66 210 -66 181 -105 c 1,158,159
 159 -143 159 -143 159 -185 c 2,160,-1
 159 -300 l 2,161,162
 159 -346 159 -346 170 -374 c 128,-1,163
 181 -402 181 -402 205.5 -423 c 128,-1,164
 230 -444 230 -444 265 -452 c 2,165,-1
 314 -463 l 1,166,-1
 347 -464 l 1,167,-1
 394 -467 l 1,168,-1
 542 -319 l 1,169,-1
 672 -194 l 1,170,-1
 733 -142 l 1,171,-1
 801 -98 l 1,172,173
 862 -68 862 -68 925 -68 c 2,174,-1
 1064 -70 l 2,175,176
 1099 -70 1099 -70 1153 -82 c 1,177,178
 1199 -98 1199 -98 1238.5 -128.5 c 128,-1,179
 1278 -159 1278 -159 1298 -199 c 1,180,-1
 1313 -235 l 1,181,-1
 1320 -276 l 1,182,-1
 1320 -375 l 2,183,184
 1320 -403 1320 -403 1301 -449 c 1,185,186
 1289 -489 1289 -489 1255 -517 c 1,187,188
 1224 -548 1224 -548 1171 -562 c 2,189,-1
 1123 -574 l 1,190,-1
 1064 -578 l 1,191,-1
 881 -581 l 2,192,193
 848 -581 848 -581 829 -570 c 1,194,195
 805 -564 805 -564 782 -550 c 1,196,-1
 744 -520 l 1,197,-1
 717 -487 l 1,198,-1
 788 -392 l 1,0,-1
339 608 m 1,199,-1
 318 631 l 1,200,-1
 288 645 l 1,201,-1
 253 649 l 1,202,203
 220 649 220 649 214 645 c 1,204,-1
 185 633 l 2,205,206
 173 627 173 627 165 611 c 1,207,-1
 159 580 l 1,208,-1
 159 440 l 1,209,-1
 172 416 l 1,210,-1
 193 395 l 1,211,212
 208 383 208 383 222 378 c 1,213,-1
 256 374 l 1,214,-1
 284 379 l 1,215,-1
 314 398 l 1,216,-1
 339 420 l 1,217,-1
 347 440 l 1,218,-1
 347 580 l 2,219,220
 347 592 347 592 339 608 c 1,199,-1
EndSplineSet
EndChar

StartChar: TamlNYA
Encoding: 2974 2974 116
Width: 1896
GlyphClass: 2
Flags: W
LayerCount: 2
Fore
SplineSet
1322 2 m 1,0,-1
 1163 2 l 1,1,-1
 1163 860 l 1,2,-1
 791 860 l 2,3,4
 756 860 756 860 744 856 c 2,5,-1
 693 836 l 2,6,7
 659 823 659 823 621.5 786.5 c 128,-1,8
 584 750 584 750 556 697 c 1,9,10
 536 642 536 642 536 605 c 1,11,12
 560 630 560 630 593 642 c 1,13,-1
 659 657 l 1,14,15
 709 657 709 657 740 639 c 1,16,17
 781 627 781 627 813 590 c 1,18,19
 843 566 843 566 863 522 c 128,-1,20
 883 478 883 478 883 441 c 2,21,-1
 883 234 l 2,22,23
 883 180 883 180 863 139 c 128,-1,24
 843 98 843 98 806 66.5 c 128,-1,25
 769 35 769 35 721 21 c 1,26,-1
 677 10 l 1,27,-1
 625 6 l 1,28,29
 584 6 584 6 540 19 c 128,-1,30
 496 32 496 32 452 62 c 1,31,-1
 422 93 l 1,32,-1
 392 135 l 1,33,34
 373 196 373 196 373 234 c 2,35,-1
 373 533 l 2,36,37
 373 619 373 619 399.5 689.5 c 128,-1,38
 426 760 426 760 481.5 827.5 c 128,-1,39
 537 895 537 895 617 936 c 128,-1,40
 697 977 697 977 791 977 c 2,41,-1
 1601 977 l 1,42,-1
 1601 860 l 1,43,-1
 1322 860 l 1,44,-1
 1322 533 l 1,45,-1
 1387 556 l 1,46,-1
 1447 564 l 1,47,48
 1506 564 1506 564 1552 537 c 1,49,50
 1604 513 1604 513 1639 460 c 0,51,52
 1667 419 1667 419 1696 344 c 1,53,-1
 1711 278 l 1,54,-1
 1716 211 l 1,55,56
 1716 32 1716 32 1660 -95.5 c 128,-1,57
 1604 -223 1604 -223 1495 -316.5 c 128,-1,58
 1386 -410 1386 -410 1213 -459 c 1,59,60
 1192 -466 1192 -466 1141.5 -476 c 128,-1,61
 1091 -486 1091 -486 1024.5 -496 c 128,-1,62
 958 -506 958 -506 861 -506 c 0,63,64
 677 -506 677 -506 529.5 -444.5 c 128,-1,65
 382 -383 382 -383 240 -253 c 1,66,67
 123 -136 123 -136 63 -5.5 c 128,-1,68
 3 125 3 125 3 258 c 1,69,-1
 0 337 l 1,70,-1
 3 413 l 1,71,-1
 4 452 l 1,72,-1
 11 497 l 1,73,-1
 16 537 l 1,74,75
 16 556 16 556 23 562 c 1,76,-1
 43 627 l 1,77,-1
 65 693 l 1,78,-1
 99 762 l 1,79,-1
 137 832 l 1,80,-1
 184 903 l 1,81,-1
 258 811 l 1,82,-1
 201 697 l 1,83,84
 176 642 176 642 157 581 c 1,85,-1
 141 521 l 1,86,-1
 123 445 l 1,87,-1
 113 361 l 1,88,-1
 113 323 l 1,89,-1
 117 258 l 1,90,91
 129 125 129 125 195.5 13.5 c 128,-1,92
 262 -98 262 -98 382 -196 c 1,93,94
 476 -269 476 -269 592 -318 c 128,-1,95
 708 -367 708 -367 861 -390 c 1,96,97
 963 -390 963 -390 1026 -375 c 2,98,-1
 1183 -340 l 1,99,-1
 1250 -313 l 1,100,-1
 1316 -280 l 2,101,102
 1377 -249 1377 -249 1417 -211 c 1,103,-1
 1451 -173 l 1,104,-1
 1482 -131 l 1,105,-1
 1520 -59 l 2,106,107
 1531 -40 1531 -40 1535.5 -21 c 128,-1,108
 1540 -2 1540 -2 1548 39 c 1,109,-1
 1559 114 l 1,110,-1
 1562 182 l 1,111,-1
 1558 300 l 2,112,113
 1558 329 1558 329 1543 349 c 128,-1,114
 1528 369 1528 369 1509.5 387 c 128,-1,115
 1491 405 1491 405 1471 411 c 1,116,-1
 1422 423 l 1,117,118
 1398 423 1398 423 1369 411 c 1,119,-1
 1322 375 l 1,120,-1
 1322 2 l 1,0,-1
593 480 m 1,121,-1
 564 460 l 1,122,-1
 541 427 l 1,123,-1
 536 392 l 1,124,-1
 536 211 l 1,125,-1
 541 171 l 1,126,-1
 563 143 l 1,127,128
 576 131 576 131 591 125 c 1,129,-1
 628 121 l 1,130,131
 655 121 655 121 660 125 c 2,132,-1
 690 143 l 1,133,-1
 712 171 l 1,134,-1
 720 211 l 1,135,-1
 720 392 l 2,136,137
 720 409 720 409 712.5 426.5 c 128,-1,138
 705 444 705 444 693 456 c 1,139,-1
 660 480 l 1,140,-1
 628 489 l 1,141,142
 609 489 609 489 593 480 c 1,121,-1
EndSplineSet
EndChar

StartChar: TamlTTA
Encoding: 2975 2975 117
Width: 1340
GlyphClass: 2
Flags: W
LayerCount: 2
Fore
SplineSet
0 975 m 1,0,-1
 162 975 l 1,1,-1
 162 117 l 1,2,-1
 1160 117 l 1,3,-1
 1160 0 l 1,4,-1
 0 0 l 1,5,-1
 0 975 l 1,0,-1
EndSplineSet
EndChar

StartChar: TamlNNA
Encoding: 2979 2979 118
Width: 2638
GlyphClass: 2
Flags: W
LayerCount: 2
Fore
SplineSet
1133 857 m 1,0,-1
 1099 854 l 1,1,2
 1087 854 1087 854 1071 846 c 2,3,-1
 1044 834 l 1,4,5
 1068 816 1068 816 1088 777 c 2,6,-1
 1125 702 l 1,7,8
 1144 675 1144 675 1152 625 c 1,9,-1
 1160 553 l 1,10,-1
 1160 232 l 2,11,12
 1160 174 1160 174 1140 133 c 1,13,14
 1121 88 1121 88 1082.5 59.5 c 128,-1,15
 1044 31 1044 31 999 16 c 1,16,-1
 954 7 l 1,17,-1
 903 3 l 1,18,19
 862 3 862 3 818 15 c 128,-1,20
 774 27 774 27 729 57 c 1,21,-1
 698 88 l 1,22,-1
 670 131 l 1,23,-1
 656 178 l 1,24,-1
 649 232 l 1,25,-1
 649 591 l 1,26,-1
 660 632 l 1,27,28
 660 644 660 644 684 690 c 1,29,-1
 698 721 l 1,30,-1
 725 762 l 1,31,32
 741 790 741 790 789 834 c 1,33,-1
 760 843 l 1,34,-1
 722 853 l 1,35,-1
 678 857 l 1,36,-1
 625 858 l 1,37,-1
 415 858 l 2,38,39
 382 858 382 858 326 839 c 1,40,41
 290 821 290 821 247 785 c 1,42,43
 204 742 204 742 180 690 c 1,44,45
 172 663 172 663 166 631 c 128,-1,46
 160 599 160 599 160 579 c 1,47,-1
 192 605 l 1,48,-1
 226 625 l 1,49,-1
 263 637 l 1,50,-1
 305 641 l 1,51,-1
 343 640 l 2,52,53
 358 640 358 640 388 623 c 1,54,55
 408 615 408 615 447 580 c 1,56,57
 470 557 470 557 494 504 c 1,58,-1
 507 462 l 1,59,-1
 511 415 l 1,60,-1
 511 232 l 2,61,62
 511 180 511 180 491.5 136 c 128,-1,63
 472 92 472 92 432 63.5 c 128,-1,64
 392 35 392 35 347 20 c 1,65,-1
 302 11 l 1,66,-1
 251 7 l 1,67,68
 208 7 208 7 159 19 c 128,-1,69
 110 31 110 31 79.5 59.5 c 128,-1,70
 49 88 49 88 19 133 c 1,71,72
 0 176 0 176 0 232 c 2,73,-1
 0 531 l 1,74,-1
 5 617 l 1,75,-1
 13 656 l 1,76,-1
 28 698 l 1,77,78
 59 774 59 774 114 840.5 c 128,-1,79
 169 907 169 907 251 941 c 128,-1,80
 333 975 333 975 415 975 c 2,81,-1
 670 975 l 2,82,83
 696 975 696 975 728 967 c 2,84,-1
 802 949 l 1,85,-1
 869 922 l 2,86,87
 894 911 894 911 904 901 c 1,88,-1
 942 922 l 1,89,-1
 983 946 l 1,90,-1
 1029 967 l 1,91,-1
 1064 975 l 1,92,-1
 1319 975 l 2,93,94
 1346 975 1346 975 1377 967 c 2,95,-1
 1452 949 l 1,96,-1
 1487 935 l 1,97,-1
 1522 922 l 2,98,99
 1540 915 1540 915 1555 901 c 1,100,-1
 1601 926 l 1,101,-1
 1644 946 l 1,102,-1
 1700 967 l 1,103,-1
 1738 975 l 1,104,-1
 2458 975 l 1,105,-1
 2458 858 l 1,106,-1
 2181 858 l 1,107,-1
 2181 0 l 1,108,-1
 2018 0 l 1,109,-1
 2018 858 l 1,110,-1
 1830 858 l 1,111,-1
 1792 857 l 1,112,-1
 1757 854 l 1,113,114
 1740 854 1740 854 1724 846 c 1,115,-1
 1692 834 l 1,116,117
 1716 816 1716 816 1736 777 c 1,118,-1
 1750 752 l 1,119,-1
 1777 697 l 1,120,-1
 1797 629 l 1,121,-1
 1808 587 l 1,122,-1
 1810 553 l 1,123,-1
 1810 232 l 2,124,125
 1810 176 1810 176 1791.5 139.5 c 128,-1,126
 1773 103 1773 103 1734 64 c 1,127,128
 1697 33 1697 33 1648 15 c 1,129,-1
 1603 4 l 1,130,-1
 1552 0 l 1,131,132
 1511 0 1511 0 1466.5 12 c 128,-1,133
 1422 24 1422 24 1379 57 c 1,134,-1
 1347 88 l 1,135,-1
 1319 131 l 1,136,-1
 1305 178 l 1,137,-1
 1299 232 l 1,138,-1
 1299 591 l 1,139,-1
 1309 632 l 1,140,141
 1309 644 1309 644 1334 690 c 1,142,143
 1350 728 1350 728 1376.5 766 c 128,-1,144
 1403 804 1403 804 1436 834 c 1,145,-1
 1407 843 l 1,146,-1
 1373 853 l 1,147,-1
 1327 857 l 1,148,-1
 1277 858 l 1,149,-1
 1181 858 l 1,150,-1
 1133 857 l 1,0,-1
345 390 m 2,151,152
 345 409 345 409 337 423 c 1,153,-1
 317 451 l 1,154,-1
 287 472 l 1,155,156
 275 478 275 478 253 478 c 1,157,-1
 214 472 l 1,158,-1
 185 456 l 1,159,-1
 165 431 l 1,160,-1
 160 390 l 1,161,-1
 160 209 l 1,162,-1
 165 172 l 1,163,-1
 184 144 l 1,164,165
 196 131 196 131 217 125 c 1,166,-1
 253 121 l 1,167,168
 279 121 279 121 286 125 c 2,169,-1
 317 144 l 1,170,-1
 337 172 l 1,171,-1
 345 209 l 1,172,-1
 345 390 l 2,151,152
996 579 m 2,173,174
 996 597 996 597 988 611 c 1,175,-1
 968 637 l 1,176,-1
 939 659 l 1,177,178
 927 664 927 664 904 664 c 1,179,-1
 869 659 l 1,180,-1
 837 641 l 1,181,-1
 815 613 l 1,182,183
 809 601 809 601 809 579 c 2,184,-1
 809 209 l 1,185,-1
 815 172 l 1,186,-1
 835 145 l 1,187,188
 847 133 847 133 866 127 c 1,189,-1
 900 123 l 1,190,191
 927 123 927 123 935 127 c 2,192,-1
 968 145 l 2,193,194
 980 152 980 152 988 172 c 1,195,-1
 996 209 l 1,196,-1
 996 579 l 2,173,174
1639 613 m 1,197,-1
 1620 640 l 1,198,-1
 1589 656 l 1,199,-1
 1555 663 l 1,200,-1
 1518 656 l 1,201,-1
 1487 640 l 1,202,-1
 1464 613 l 1,203,204
 1458 601 1458 601 1458 579 c 2,205,-1
 1458 209 l 1,206,-1
 1464 172 l 1,207,-1
 1484 145 l 1,208,209
 1498 133 1498 133 1515 127 c 1,210,-1
 1551 123 l 1,211,212
 1577 123 1577 123 1585 127 c 2,213,-1
 1617 145 l 2,214,215
 1629 152 1629 152 1639 172 c 1,216,-1
 1647 209 l 1,217,-1
 1647 579 l 2,218,219
 1647 597 1647 597 1639 613 c 1,197,-1
EndSplineSet
EndChar

StartChar: TamlTA
Encoding: 2980 2980 119
Width: 1382
GlyphClass: 2
Flags: W
LayerCount: 2
Fore
SplineSet
181 -529 m 1,0,-1
 21 -529 l 1,1,-1
 21 -346 l 2,2,3
 21 -242 21 -242 92 -185 c 1,4,5
 161 -131 161 -131 298 -131 c 2,6,-1
 741 -133 l 2,7,8
 800 -133 800 -133 839 -111 c 1,9,10
 888 -90 888 -90 937 -45 c 2,11,-1
 984 -2 l 1,12,-1
 1015 43 l 1,13,-1
 1035 92 l 1,14,-1
 1043 140 l 1,15,-1
 1043 353 l 1,16,-1
 1037 406 l 1,17,-1
 1019 447 l 1,18,19
 1007 466 1007 466 975 479 c 128,-1,20
 943 492 943 492 904 492 c 2,21,-1
 787 492 l 1,22,-1
 787 303 l 2,23,24
 787 162 787 162 681.5 84 c 128,-1,25
 576 6 576 6 370 6 c 1,26,-1
 295 8 l 2,27,28
 272 8 272 8 233 22 c 1,29,30
 158 40 158 40 116 75 c 1,31,32
 61 105 61 105 30.5 160.5 c 128,-1,33
 0 216 0 216 0 281 c 2,34,-1
 0 470 l 2,35,36
 0 494 0 494 8.5 517 c 128,-1,37
 17 540 17 540 34 561 c 1,38,-1
 70 593 l 1,39,-1
 114 608 l 1,40,-1
 206 608 l 1,41,-1
 206 980 l 1,42,-1
 1064 980 l 1,43,-1
 1064 863 l 1,44,-1
 787 863 l 1,45,-1
 787 608 l 1,46,-1
 924 608 l 2,47,48
 985 608 985 608 1048 589 c 1,49,50
 1105 577 1105 577 1141 539 c 0,51,52
 1160 520 1160 520 1186 471 c 1,53,-1
 1198 435 l 1,54,-1
 1202 395 l 1,55,-1
 1202 165 l 2,56,57
 1202 108 1202 108 1193 68.5 c 128,-1,58
 1184 29 1184 29 1162 -6 c 1,59,60
 1125 -81 1125 -81 1041 -146 c 1,61,62
 973 -195 973 -195 896 -221 c 1,63,-1
 810 -242 l 1,64,-1
 741 -247 l 1,65,-1
 298 -250 l 2,66,67
 267 -250 267 -250 249 -256 c 1,68,-1
 214 -274 l 1,69,-1
 189 -307 l 1,70,-1
 181 -344 l 1,71,-1
 181 -529 l 1,0,-1
625 492 m 1,72,-1
 230 492 l 1,73,-1
 214 487 l 1,74,-1
 198 478 l 1,75,-1
 185 462 l 1,76,-1
 181 444 l 1,77,-1
 181 261 l 2,78,79
 181 234 181 234 198 210 c 1,80,-1
 249 165 l 1,81,-1
 318 132 l 1,82,-1
 355 124 l 1,83,-1
 394 123 l 1,84,85
 435 123 435 123 475.5 135 c 128,-1,86
 516 147 516 147 554 170 c 1,87,-1
 608 224 l 1,88,-1
 625 281 l 1,89,-1
 625 492 l 1,72,-1
625 608 m 1,90,-1
 625 863 l 1,91,-1
 370 863 l 1,92,-1
 370 608 l 1,93,-1
 625 608 l 1,90,-1
EndSplineSet
EndChar

StartChar: TamlNA
Encoding: 2984 2984 120
Width: 1269
GlyphClass: 2
Flags: W
LayerCount: 2
Fore
SplineSet
951 863 m 1,0,-1
 670 863 l 1,1,-1
 670 421 l 1,2,-1
 705 448 l 1,3,-1
 746 470 l 1,4,-1
 789 482 l 1,5,-1
 837 486 l 1,6,7
 884 486 884 486 928 467 c 1,8,9
 960 455 960 455 1012 417 c 0,10,11
 1047 391 1047 391 1067 337 c 1,12,13
 1089 285 1089 285 1089 237 c 2,14,-1
 1089 6 l 2,15,16
 1089 -64 1089 -64 1067 -98 c 1,17,18
 1055 -133 1055 -133 1006 -177 c 1,19,20
 971 -199 971 -199 883 -227 c 1,21,-1
 797 -242 l 1,22,-1
 696 -247 l 1,23,-1
 277 -250 l 1,24,-1
 221 -252 l 1,25,-1
 176 -270 l 1,26,27
 166 -276 166 -276 148 -296 c 1,28,-1
 136 -344 l 1,29,-1
 136 -529 l 1,30,-1
 0 -529 l 1,31,-1
 0 -346 l 2,32,33
 0 -284 0 -284 17 -260 c 1,34,35
 23 -231 23 -231 53.5 -200.5 c 128,-1,36
 84 -170 84 -170 140 -146 c 1,37,-1
 197 -135 l 1,38,-1
 255 -131 l 1,39,-1
 718 -133 l 2,40,41
 769 -133 769 -133 807 -119.5 c 128,-1,42
 845 -106 845 -106 867.5 -86 c 128,-1,43
 890 -66 890 -66 910 -36 c 1,44,-1
 920 -5 l 1,45,-1
 926 25 l 1,46,-1
 926 214 l 2,47,48
 926 258 926 258 918 281 c 1,49,50
 911 310 911 310 894 330 c 1,51,52
 880 349 880 349 861 357 c 1,53,-1
 811 371 l 1,54,55
 773 371 773 371 739 352 c 128,-1,56
 705 333 705 333 670 281 c 1,57,-1
 670 6 l 1,58,-1
 511 6 l 1,59,-1
 511 863 l 1,60,-1
 255 863 l 1,61,-1
 255 6 l 1,62,-1
 93 6 l 1,63,-1
 93 980 l 1,64,-1
 951 980 l 1,65,-1
 951 863 l 1,0,-1
EndSplineSet
EndChar

StartChar: TamlNNNA
Encoding: 2985 2985 121
Width: 1988
GlyphClass: 2
Flags: W
LayerCount: 2
Fore
SplineSet
1532 0 m 1,0,-1
 1372 0 l 1,1,-1
 1372 858 l 1,2,-1
 1183 858 l 2,3,4
 1145 858 1145 858 1137 854 c 1,5,6
 1117 854 1117 854 1100 846 c 2,7,-1
 1069 830 l 1,8,-1
 1042 809 l 1,9,10
 1098 760 1098 760 1128.5 694 c 128,-1,11
 1159 628 1159 628 1159 553 c 2,12,-1
 1159 232 l 2,13,14
 1159 180 1159 180 1142 142 c 128,-1,15
 1125 104 1125 104 1084 68 c 0,16,17
 1052 41 1052 41 998 20 c 1,18,-1
 953 11 l 1,19,-1
 901 7 l 1,20,21
 859 7 859 7 810.5 19 c 128,-1,22
 762 31 762 31 730.5 59.5 c 128,-1,23
 699 88 699 88 669 133 c 1,24,25
 649 194 649 194 649 232 c 2,26,-1
 649 553 l 2,27,28
 649 615 649 615 682 675 c 1,29,30
 712 737 712 737 787 809 c 1,31,-1
 751 830 l 1,32,-1
 708 846 l 1,33,-1
 659 854 l 1,34,-1
 606 858 l 1,35,-1
 417 858 l 2,36,37
 377 858 377 858 332 839.5 c 128,-1,38
 287 821 287 821 242 777 c 1,39,40
 218 752 218 752 183 687 c 1,41,-1
 169 636 l 1,42,-1
 162 579 l 1,43,44
 184 601 184 601 228 621 c 128,-1,45
 272 641 272 641 312 641 c 0,46,47
 356 641 356 641 385 628 c 1,48,49
 420 615 420 615 450 589.5 c 128,-1,50
 480 564 480 564 495 524 c 128,-1,51
 510 484 510 484 510 439 c 2,52,-1
 510 232 l 2,53,54
 510 180 510 180 492 142 c 128,-1,55
 474 104 474 104 435 68 c 1,56,57
 401 41 401 41 348 20 c 1,58,-1
 303 11 l 1,59,-1
 252 7 l 1,60,61
 210 7 210 7 160.5 19 c 128,-1,62
 111 31 111 31 80.5 59.5 c 128,-1,63
 50 88 50 88 20 133 c 1,64,65
 0 194 0 194 0 232 c 2,66,-1
 0 531 l 1,67,-1
 5 607 l 1,68,69
 5 623 5 623 13 641 c 1,70,-1
 28 680 l 1,71,72
 58 754 58 754 117 825.5 c 128,-1,73
 176 897 176 897 259.5 936 c 128,-1,74
 343 975 343 975 417 975 c 2,75,-1
 669 975 l 1,76,-1
 710 967 l 1,77,-1
 792 949 l 1,78,79
 843 935 843 935 865 922 c 1,80,81
 889 915 889 915 904 901 c 1,82,-1
 953 927 l 1,83,-1
 1006 956 l 1,84,-1
 1038 971 l 1,85,-1
 1068 975 l 1,86,-1
 1808 975 l 1,87,-1
 1808 858 l 1,88,-1
 1532 858 l 1,89,-1
 1532 0 l 1,0,-1
219 478 m 1,90,-1
 191 458 l 1,91,-1
 169 424 l 1,92,-1
 162 390 l 1,93,-1
 162 209 l 1,94,-1
 169 169 l 1,95,-1
 188 141 l 1,96,97
 203 129 203 129 218 123 c 1,98,-1
 255 119 l 1,99,100
 282 119 282 119 290 123 c 2,101,-1
 321 141 l 1,102,-1
 343 169 l 1,103,-1
 351 209 l 1,104,-1
 351 390 l 1,105,-1
 320 442 l 1,106,-1
 298 470 l 1,107,-1
 275 482 l 1,108,-1
 255 487 l 1,109,110
 236 487 236 487 219 478 c 1,90,-1
988 615 m 2,111,-1
 969 644 l 1,112,113
 957 659 957 659 941 663 c 1,114,115
 928 668 928 668 908 668 c 1,116,-1
 871 663 l 1,117,-1
 840 644 l 1,118,-1
 819 615 l 1,119,-1
 812 579 l 1,120,-1
 812 209 l 1,121,-1
 819 169 l 1,122,-1
 836 141 l 1,123,124
 849 129 849 129 869 123 c 1,125,-1
 907 119 l 1,126,127
 933 119 933 119 937 123 c 1,128,-1
 968 141 l 1,129,-1
 988 169 l 1,130,-1
 996 209 l 1,131,-1
 996 579 l 2,132,133
 996 601 996 601 988 615 c 2,111,-1
EndSplineSet
EndChar

StartChar: TamlPA
Encoding: 2986 2986 122
Width: 1109
GlyphClass: 2
Flags: W
LayerCount: 2
Fore
SplineSet
163 117 m 1,0,-1
 766 117 l 1,1,-1
 766 975 l 1,2,-1
 929 975 l 1,3,-1
 929 0 l 1,4,-1
 0 0 l 1,5,-1
 0 975 l 1,6,-1
 163 975 l 1,7,-1
 163 117 l 1,0,-1
EndSplineSet
EndChar

StartChar: TamlMA
Encoding: 2990 2990 123
Width: 1316
GlyphClass: 2
Flags: W
LayerCount: 2
Fore
SplineSet
573 858 m 1,0,1
 592 889 592 889 626 915.5 c 128,-1,2
 660 942 660 942 717 960 c 1,3,-1
 771 971 l 1,4,-1
 837 975 l 1,5,6
 908 975 908 975 963 954 c 1,7,8
 1016 938 1016 938 1053 899 c 1,9,10
 1091 865 1091 865 1115 790 c 1,11,-1
 1129 720 l 1,12,-1
 1136 645 l 1,13,-1
 1136 184 l 2,14,15
 1136 139 1136 139 1127.5 115 c 128,-1,16
 1119 91 1119 91 1100 55 c 1,17,-1
 1045 15 l 1,18,-1
 976 0 l 1,19,-1
 0 0 l 1,20,-1
 0 975 l 1,21,-1
 162 975 l 1,22,-1
 162 117 l 1,23,-1
 557 117 l 1,24,-1
 557 786 l 1,25,-1
 559 826 l 1,26,-1
 573 858 l 1,0,1
935 121 m 2,27,-1
 958 139 l 1,28,-1
 972 172 l 1,29,-1
 976 232 l 1,30,-1
 976 645 l 2,31,32
 976 721 976 721 966 744 c 1,33,34
 959 782 959 782 939.5 804.5 c 128,-1,35
 920 827 920 827 897.5 840 c 128,-1,36
 875 853 875 853 837 858 c 1,37,38
 805 858 805 858 783 847 c 1,39,40
 766 842 766 842 749 819 c 1,41,-1
 726 781 l 1,42,-1
 721 742 l 1,43,-1
 721 117 l 1,44,-1
 904 117 l 2,45,46
 931 117 931 117 935 121 c 2,27,-1
EndSplineSet
EndChar

StartChar: TamlYA
Encoding: 2991 2991 124
Width: 1382
GlyphClass: 2
Flags: W
LayerCount: 2
Fore
SplineSet
171 133 m 1,0,-1
 193 119 l 1,1,-1
 219 111 l 1,2,-1
 242 108 l 1,3,-1
 275 108 l 1,4,-1
 298 117 l 1,5,6
 322 123 322 123 346.5 142 c 128,-1,7
 371 161 371 161 390 194 c 1,8,9
 401 222 401 222 413 276 c 1,10,-1
 413 975 l 1,11,-1
 577 975 l 1,12,-1
 577 117 l 1,13,-1
 1043 117 l 1,14,-1
 1043 975 l 1,15,-1
 1202 975 l 1,16,-1
 1202 0 l 1,17,-1
 413 0 l 1,18,-1
 413 135 l 1,19,20
 394 103 394 103 367 87 c 1,21,22
 340 60 340 60 302 43 c 1,23,-1
 219 11 l 1,24,-1
 179 3 l 1,25,-1
 138 0 l 1,26,-1
 112 0 l 1,27,-1
 70 4 l 1,28,29
 44 11 44 11 32 20 c 1,30,-1
 8 57 l 1,31,-1
 0 117 l 1,32,-1
 0 975 l 1,33,-1
 158 975 l 1,34,-1
 158 160 l 1,35,-1
 171 133 l 1,0,-1
EndSplineSet
EndChar

StartChar: TamlRA
Encoding: 2992 2992 125
Width: 1038
GlyphClass: 2
Flags: W
LayerCount: 2
Fore
SplineSet
0 979 m 1,0,-1
 858 979 l 1,1,-1
 858 862 l 1,2,-1
 577 862 l 1,3,-1
 577 4 l 1,4,-1
 322 -275 l 1,5,-1
 230 -184 l 1,6,-1
 417 24 l 1,7,-1
 417 862 l 1,8,-1
 162 862 l 1,9,-1
 162 4 l 1,10,-1
 0 4 l 1,11,-1
 0 979 l 1,0,-1
EndSplineSet
Substitution2: "Single Substitution lookup 6 subtable" Taml_v_A
EndChar

StartChar: TamlRRA
Encoding: 2993 2993 126
Width: 1318
GlyphClass: 2
Flags: W
LayerCount: 2
Fore
SplineSet
233 -254 m 1,0,1
 213 -260 213 -260 197 -274 c 1,2,-1
 174 -304 l 1,3,-1
 166 -344 l 1,4,-1
 166 -529 l 1,5,-1
 0 -529 l 1,6,-1
 0 -346 l 2,7,8
 0 -299 0 -299 19 -261 c 128,-1,9
 38 -223 38 -223 68 -195 c 1,10,11
 98 -170 98 -170 159 -146 c 1,12,-1
 215 -135 l 1,13,-1
 280 -131 l 1,14,-1
 719 -133 l 2,15,16
 778 -133 778 -133 823 -111 c 1,17,18
 872 -93 872 -93 903 -49 c 1,19,20
 933 -13 933 -13 959 60 c 1,21,22
 967 100 967 100 971 134.5 c 128,-1,23
 975 169 975 169 975 214 c 2,24,-1
 975 651 l 2,25,26
 975 672 975 672 963.5 714 c 128,-1,27
 952 756 952 756 929 784 c 1,28,29
 907 822 907 822 876.5 840 c 128,-1,30
 846 858 846 858 811 863 c 1,31,-1
 778 862 l 1,32,-1
 743 847 l 2,33,34
 730 841 730 841 697 802 c 1,35,-1
 678 774 l 1,36,-1
 663 737 l 1,37,-1
 654 696 l 1,38,-1
 651 651 l 1,39,-1
 651 6 l 1,40,-1
 488 6 l 1,41,-1
 488 700 l 2,42,43
 488 742 488 742 478 768 c 128,-1,44
 468 794 468 794 450.5 816.5 c 128,-1,45
 433 839 433 839 412.5 851 c 128,-1,46
 392 863 392 863 372 863 c 0,47,48
 347 863 347 863 327 853 c 1,49,50
 308 847 308 847 276 814 c 1,51,-1
 243 768 l 1,52,-1
 233 725 l 1,53,-1
 233 6 l 1,54,-1
 70 6 l 1,55,-1
 70 725 l 2,56,57
 70 780 70 780 88 823.5 c 128,-1,58
 106 867 106 867 150 902 c 128,-1,59
 194 937 194 937 243 959 c 1,60,-1
 292 974 l 1,61,-1
 347 980 l 1,62,63
 376 980 376 980 423 967 c 1,64,65
 464 962 464 962 506 931 c 1,66,67
 545 909 545 909 572 875 c 1,68,69
 597 851 597 851 602 814 c 1,70,-1
 616 843 l 1,71,-1
 628 866 l 1,72,73
 655 913 655 913 711.5 946.5 c 128,-1,74
 768 980 768 980 836 980 c 0,75,76
 903 980 903 980 959 955 c 1,77,78
 1003 937 1003 937 1052 889 c 1,79,80
 1096 851 1096 851 1116 782 c 1,81,-1
 1132 721 l 1,82,-1
 1138 651 l 1,83,-1
 1138 165 l 1,84,-1
 1132 65 l 1,85,86
 1126 6 1126 6 1109 -21 c 1,87,88
 1085 -97 1085 -97 1030 -143.5 c 128,-1,89
 975 -190 975 -190 881.5 -218.5 c 128,-1,90
 788 -247 788 -247 695 -247 c 2,91,-1
 280 -250 l 2,92,93
 242 -250 242 -250 233 -254 c 1,0,1
EndSplineSet
EndChar

StartChar: TamlLA
Encoding: 2994 2994 127
Width: 1478
GlyphClass: 2
Flags: W
LayerCount: 2
Fore
SplineSet
839 16 m 1,0,1
 778 38 778 38 742 68.5 c 128,-1,2
 706 99 706 99 672 156 c 1,3,4
 649 213 649 213 649 276 c 2,5,-1
 649 645 l 2,6,7
 649 691 649 691 634 725 c 1,8,9
 629 746 629 746 598 790 c 1,10,11
 580 821 580 821 541 842 c 1,12,-1
 528 847 l 1,13,-1
 485 858 l 1,14,-1
 414 858 l 2,15,16
 382 858 382 858 326 840 c 1,17,18
 290 821 290 821 246 785 c 1,19,20
 203 742 203 742 180 691 c 1,21,22
 172 663 172 663 165 631 c 128,-1,23
 158 599 158 599 158 579 c 1,24,-1
 191 605 l 1,25,-1
 229 625 l 1,26,-1
 269 640 l 1,27,-1
 313 644 l 1,28,29
 356 644 356 644 386 629 c 1,30,31
 410 623 410 623 451 587 c 0,32,33
 480 562 480 562 495.5 523 c 128,-1,34
 511 484 511 484 511 439 c 2,35,-1
 511 232 l 2,36,37
 511 190 511 190 491 154.5 c 128,-1,38
 471 119 471 119 427 73 c 1,39,40
 383 38 383 38 340.5 19 c 128,-1,41
 298 0 298 0 255 0 c 0,42,43
 198 0 198 0 157 15 c 1,44,45
 112 27 112 27 74 61 c 0,46,47
 40 91 40 91 20 135.5 c 128,-1,48
 0 180 0 180 0 232 c 2,49,-1
 0 531 l 2,50,51
 0 607 0 607 30.5 690 c 128,-1,52
 61 773 61 773 122 840 c 128,-1,53
 183 907 183 907 261.5 941 c 128,-1,54
 340 975 340 975 414 975 c 2,55,-1
 511 975 l 2,56,57
 576 975 576 975 629 954 c 1,58,59
 686 935 686 935 721 895 c 1,60,61
 757 858 757 858 782 789 c 1,62,63
 786 774 786 774 797.5 731.5 c 128,-1,64
 809 689 809 689 809 645 c 2,65,-1
 809 276 l 2,66,67
 809 237 809 237 820 211.5 c 128,-1,68
 831 186 831 186 855 161 c 1,69,70
 882 141 882 141 908 131 c 1,71,-1
 935 123 l 1,72,-1
 974 121 l 1,73,-1
 1031 127 l 1,74,75
 1057 133 1057 133 1078 150.5 c 128,-1,76
 1099 168 1099 168 1121 205 c 1,77,78
 1136 248 1136 248 1136 276 c 2,79,-1
 1136 645 l 2,80,81
 1136 701 1136 701 1122.5 741.5 c 128,-1,82
 1109 782 1109 782 1079 828 c 1,83,84
 1068 843 1068 843 1023 887 c 1,85,86
 1000 903 1000 903 947 926 c 1,87,-1
 1021 1022 l 1,88,89
 1095 1003 1095 1003 1132 969 c 1,90,91
 1157 953 1157 953 1221 883 c 1,92,93
 1246 850 1246 850 1278 773 c 1,94,-1
 1293 712 l 1,95,-1
 1298 645 l 1,96,-1
 1298 298 l 2,97,98
 1298 236 1298 236 1276.5 188.5 c 128,-1,99
 1255 141 1255 141 1201 87 c 1,100,101
 1160 51 1160 51 1092 20 c 1,102,-1
 1035 7 l 1,103,-1
 972 0 l 1,104,-1
 898 3 l 2,105,106
 880 3 880 3 839 16 c 1,0,1
158 209 m 1,107,-1
 165 172 l 1,108,-1
 183 144 l 1,109,110
 195 131 195 131 215 125 c 1,111,-1
 253 121 l 1,112,113
 279 121 279 121 287 125 c 2,114,-1
 318 144 l 1,115,-1
 339 172 l 1,116,-1
 347 209 l 1,117,-1
 347 390 l 2,118,119
 347 413 347 413 339 427 c 1,120,-1
 318 454 l 1,121,-1
 287 474 l 1,122,-1
 253 480 l 1,123,-1
 214 474 l 1,124,-1
 185 458 l 1,125,-1
 165 430 l 1,126,127
 158 413 158 413 158 390 c 2,128,-1
 158 209 l 1,107,-1
EndSplineSet
EndChar

StartChar: TamlLLA
Encoding: 2995 2995 128
Width: 1734
GlyphClass: 2
Flags: W
LayerCount: 2
Fore
SplineSet
802 905 m 1,0,-1
 854 942 l 1,1,2
 882 958 882 958 913 967 c 1,3,-1
 977 975 l 1,4,-1
 1554 975 l 1,5,-1
 1554 858 l 1,6,-1
 1277 858 l 1,7,-1
 1277 0 l 1,8,-1
 1117 0 l 1,9,-1
 1117 858 l 1,10,-1
 996 858 l 2,11,12
 965 858 965 858 946 847 c 1,13,14
 921 842 921 842 901.5 823 c 128,-1,15
 882 804 882 804 870 777 c 1,16,-1
 862 720 l 1,17,-1
 862 0 l 1,18,-1
 696 0 l 1,19,-1
 696 671 l 2,20,21
 696 698 696 698 684 737.5 c 128,-1,22
 672 777 672 777 649 800 c 1,23,24
 631 826 631 826 611 835 c 1,25,26
 596 846 596 846 558 858 c 1,27,-1
 418 858 l 2,28,29
 378 858 378 858 367 854 c 1,30,31
 351 854 351 854 317 838 c 1,32,33
 284 826 284 826 246 789 c 1,34,35
 214 762 214 762 184 697 c 1,36,37
 163 621 163 621 163 579 c 1,38,39
 185 601 185 601 229 621 c 128,-1,40
 273 641 273 641 313 641 c 0,41,42
 357 641 357 641 386 628 c 1,43,44
 421 615 421 615 450.5 589.5 c 128,-1,45
 480 564 480 564 495.5 524 c 128,-1,46
 511 484 511 484 511 439 c 2,47,-1
 511 232 l 2,48,49
 511 180 511 180 491 136 c 128,-1,50
 471 92 471 92 431 63.5 c 128,-1,51
 391 35 391 35 347 20 c 1,52,-1
 302 11 l 1,53,-1
 252 7 l 1,54,55
 208 7 208 7 159.5 19 c 128,-1,56
 111 31 111 31 79.5 59.5 c 128,-1,57
 48 88 48 88 18 133 c 1,58,59
 0 176 0 176 0 232 c 2,60,-1
 0 531 l 2,61,62
 0 576 0 576 6 612.5 c 128,-1,63
 12 649 12 649 28 689 c 1,64,65
 61 762 61 762 123 835 c 1,66,67
 177 897 177 897 257 936 c 128,-1,68
 337 975 337 975 418 975 c 2,69,-1
 532 975 l 2,70,71
 572 975 572 975 596 967 c 1,72,-1
 660 942 l 2,73,74
 691 930 691 930 717 903 c 1,75,76
 741 885 741 885 762 858 c 1,77,-1
 802 905 l 1,0,-1
220 478 m 1,78,-1
 192 458 l 1,79,-1
 169 424 l 1,80,-1
 163 390 l 1,81,-1
 163 209 l 1,82,-1
 169 169 l 1,83,-1
 189 141 l 1,84,85
 204 129 204 129 218 123 c 1,86,-1
 256 119 l 1,87,88
 282 119 282 119 290 123 c 2,89,-1
 322 141 l 1,90,-1
 343 169 l 1,91,-1
 351 209 l 1,92,-1
 351 390 l 2,93,94
 351 407 351 407 344 424.5 c 128,-1,95
 337 442 337 442 321 456 c 1,96,-1
 288 478 l 1,97,-1
 256 487 l 1,98,99
 237 487 237 487 220 478 c 1,78,-1
EndSplineSet
EndChar

StartChar: TamlLLLA
Encoding: 2996 2996 129
Width: 1316
GlyphClass: 2
Flags: W
LayerCount: 2
Fore
SplineSet
966 753 m 1,0,1
 959 791 959 791 939.5 813.5 c 128,-1,2
 920 836 920 836 897.5 849 c 128,-1,3
 875 862 875 862 837 867 c 1,4,5
 805 867 805 867 783 856 c 1,6,7
 766 851 766 851 749 828 c 1,8,-1
 726 790 l 1,9,-1
 721 751 l 1,10,-1
 721 126 l 1,11,-1
 904 126 l 2,12,13
 931 126 931 126 935 130 c 2,14,-1
 958 147 l 1,15,-1
 972 181 l 1,16,-1
 976 241 l 1,17,-1
 976 654 l 2,18,19
 976 730 976 730 966 753 c 1,0,1
1092 -129 m 1,20,-1
 1092 -246 l 1,21,-1
 721 -246 l 1,22,23
 702 -399 702 -399 597 -485 c 128,-1,24
 492 -571 492 -571 302 -571 c 1,25,-1
 246 -569 l 2,26,27
 218 -569 218 -569 185 -552 c 1,28,-1
 140 -535 l 1,29,30
 120 -526 120 -526 97 -506 c 1,31,32
 55 -475 55 -475 24 -432 c 1,33,34
 0 -390 0 -390 0 -341 c 2,35,-1
 0 -293 l 2,36,37
 0 -261 0 -261 8.5 -235 c 128,-1,38
 17 -209 17 -209 39 -192 c 1,39,-1
 57 -173 l 1,40,-1
 77 -162 l 1,41,-1
 96 -154 l 1,42,-1
 114 -152 l 1,43,-1
 185 -246 l 1,44,-1
 162 -270 l 1,45,-1
 157 -279 l 1,46,-1
 153 -285 l 1,47,-1
 149 -293 l 1,48,-1
 145 -310 l 1,49,-1
 142 -327 l 1,50,51
 142 -354 142 -354 153 -373 c 1,52,-1
 192 -418 l 1,53,-1
 212 -432 l 1,54,-1
 242 -447 l 1,55,-1
 302 -456 l 1,56,57
 382 -456 382 -456 434 -431 c 128,-1,58
 486 -406 486 -406 515 -353 c 1,59,-1
 572 -228 l 1,60,61
 596 -185 596 -185 607 -177 c 1,62,-1
 580 -142 l 1,63,-1
 565 -101 l 1,64,-1
 556 9 l 1,65,-1
 0 9 l 1,66,-1
 0 984 l 1,67,-1
 162 984 l 1,68,-1
 162 126 l 1,69,-1
 557 126 l 1,70,-1
 557 795 l 1,71,-1
 559 835 l 1,72,-1
 573 867 l 1,73,74
 592 898 592 898 626 924.5 c 128,-1,75
 660 951 660 951 717 969 c 1,76,-1
 771 980 l 1,77,-1
 837 984 l 1,78,79
 908 984 908 984 963 963 c 1,80,81
 1016 947 1016 947 1053 908 c 1,82,83
 1091 874 1091 874 1115 799 c 1,84,-1
 1129 729 l 1,85,-1
 1136 654 l 1,86,-1
 1136 193 l 2,87,88
 1136 147 1136 147 1127.5 123.5 c 128,-1,89
 1119 100 1119 100 1100 64 c 1,90,-1
 1045 24 l 1,91,-1
 976 9 l 1,92,-1
 720 9 l 1,93,-1
 725 -81 l 1,94,-1
 740 -108 l 1,95,-1
 766 -128 l 1,96,-1
 1092 -129 l 1,20,-1
EndSplineSet
EndChar

StartChar: TamlVA
Encoding: 2997 2997 130
Width: 1620
GlyphClass: 2
Flags: W
LayerCount: 2
Fore
SplineSet
680 190 m 1,0,-1
 707 232 l 1,1,-1
 736 280 l 1,2,-1
 753 329 l 1,3,-1
 775 386 l 1,4,-1
 784 434 l 1,5,-1
 788 487 l 1,6,-1
 788 523 l 1,7,-1
 784 575 l 1,8,9
 784 603 784 603 767 645 c 1,10,11
 748 717 748 717 707 764 c 1,12,13
 669 812 669 812 623 834 c 1,14,15
 580 858 580 858 532 858 c 2,16,-1
 418 858 l 2,17,18
 384 858 384 858 372 854 c 2,19,-1
 321 834 l 2,20,21
 286 821 286 821 249 784.5 c 128,-1,22
 212 748 212 748 184 694 c 1,23,24
 163 640 163 640 163 603 c 1,25,26
 188 628 188 628 218.5 640 c 128,-1,27
 249 652 249 652 288 652 c 1,28,-1
 334 649 l 2,29,30
 349 649 349 649 372 636 c 1,31,32
 410 619 410 619 439 588 c 1,33,34
 467 564 467 564 489 522 c 128,-1,35
 511 480 511 480 511 439 c 2,36,-1
 511 232 l 2,37,38
 511 190 511 190 491 154.5 c 128,-1,39
 471 119 471 119 427 73 c 1,40,41
 384 37 384 37 341 18.5 c 128,-1,42
 298 0 298 0 256 0 c 0,43,44
 199 0 199 0 157 15 c 1,45,46
 112 27 112 27 75 61 c 1,47,48
 40 91 40 91 20 135.5 c 128,-1,49
 0 180 0 180 0 232 c 2,50,-1
 0 531 l 1,51,-1
 6 617 l 1,52,-1
 14 656 l 1,53,-1
 28 698 l 1,54,55
 59 773 59 773 117.5 837 c 128,-1,56
 176 901 176 901 253 938 c 128,-1,57
 330 975 330 975 418 975 c 2,58,-1
 558 975 l 2,59,60
 646 975 646 975 715 941 c 1,61,62
 767 919 767 919 841 842 c 1,63,64
 890 785 890 785 920.5 692 c 128,-1,65
 951 599 951 599 951 487 c 0,66,67
 951 447 951 447 940 388 c 128,-1,68
 929 329 929 329 908 289 c 2,69,-1
 882 240 l 1,70,71
 868 209 868 209 854 196 c 1,72,-1
 821 152 l 1,73,-1
 788 117 l 1,74,-1
 1277 117 l 1,75,-1
 1277 975 l 1,76,-1
 1440 975 l 1,77,-1
 1440 0 l 1,78,-1
 626 0 l 1,79,-1
 626 135 l 1,80,81
 653 153 653 153 680 190 c 1,0,-1
352 390 m 2,82,83
 352 413 352 413 344 430 c 1,84,-1
 325 458 l 1,85,86
 313 470 313 470 294 476 c 1,87,-1
 260 482 l 1,88,-1
 223 476 l 1,89,-1
 192 458 l 1,90,-1
 169 430 l 1,91,92
 163 413 163 413 163 390 c 2,93,-1
 163 209 l 1,94,-1
 169 169 l 1,95,-1
 189 141 l 1,96,97
 204 129 204 129 219 123 c 1,98,-1
 256 119 l 1,99,100
 282 119 282 119 290 123 c 2,101,-1
 322 141 l 1,102,-1
 344 169 l 1,103,-1
 352 209 l 1,104,-1
 352 390 l 2,82,83
EndSplineSet
EndChar

StartChar: TamlSSA
Encoding: 2999 2999 131
Width: 1897
GlyphClass: 2
Flags: W
LayerCount: 2
Fore
SplineSet
951 -503 m 1,0,-1
 1184 8 l 1,1,-1
 625 8 l 1,2,-1
 625 125 l 1,3,4
 647 139 647 139 678 176 c 1,5,-1
 741 276 l 1,6,-1
 757 317 l 1,7,-1
 778 386 l 1,8,-1
 786 442 l 1,9,-1
 788 472 l 1,10,-1
 788 508 l 1,11,-1
 784 560 l 1,12,13
 784 591 784 591 766 633 c 1,14,15
 748 709 748 709 706 758 c 1,16,17
 669 813 669 813 623 839 c 1,18,-1
 580 858 l 1,19,-1
 532 866 l 1,20,-1
 418 866 l 2,21,22
 379 866 379 866 341 850 c 128,-1,23
 303 834 303 834 252 786 c 1,24,25
 206 741 206 741 184 690 c 1,26,-1
 169 640 l 1,27,-1
 162 587 l 1,28,29
 185 609 185 609 229 629 c 128,-1,30
 273 649 273 649 313 649 c 0,31,32
 357 649 357 649 386 636 c 1,33,34
 420 623 420 623 450 597.5 c 128,-1,35
 480 572 480 572 495.5 532 c 128,-1,36
 511 492 511 492 511 447 c 2,37,-1
 511 240 l 2,38,39
 511 190 511 190 491 151 c 128,-1,40
 471 112 471 112 418 73 c 1,41,-1
 374 45 l 1,42,-1
 326 23 l 1,43,-1
 277 12 l 1,44,-1
 230 8 l 1,45,46
 184 8 184 8 136 27 c 1,47,48
 105 43 105 43 65 77 c 1,49,50
 35 112 35 112 16 153 c 1,51,52
 0 198 0 198 0 240 c 2,53,-1
 0 539 l 1,54,-1
 5 625 l 1,55,-1
 13 664 l 1,56,-1
 28 706 l 1,57,58
 59 781 59 781 117.5 845 c 128,-1,59
 176 909 176 909 253 946 c 128,-1,60
 330 983 330 983 418 983 c 2,61,-1
 557 983 l 2,62,63
 647 983 647 983 720 945 c 128,-1,64
 793 907 793 907 850 829 c 1,65,66
 893 774 893 774 923.5 677 c 128,-1,67
 954 580 954 580 954 492 c 1,68,-1
 951 432 l 1,69,-1
 951 401 l 1,70,-1
 942 355 l 1,71,72
 938 327 938 327 913 280 c 1,73,74
 898 241 898 241 863 196 c 1,75,-1
 788 125 l 1,76,-1
 1232 125 l 1,77,-1
 1347 355 l 1,78,-1
 1290 363 l 2,79,80
 1266 367 1266 367 1229.5 384.5 c 128,-1,81
 1193 402 1193 402 1156 433 c 128,-1,82
 1119 464 1119 464 1087 516 c 1,83,84
 1068 560 1068 560 1068 611 c 2,85,-1
 1068 774 l 2,86,87
 1068 825 1068 825 1083 855 c 1,88,89
 1088 874 1088 874 1100 886 c 2,90,-1
 1129 918 l 1,91,92
 1153 942 1153 942 1197 962.5 c 128,-1,93
 1241 983 1241 983 1277 983 c 2,94,-1
 1391 983 l 2,95,96
 1430 983 1430 983 1460.5 969.5 c 128,-1,97
 1491 956 1491 956 1519 927 c 1,98,99
 1548 905 1548 905 1560 873.5 c 128,-1,100
 1572 842 1572 842 1579 794 c 1,101,-1
 1579 539 l 2,102,103
 1579 526 1579 526 1575 516 c 1,104,105
 1575 496 1575 496 1567 480 c 1,106,107
 1560 459 1560 459 1550 447 c 2,108,-1
 1532 423 l 1,109,110
 1567 407 1567 407 1603 366 c 2,111,-1
 1633 333 l 1,112,-1
 1667 290 l 1,113,114
 1685 261 1685 261 1704 214 c 1,115,-1
 1717 143 l 1,116,-1
 1717 20 l 1,117,-1
 1716 15 l 1,118,-1
 1709 11 l 1,119,-1
 1695 8 l 1,120,-1
 1347 8 l 1,121,-1
 1092 -549 l 1,122,-1
 951 -503 l 1,0,-1
282 131 m 1,123,-1
 314 153 l 2,124,125
 333 165 333 165 339 180 c 1,126,-1
 351 217 l 1,127,-1
 351 398 l 2,128,129
 351 420 351 420 343 435 c 1,130,-1
 322 462 l 1,131,-1
 291 482 l 1,132,-1
 256 488 l 1,133,-1
 220 482 l 1,134,-1
 189 464 l 1,135,-1
 169 435 l 1,136,137
 162 423 162 423 162 398 c 2,138,-1
 162 217 l 2,139,140
 162 200 162 200 172 184 c 1,141,-1
 196 153 l 1,142,-1
 226 131 l 1,143,-1
 256 125 l 1,144,-1
 282 131 l 1,123,-1
1560 168 m 1,145,-1
 1554 210 l 1,146,-1
 1536 249 l 1,147,-1
 1511 282 l 1,148,-1
 1487 306 l 1,149,-1
 1391 125 l 1,150,-1
 1554 125 l 1,151,-1
 1560 168 l 1,145,-1
1407 823 m 0,152,153
 1401 835 1401 835 1387 843 c 1,154,-1
 1355 858 l 1,155,156
 1343 865 1343 865 1324 865 c 0,157,158
 1290 865 1290 865 1285 861 c 1,159,160
 1273 861 1273 861 1258 846 c 1,161,162
 1246 839 1246 839 1237 825 c 1,163,-1
 1232 794 l 1,164,-1
 1232 561 l 1,165,-1
 1237 535 l 1,166,-1
 1260 512 l 1,167,-1
 1293 499 l 1,168,-1
 1327 495 l 1,169,170
 1354 495 1354 495 1361 499 c 2,171,-1
 1389 511 l 1,172,173
 1403 522 1403 522 1407 534 c 2,174,-1
 1415 561 l 1,175,-1
 1415 794 l 2,176,177
 1415 808 1415 808 1407 823 c 0,152,153
EndSplineSet
EndChar

StartChar: TamlSA
Encoding: 3000 3000 132
Width: 1968
GlyphClass: 2
Flags: W
LayerCount: 2
Fore
SplineSet
1136 671 m 2,0,1
 1136 716 1136 716 1125 742 c 1,2,3
 1119 766 1119 766 1092 801 c 1,4,5
 1079 821 1079 821 1060.5 833.5 c 128,-1,6
 1042 846 1042 846 996 858 c 1,7,-1
 947 858 l 2,8,9
 921 858 921 858 899 845 c 128,-1,10
 877 832 877 832 854 804 c 1,11,-1
 837 781 l 1,12,-1
 820 748 l 1,13,-1
 809 695 l 1,14,-1
 809 0 l 1,15,-1
 649 0 l 1,16,-1
 649 628 l 2,17,18
 649 668 649 668 639 695 c 1,19,20
 633 724 633 724 603 773 c 0,21,22
 577 817 577 817 552 835 c 128,-1,23
 527 853 527 853 486 858 c 1,24,-1
 414 858 l 2,25,26
 378 858 378 858 370 854 c 2,27,-1
 326 836 l 2,28,29
 288 820 288 820 248 778 c 1,30,31
 233 764 233 764 213.5 736.5 c 128,-1,32
 194 709 194 709 183 686.5 c 128,-1,33
 172 664 172 664 165.5 642.5 c 128,-1,34
 159 621 159 621 159 603 c 1,35,-1
 188 619 l 1,36,-1
 233 633 l 1,37,-1
 288 641 l 1,38,-1
 347 645 l 1,39,40
 386 645 386 645 409 629 c 1,41,42
 428 619 428 619 455 587 c 0,43,44
 467 572 467 572 475.5 559 c 128,-1,45
 484 546 484 546 496 519 c 1,46,47
 511 468 511 468 511 439 c 2,48,-1
 511 232 l 2,49,50
 511 178 511 178 491 137 c 128,-1,51
 471 96 471 96 434 65 c 128,-1,52
 397 34 397 34 349 19 c 1,53,-1
 305 8 l 1,54,-1
 253 4 l 1,55,56
 212 4 212 4 168 17 c 128,-1,57
 124 30 124 30 80 60 c 1,58,-1
 49 91 l 1,59,-1
 20 133 l 1,60,61
 0 194 0 194 0 232 c 2,62,-1
 0 531 l 1,63,-1
 6 617 l 1,64,-1
 14 656 l 1,65,-1
 28 699 l 1,66,67
 59 774 59 774 114 840.5 c 128,-1,68
 169 907 169 907 251 941 c 128,-1,69
 333 975 333 975 414 975 c 2,70,-1
 511 975 l 1,71,-1
 542 973 l 1,72,-1
 560 967 l 1,73,-1
 584 957 l 1,74,75
 600 953 600 953 635 922 c 0,76,77
 657 903 657 903 679 873 c 1,78,-1
 717 809 l 1,79,-1
 736 838 l 1,80,-1
 760 869 l 1,81,-1
 789 895 l 1,82,-1
 825 923 l 1,83,-1
 858 942 l 1,84,-1
 897 957 l 1,85,-1
 938 969 l 1,86,-1
 972 975 l 1,87,-1
 1044 975 l 2,88,89
 1101 975 1101 975 1141 954 c 1,90,91
 1187 935 1187 935 1224 895 c 1,92,93
 1260 862 1260 862 1280 802 c 128,-1,94
 1300 742 1300 742 1300 695 c 2,95,-1
 1300 256 l 2,96,97
 1300 222 1300 222 1310 195.5 c 128,-1,98
 1320 169 1320 169 1336 154 c 128,-1,99
 1352 139 1352 139 1387 127 c 1,100,-1
 1445 119 l 1,101,102
 1483 119 1483 119 1510 129 c 1,103,-1
 1564 160 l 2,104,105
 1594 178 1594 178 1607 210 c 2,106,-1
 1620 241 l 1,107,-1
 1624 276 l 1,108,-1
 1624 645 l 2,109,110
 1624 701 1624 701 1611 741.5 c 128,-1,111
 1598 782 1598 782 1567 828 c 0,112,113
 1556 843 1556 843 1511 887 c 1,114,115
 1489 903 1489 903 1435 926 c 1,116,-1
 1507 1022 l 1,117,118
 1576 1003 1576 1003 1620 969 c 1,119,120
 1669 938 1669 938 1709 885 c 1,121,122
 1736 847 1736 847 1766 773 c 1,123,-1
 1781 712 l 1,124,-1
 1788 645 l 1,125,-1
 1788 298 l 2,126,127
 1788 229 1788 229 1759 175 c 1,128,129
 1744 141 1744 141 1679 77 c 1,130,131
 1629 42 1629 42 1570 22.5 c 128,-1,132
 1511 3 1511 3 1445 3 c 1,133,-1
 1381 4 l 1,134,-1
 1320 16 l 1,135,136
 1281 30 1281 30 1229 65 c 1,137,138
 1189 100 1189 100 1159 156 c 1,139,140
 1136 213 1136 213 1136 276 c 2,141,-1
 1136 671 l 2,0,1
286 123 m 1,142,-1
 314 141 l 1,143,-1
 339 175 l 1,144,-1
 347 209 l 1,145,-1
 347 390 l 2,146,147
 347 413 347 413 339 427 c 1,148,-1
 318 454 l 1,149,-1
 288 474 l 1,150,-1
 253 480 l 1,151,-1
 214 474 l 1,152,-1
 185 458 l 1,153,-1
 165 430 l 1,154,155
 159 413 159 413 159 390 c 2,156,-1
 159 209 l 1,157,-1
 165 175 l 1,158,159
 172 153 172 153 188 144 c 2,160,-1
 221 123 l 1,161,-1
 256 117 l 1,162,-1
 286 123 l 1,142,-1
EndSplineSet
EndChar

StartChar: TamlHA
Encoding: 3001 3001 133
Width: 2362
GlyphClass: 2
Flags: W
LayerCount: 2
Fore
SplineSet
626 6 m 1,0,-1
 626 123 l 1,1,2
 653 147 653 147 677 174 c 128,-1,3
 701 201 701 201 737 272 c 1,4,-1
 776 375 l 1,5,6
 789 424 789 424 789 470 c 2,7,-1
 789 506 l 1,8,-1
 785 558 l 1,9,10
 785 588 785 588 766 631 c 1,11,12
 748 706 748 706 707 756 c 1,13,14
 671 810 671 810 623 837 c 1,15,-1
 580 855 l 1,16,-1
 534 863 l 1,17,-1
 415 863 l 2,18,19
 375 863 375 863 338 847 c 128,-1,20
 301 831 301 831 248 784 c 1,21,22
 203 738 203 738 180 688 c 1,23,-1
 165 637 l 1,24,-1
 160 584 l 1,25,26
 181 607 181 607 225 627 c 128,-1,27
 269 647 269 647 310 647 c 0,28,29
 352 647 352 647 386.5 633.5 c 128,-1,30
 421 620 421 620 451 594.5 c 128,-1,31
 481 569 481 569 496 529.5 c 128,-1,32
 511 490 511 490 511 444 c 2,33,-1
 511 261 l 2,34,35
 511 193 511 193 489 157 c 1,36,37
 470 113 470 113 425 75 c 0,38,39
 389 44 389 44 337 25 c 1,40,-1
 284 16 l 1,41,-1
 234 12 l 1,42,43
 185 12 185 12 144 24 c 128,-1,44
 103 36 103 36 71 65 c 1,45,46
 32 93 32 93 16 137 c 128,-1,47
 0 181 0 181 0 237 c 2,48,-1
 0 536 l 2,49,50
 0 623 0 623 27 693.5 c 128,-1,51
 54 764 54 764 109.5 831 c 128,-1,52
 165 898 165 898 245 939 c 128,-1,53
 325 980 325 980 415 980 c 2,54,-1
 534 980 l 2,55,56
 619 980 619 980 692.5 949.5 c 128,-1,57
 766 919 766 919 828 858 c 1,58,59
 878 801 878 801 915 698 c 1,60,-1
 939 597 l 1,61,-1
 947 492 l 1,62,-1
 946 447 l 2,63,64
 946 422 946 422 938 405 c 1,65,-1
 919 333 l 1,66,-1
 901 280 l 2,67,68
 882 224 882 224 852 188 c 1,69,70
 836 158 836 158 789 123 c 1,71,-1
 1111 123 l 1,72,-1
 1111 725 l 2,73,74
 1111 772 1111 772 1129.5 815.5 c 128,-1,75
 1148 859 1148 859 1191 901 c 1,76,77
 1232 935 1232 935 1287 959 c 1,78,-1
 1336 974 l 1,79,-1
 1392 980 l 1,80,81
 1426 980 1426 980 1479 967 c 1,82,83
 1522 962 1522 962 1559 931 c 1,84,85
 1598 906 1598 906 1620 874 c 1,86,87
 1647 847 1647 847 1647 814 c 1,88,-1
 1659 843 l 1,89,-1
 1671 866 l 1,90,91
 1701 915 1701 915 1753 947 c 1,92,93
 1781 963 1781 963 1809 971.5 c 128,-1,94
 1837 980 1837 980 1877 980 c 0,95,96
 1934 980 1934 980 1956 976 c 128,-1,97
 1978 972 1978 972 2013 954 c 1,98,99
 2047 941 2047 941 2096 890 c 1,100,101
 2139 847 2139 847 2159 782 c 1,102,-1
 2176 721 l 1,103,-1
 2182 651 l 1,104,-1
 2182 165 l 1,105,-1
 2176 67 l 2,106,107
 2174 44 2174 44 2168.5 23 c 128,-1,108
 2163 2 2163 2 2154 -17 c 1,109,110
 2128 -93 2128 -93 2079.5 -139.5 c 128,-1,111
 2031 -186 2031 -186 1937 -221 c 1,112,113
 1826 -247 1826 -247 1739 -247 c 2,114,-1
 437 -250 l 1,115,-1
 394 -256 l 1,116,117
 375 -262 375 -262 358 -280 c 1,118,-1
 341 -296 l 1,119,-1
 332 -314 l 1,120,-1
 325 -327 l 1,121,-1
 322 -344 l 1,122,-1
 322 -529 l 1,123,-1
 160 -529 l 1,124,-1
 160 -346 l 2,125,126
 160 -288 160 -288 175.5 -261 c 128,-1,127
 191 -234 191 -234 230 -190 c 1,128,129
 257 -170 257 -170 318 -146 c 1,130,-1
 375 -135 l 1,131,-1
 437 -131 l 1,132,-1
 1763 -133 l 2,133,134
 1890 -133 1890 -133 1954 -45 c 128,-1,135
 2018 43 2018 43 2018 214 c 2,136,-1
 2018 651 l 2,137,138
 2018 698 2018 698 2009 718 c 2,139,-1
 1995 752 l 1,140,-1
 1991 761 l 1,141,-1
 1979 784 l 1,142,143
 1961 821 1961 821 1925 839 c 1,144,145
 1894 858 1894 858 1854 863 c 1,146,147
 1815 863 1815 863 1789 851 c 128,-1,148
 1763 839 1763 839 1732 805 c 1,149,-1
 1720 782 l 1,150,-1
 1704 741 l 1,151,-1
 1693 696 l 1,152,-1
 1692 651 l 1,153,-1
 1692 6 l 1,154,-1
 1533 6 l 1,155,-1
 1533 700 l 1,156,-1
 1526 761 l 1,157,-1
 1510 809 l 1,158,159
 1498 826 1498 826 1477 841 c 0,160,161
 1473 843 1473 843 1451.5 851 c 128,-1,162
 1430 859 1430 859 1416 863 c 1,163,164
 1396 863 1396 863 1358 851 c 1,165,166
 1342 843 1342 843 1313 814 c 1,167,-1
 1285 768 l 1,168,-1
 1277 725 l 1,169,-1
 1277 6 l 1,170,-1
 626 6 l 1,0,-1
345 395 m 2,171,172
 345 418 345 418 337 432 c 1,173,-1
 317 459 l 1,174,-1
 288 479 l 1,175,176
 276 486 276 486 253 486 c 1,177,-1
 215 479 l 1,178,-1
 185 463 l 1,179,-1
 165 435 l 1,180,181
 160 418 160 418 160 395 c 2,182,-1
 160 214 l 1,183,-1
 165 174 l 1,184,-1
 184 147 l 1,185,186
 199 135 199 135 212 128 c 1,187,-1
 249 124 l 1,188,-1
 284 131 l 1,189,-1
 317 149 l 1,190,-1
 337 177 l 1,191,-1
 345 214 l 1,192,-1
 345 395 l 2,171,172
EndSplineSet
EndChar

StartChar: Taml_v_A
Encoding: 3006 3006 134
Width: 1038
GlyphClass: 2
Flags: W
LayerCount: 2
Fore
SplineSet
577 0 m 1,0,-1
 417 0 l 1,1,-1
 417 858 l 1,2,-1
 162 858 l 1,3,-1
 162 0 l 1,4,-1
 0 0 l 1,5,-1
 0 975 l 1,6,-1
 858 975 l 1,7,-1
 858 858 l 1,8,-1
 577 858 l 1,9,-1
 577 0 l 1,0,-1
EndSplineSet
EndChar

StartChar: Taml_v_I
Encoding: 3007 3007 135
Width: 589
GlyphClass: 2
Flags: W
LayerCount: 2
Fore
SplineSet
-727 975 m 1,0,-1
 -744 997 l 1,1,-1
 -758 1025 l 1,2,-1
 -768 1055 l 1,3,-1
 -771 1089 l 1,4,-1
 -771 1138 l 2,5,6
 -771 1211 -771 1211 -740.5 1272.5 c 128,-1,7
 -710 1334 -710 1334 -652.5 1379 c 128,-1,8
 -595 1424 -595 1424 -511 1459 c 1,9,-1
 -428 1479 l 1,10,-1
 -356 1485 l 1,11,-1
 -235 1485 l 2,12,13
 -146 1485 -146 1485 -89 1451 c 1,14,15
 -21 1420 -21 1420 34.5 1352.5 c 128,-1,16
 90 1285 90 1285 122.5 1203 c 128,-1,17
 155 1121 155 1121 155 1021 c 2,18,-1
 155 0 l 1,19,-1
 -5 0 l 1,20,-1
 -5 1045 l 1,21,-1
 -9 1089 l 1,22,23
 -9 1124 -9 1124 -29 1173 c 1,24,25
 -45 1223 -45 1223 -89 1281 c 0,26,27
 -116 1315 -116 1315 -164 1342 c 1,28,-1
 -203 1358 l 1,29,30
 -222 1364 -222 1364 -260 1368 c 1,31,-1
 -356 1368 l 1,32,-1
 -394 1367 l 2,33,34
 -410 1367 -410 1367 -444 1350 c 1,35,36
 -482 1338 -482 1338 -525 1297 c 1,37,38
 -566 1262 -566 1262 -591 1215 c 1,39,40
 -611 1169 -611 1169 -611 1138 c 2,41,-1
 -611 1089 l 1,42,-1
 -609 1056 l 1,43,-1
 -599 1025 l 1,44,-1
 -585 997 l 1,45,-1
 -565 975 l 1,46,-1
 -727 975 l 1,0,-1
EndSplineSet
Substitution2: "Single Substitution lookup 6 subtable" glyph228
EndChar

StartChar: Taml_v_II
Encoding: 3008 3008 136
Width: 438
GlyphClass: 2
Flags: W
LayerCount: 2
Fore
SplineSet
-133 972 m 2,0,1
 -133 945 -133 945 -129 941 c 2,2,-1
 -113 918 l 1,3,-1
 -91 904 l 1,4,-1
 -64 900 l 1,5,-1
 -37 904 l 1,6,-1
 -15 918 l 1,7,-1
 1 941 l 1,8,-1
 8 972 l 1,9,-1
 8 1014 l 2,10,11
 8 1035 8 1035 4 1043 c 1,12,13
 1 1055 1 1055 -7 1059 c 1,14,-1
 -29 1074 l 1,15,-1
 -63 1082 l 1,16,-1
 -91 1078 l 1,17,-1
 -101 1074 l 1,18,-1
 -113 1063 l 1,19,-1
 -129 1043 l 1,20,-1
 -133 1014 l 1,21,-1
 -133 972 l 2,0,1
-503 670 m 1,22,-1
 -516 683 l 1,23,-1
 -526 704 l 1,24,-1
 -537 728 l 1,25,-1
 -551 757 l 1,26,-1
 -569 811 l 1,27,-1
 -573 851 l 1,28,-1
 -573 925 l 2,29,30
 -573 984 -573 984 -553.5 1021.5 c 128,-1,31
 -534 1059 -534 1059 -480 1106 c 0,32,33
 -438 1143 -438 1143 -378 1161.5 c 128,-1,34
 -318 1180 -318 1180 -248 1180 c 2,35,-1
 -121 1180 l 1,36,-1
 -59 1178 l 2,37,38
 -37 1178 -37 1178 8 1163 c 1,39,40
 58 1154 58 1154 89 1128 c 1,41,42
 116 1113 116 1113 149 1067 c 1,43,-1
 165 1031 l 1,44,-1
 171 992 l 1,45,-1
 171 925 l 2,46,47
 171 898 171 898 157 876 c 1,48,49
 150 861 150 861 118 828 c 1,50,-1
 96 812 l 1,51,-1
 62 793 l 1,52,-1
 8 784 l 1,53,-1
 -84 784 l 2,54,55
 -120 784 -120 784 -159 796 c 128,-1,56
 -198 808 -198 808 -221 837 c 2,57,-1
 -240 861 l 1,58,-1
 -256 898 l 1,59,-1
 -266 972 l 1,60,61
 -266 1010 -266 1010 -262 1018 c 1,62,-1
 -248 1063 l 1,63,64
 -273 1063 -273 1063 -301 1049 c 1,65,-1
 -357 1013 l 1,66,67
 -383 990 -383 990 -394.5 966 c 128,-1,68
 -406 942 -406 942 -414 900 c 1,69,-1
 -414 851 l 1,70,-1
 -410 804 l 1,71,-1
 -391 753 l 1,72,-1
 -366 706 l 1,73,-1
 -339 670 l 1,74,-1
 -503 670 l 1,22,-1
EndSplineSet
Substitution2: "Single Substitution lookup 6 subtable" glyph230
EndChar

StartChar: Taml_v_U
Encoding: 3009 3009 137
Width: 951
GlyphClass: 2
Flags: W
LayerCount: 2
Fore
SplineSet
657 796 m 1,0,-1
 657 286 l 1,1,-1
 76 286 l 1,2,-1
 76 679 l 1,3,-1
 -365 679 l 1,4,-1
 -365 796 l 1,5,-1
 657 796 l 1,0,-1
242 679 m 1,6,-1
 242 400 l 1,7,-1
 497 400 l 1,8,-1
 497 679 l 1,9,-1
 242 679 l 1,6,-1
EndSplineSet
EndChar

StartChar: Taml_v_UU
Encoding: 3010 3010 138
Width: 1380
GlyphClass: 2
Flags: W
LayerCount: 2
Fore
SplineSet
15 107 m 1,0,1
 49 72 49 72 125 26 c 1,2,3
 188 -7 188 -7 252 -23 c 1,4,-1
 315 -37 l 1,5,-1
 386 -41 l 1,6,-1
 408 -41 l 2,7,8
 435 -41 435 -41 465 -39.5 c 128,-1,9
 495 -38 495 -38 534 -31 c 1,10,11
 603 -26 603 -26 659 -6 c 1,12,13
 769 31 769 31 834 103 c 1,14,15
 865 135 865 135 899 228 c 1,16,-1
 915 305 l 1,17,-1
 922 404 l 1,18,-1
 922 659 l 2,19,20
 922 760 922 760 893 824 c 1,21,22
 877 881 877 881 813 969 c 1,23,24
 758 1034 758 1034 690 1067 c 1,25,26
 628 1102 628 1102 549 1102 c 0,27,28
 499 1102 499 1102 476.5 1098.5 c 128,-1,29
 454 1095 454 1095 419 1079 c 1,30,31
 365 1061 365 1061 321.5 1023 c 128,-1,32
 278 985 278 985 245 922 c 1,33,34
 224 865 224 865 224 800 c 1,35,-1
 641 800 l 1,36,-1
 641 289 l 1,37,-1
 64 289 l 1,38,-1
 64 683 l 1,39,-1
 -401 683 l 1,40,-1
 -401 800 l 1,41,-1
 64 800 l 1,42,43
 64 893 64 893 94.5 976 c 128,-1,44
 125 1059 125 1059 190.5 1112.5 c 128,-1,45
 256 1166 256 1166 354 1204 c 1,46,47
 462 1236 462 1236 575 1236 c 0,48,49
 641 1236 641 1236 684.5 1229.5 c 128,-1,50
 728 1223 728 1223 781 1196 c 1,51,52
 873 1159 873 1159 950 1069 c 1,53,54
 1018 996 1018 996 1051.5 900.5 c 128,-1,55
 1085 805 1085 805 1085 708 c 2,56,-1
 1085 428 l 1,57,-1
 1079 303 l 1,58,59
 1074 249 1074 249 1056 207 c 1,60,-1
 1026 119 l 1,61,62
 1016 95 1016 95 1003 80 c 1,63,-1
 972 39 l 1,64,65
 897 -54 897 -54 742 -118 c 1,66,67
 664 -146 664 -146 579 -160 c 0,68,69
 536 -167 536 -167 489.5 -171 c 128,-1,70
 443 -175 443 -175 386 -175 c 2,71,-1
 365 -175 l 1,72,-1
 325 -172 l 1,73,-1
 293 -167 l 1,74,-1
 258 -155 l 1,75,-1
 225 -148 l 2,76,77
 206 -144 206 -144 188 -132 c 1,78,-1
 119 -95 l 1,79,80
 31 -49 31 -49 -34 11 c 1,81,82
 -88 68 -88 68 -146 148 c 1,83,-1
 -76 215 l 1,84,85
 -38 154 -38 154 15 107 c 1,0,1
479 683 m 1,86,-1
 224 683 l 1,87,-1
 224 404 l 1,88,-1
 479 404 l 1,89,-1
 479 683 l 1,86,-1
EndSplineSet
EndChar

StartChar: Taml_v_E
Encoding: 3014 3014 139
Width: 1431
GlyphClass: 2
Flags: W
LayerCount: 2
Fore
SplineSet
451 533 m 1,0,1
 463 576 463 576 492 605 c 1,2,3
 519 628 519 628 561 649 c 1,4,5
 608 670 608 670 649 670 c 2,6,-1
 717 670 l 2,7,8
 778 670 778 670 809 654 c 1,9,10
 844 641 844 641 877.5 608.5 c 128,-1,11
 911 576 911 576 927 531 c 1,12,13
 947 484 947 484 947 439 c 2,14,-1
 947 275 l 2,15,16
 947 148 947 148 854.5 74 c 128,-1,17
 762 0 762 0 577 0 c 0,18,19
 512 0 512 0 441 12 c 128,-1,20
 370 24 370 24 322 53 c 1,21,22
 215 102 215 102 145 209 c 1,23,24
 84 306 84 306 40 468 c 1,25,26
 21 549 21 549 9 637 c 1,27,28
 0 733 0 733 0 834 c 0,29,30
 0 980 0 980 42.5 1103 c 128,-1,31
 85 1226 85 1226 171 1318 c 128,-1,32
 257 1410 257 1410 372.5 1459 c 128,-1,33
 488 1508 488 1508 625 1508 c 0,34,35
 710 1508 710 1508 770 1499 c 1,36,37
 839 1493 839 1493 888 1472 c 1,38,39
 1007 1442 1007 1442 1085.5 1374 c 128,-1,40
 1164 1306 1164 1306 1207.5 1211 c 128,-1,41
 1251 1116 1251 1116 1251 997 c 2,42,-1
 1251 0 l 1,43,-1
 1088 0 l 1,44,-1
 1088 997 l 2,45,46
 1088 1085 1088 1085 1056.5 1152 c 128,-1,47
 1025 1219 1025 1219 957 1274 c 1,48,49
 900 1327 900 1327 809 1360.5 c 128,-1,50
 718 1394 718 1394 625 1394 c 256,51,52
 532 1394 532 1394 459 1353 c 1,53,54
 379 1315 379 1315 302 1226 c 0,55,56
 234 1146 234 1146 196 1044 c 128,-1,57
 158 942 158 942 158 834 c 0,58,59
 158 666 158 666 182 569 c 128,-1,60
 206 472 206 472 255 359 c 1,61,62
 290 285 290 285 352 209 c 1,63,64
 410 152 410 152 485 117 c 1,65,-1
 471 141 l 1,66,-1
 455 194 l 1,67,-1
 440 251 l 1,68,-1
 436 298 l 1,69,-1
 436 439 l 2,70,71
 436 492 436 492 451 533 c 1,0,1
779 499 m 1,72,-1
 762 525 l 1,73,-1
 730 541 l 1,74,-1
 694 548 l 1,75,-1
 660 541 l 1,76,-1
 629 525 l 2,77,78
 618 519 618 519 610 503 c 1,79,-1
 602 464 l 1,80,-1
 602 209 l 1,81,-1
 608 171 l 1,82,-1
 629 144 l 1,83,84
 642 130 642 130 657 125 c 1,85,-1
 694 118 l 1,86,87
 721 118 721 118 729 122 c 2,88,-1
 759 141 l 1,89,-1
 779 169 l 1,90,-1
 787 209 l 1,91,-1
 787 464 l 2,92,93
 787 481 787 481 779 499 c 1,72,-1
EndSplineSet
EndChar

StartChar: Taml_v_EE
Encoding: 3015 3015 140
Width: 1176
GlyphClass: 2
Flags: W
LayerCount: 2
Fore
SplineSet
857 654 m 1,0,1
 893 641 893 641 926 608.5 c 128,-1,2
 959 576 959 576 976 531 c 1,3,4
 996 484 996 484 996 439 c 2,5,-1
 996 275 l 2,6,7
 996 202 996 202 968 159 c 1,8,9
 943 110 943 110 884 69 c 1,10,-1
 839 45 l 1,11,-1
 774 16 l 1,12,-1
 716 4 l 1,13,-1
 649 0 l 1,14,-1
 557 0 l 2,15,16
 505 0 505 0 459 10 c 128,-1,17
 413 20 413 20 398 26.5 c 128,-1,18
 383 33 383 33 351 53 c 1,19,20
 260 104 260 104 173.5 217.5 c 128,-1,21
 87 331 87 331 43.5 448 c 128,-1,22
 0 565 0 565 0 694 c 2,23,-1
 0 858 l 2,24,25
 0 992 0 992 40.5 1098 c 128,-1,26
 81 1204 81 1204 174 1303 c 128,-1,27
 267 1402 267 1402 395 1456 c 0,28,29
 450 1479 450 1479 524 1493 c 1,30,-1
 598 1503 l 1,31,-1
 673 1508 l 1,32,-1
 766 1508 l 2,33,34
 812 1508 812 1508 856 1488 c 128,-1,35
 900 1468 900 1468 929.5 1437 c 128,-1,36
 959 1406 959 1406 977.5 1364 c 128,-1,37
 996 1322 996 1322 996 1277 c 2,38,-1
 996 1181 l 2,39,40
 996 1124 996 1124 982.5 1072.5 c 128,-1,41
 969 1021 969 1021 944.5 988.5 c 128,-1,42
 920 956 920 956 867 922 c 1,43,44
 806 900 806 900 766 900 c 2,45,-1
 695 900 l 1,46,-1
 646 903 l 2,47,48
 634 903 634 903 606.5 918.5 c 128,-1,49
 579 934 579 934 542 968 c 1,50,51
 514 1003 514 1003 500 1044 c 1,52,-1
 489 1089 l 1,53,-1
 485 1138 l 1,54,-1
 485 1253 l 1,55,-1
 488 1287 l 1,56,-1
 500 1330 l 1,57,-1
 514 1368 l 1,58,-1
 532 1394 l 1,59,60
 461 1375 461 1375 395 1331 c 128,-1,61
 329 1287 329 1287 281.5 1219.5 c 128,-1,62
 234 1152 234 1152 191 1044 c 1,63,64
 162 935 162 935 162 834 c 2,65,-1
 162 694 l 2,66,67
 162 597 162 597 192 499 c 0,68,69
 206 456 206 456 230 404 c 0,70,71
 242 376 242 376 253 357.5 c 128,-1,72
 264 339 264 339 283 312 c 1,73,74
 337 226 337 226 413 163 c 0,75,76
 465 121 465 121 557 92 c 1,77,78
 545 102 545 102 532 130 c 1,79,-1
 504 210 l 1,80,-1
 489 262 l 1,81,-1
 485 298 l 1,82,-1
 485 439 l 2,83,84
 485 487 485 487 497.5 531.5 c 128,-1,85
 510 576 510 576 534 599 c 128,-1,86
 558 622 558 622 607 649 c 1,87,88
 659 670 659 670 695 670 c 2,89,-1
 766 670 l 2,90,91
 827 670 827 670 857 654 c 1,0,1
828 499 m 1,92,-1
 810 525 l 1,93,-1
 779 541 l 1,94,95
 763 548 763 548 740 548 c 1,96,-1
 706 541 l 1,97,-1
 675 525 l 2,98,99
 665 519 665 519 657 503 c 1,100,-1
 649 464 l 1,101,-1
 649 209 l 1,102,-1
 655 169 l 1,103,-1
 675 141 l 1,104,105
 690 129 690 129 703 122 c 1,106,-1
 740 118 l 1,107,108
 767 118 767 118 775 122 c 2,109,-1
 808 141 l 1,110,-1
 828 169 l 1,111,-1
 836 209 l 1,112,-1
 836 464 l 2,113,114
 836 481 836 481 828 499 c 1,92,-1
770 1029 m 0,115,116
 786 1036 786 1036 802 1052 c 1,117,-1
 827 1083 l 1,118,-1
 836 1113 l 1,119,-1
 836 1297 l 2,120,121
 836 1315 836 1315 828 1330 c 1,122,-1
 808 1356 l 1,123,124
 802 1368 802 1368 775 1376 c 1,125,-1
 740 1383 l 1,126,-1
 703 1376 l 1,127,-1
 675 1360 l 1,128,-1
 655 1331 l 1,129,130
 649 1319 649 1319 649 1297 c 2,131,-1
 649 1113 l 2,132,133
 649 1101 649 1101 657 1085 c 1,134,-1
 682 1055 l 1,135,-1
 712 1029 l 1,136,-1
 740 1021 l 1,137,138
 752 1021 752 1021 770 1029 c 0,115,116
EndSplineSet
EndChar

StartChar: Taml_v_AI
Encoding: 3016 3016 141
Width: 1759
GlyphClass: 2
Flags: W
LayerCount: 2
Fore
SplineSet
1317 149 m 0,0,1
 1336 168 1336 168 1369 217 c 0,2,3
 1387 244 1387 244 1401 289 c 1,4,-1
 1411 331 l 1,5,-1
 1415 373 l 1,6,-1
 1415 553 l 2,7,8
 1415 599 1415 599 1398 646 c 128,-1,9
 1381 693 1381 693 1342 750 c 1,10,11
 1312 797 1312 797 1278 825 c 128,-1,12
 1244 853 1244 853 1207 858 c 1,13,-1
 1184 858 l 1,14,-1
 1144 857 l 1,15,-1
 1110 854 l 1,16,-1
 1076 846 l 1,17,-1
 1043 834 l 1,18,-1
 1091 777 l 1,19,20
 1114 744 1114 744 1129 705.5 c 128,-1,21
 1144 667 1144 667 1152 628 c 1,22,-1
 1160 553 l 1,23,-1
 1160 232 l 2,24,25
 1160 174 1160 174 1140 133 c 1,26,27
 1121 88 1121 88 1082 59.5 c 128,-1,28
 1043 31 1043 31 999 16 c 1,29,-1
 954 7 l 1,30,-1
 902 3 l 1,31,32
 862 3 862 3 818 15 c 128,-1,33
 774 27 774 27 729 57 c 1,34,-1
 699 88 l 1,35,-1
 669 131 l 1,36,-1
 656 178 l 1,37,-1
 649 232 l 1,38,-1
 649 591 l 1,39,-1
 657 619 l 1,40,-1
 668 659 l 1,41,-1
 687 690 l 1,42,-1
 729 764 l 1,43,44
 756 804 756 804 788 834 c 1,45,-1
 760 843 l 1,46,-1
 723 853 l 1,47,-1
 679 857 l 1,48,-1
 625 858 l 1,49,-1
 441 858 l 2,50,51
 391 858 391 858 342.5 839.5 c 128,-1,52
 294 821 294 821 252 782 c 1,53,54
 218 756 218 756 185 697 c 1,55,-1
 169 652 l 1,56,-1
 163 603 l 1,57,58
 188 628 188 628 218.5 640 c 128,-1,59
 249 652 249 652 290 652 c 1,60,-1
 337 649 l 2,61,62
 351 649 351 649 374 636 c 1,63,64
 413 619 413 619 441 588 c 1,65,66
 471 561 471 561 491 520.5 c 128,-1,67
 511 480 511 480 511 439 c 2,68,-1
 511 232 l 2,69,70
 511 192 511 192 488 156 c 1,71,72
 475 129 475 129 425 77 c 1,73,-1
 382 43 l 1,74,-1
 341 19 l 1,75,-1
 298 4 l 1,76,-1
 256 0 l 1,77,78
 198 0 198 0 157 15 c 1,79,80
 112 27 112 27 75 61 c 1,81,82
 40 91 40 91 20 135.5 c 128,-1,83
 0 180 0 180 0 232 c 2,84,-1
 0 531 l 2,85,86
 0 609 0 609 30.5 691.5 c 128,-1,87
 61 774 61 774 123 838.5 c 128,-1,88
 185 903 185 903 264 939 c 128,-1,89
 343 975 343 975 418 975 c 2,90,-1
 707 975 l 1,91,-1
 729 967 l 1,92,-1
 802 949 l 1,93,-1
 867 922 l 2,94,95
 894 911 894 911 905 901 c 1,96,-1
 954 927 l 1,97,-1
 1007 956 l 1,98,-1
 1039 971 l 1,99,-1
 1068 975 l 1,100,-1
 1136 975 l 2,101,102
 1199 975 1199 975 1252 966.5 c 128,-1,103
 1305 958 1305 958 1344 941 c 1,104,105
 1422 915 1422 915 1489 842 c 1,106,107
 1532 786 1532 786 1556 706 c 1,108,-1
 1572 628 l 1,109,-1
 1579 531 l 1,110,-1
 1579 390 l 1,111,-1
 1576 327 l 1,112,-1
 1575 306 l 1,113,-1
 1563 270 l 1,114,115
 1550 206 1550 206 1518.5 152.5 c 128,-1,116
 1487 99 1487 99 1456.5 61.5 c 128,-1,117
 1426 24 1426 24 1373 0 c 1,118,-1
 1332 7 l 1,119,-1
 1293 27 l 1,120,-1
 1264 53 l 1,121,-1
 1252 92 l 1,122,123
 1277 107 1277 107 1317 149 c 0,0,1
282 123 m 1,124,-1
 314 145 l 2,125,126
 333 157 333 157 339 172 c 1,127,-1
 351 209 l 1,128,-1
 351 390 l 2,129,130
 351 413 351 413 343 427 c 1,131,-1
 322 454 l 1,132,-1
 292 474 l 1,133,-1
 256 480 l 1,134,-1
 220 474 l 1,135,-1
 189 456 l 1,136,-1
 169 427 l 1,137,138
 163 415 163 415 163 390 c 2,139,-1
 163 209 l 2,140,141
 163 192 163 192 172 176 c 1,142,-1
 196 145 l 1,143,-1
 226 123 l 1,144,-1
 256 117 l 1,145,-1
 282 123 l 1,124,-1
813 209 m 1,146,-1
 820 172 l 1,147,-1
 837 144 l 1,148,149
 850 131 850 131 870 125 c 1,150,-1
 905 121 l 1,151,152
 931 121 931 121 938 125 c 2,153,-1
 969 144 l 1,154,-1
 989 172 l 1,155,-1
 996 209 l 1,156,-1
 996 579 l 2,157,158
 996 597 996 597 989 613 c 1,159,-1
 970 641 l 1,160,-1
 939 659 l 1,161,162
 927 664 927 664 907 664 c 1,163,-1
 867 659 l 1,164,-1
 840 641 l 1,165,166
 829 636 829 636 821 619 c 1,167,-1
 813 579 l 1,168,-1
 813 209 l 1,146,-1
EndSplineSet
EndChar

StartChar: Taml_pul
Encoding: 3021 3021 145
Width: 370
GlyphClass: 2
Flags: W
LayerCount: 2
Fore
SplineSet
0 1311 m 256,0,1
 0 1369 0 1369 41.5 1409.5 c 128,-1,2
 83 1450 83 1450 140 1450 c 256,3,4
 197 1450 197 1450 238.5 1408.5 c 128,-1,5
 280 1367 280 1367 280 1311 c 0,6,7
 280 1254 280 1254 238.5 1213 c 128,-1,8
 197 1172 197 1172 140 1172 c 0,9,10
 84 1172 84 1172 42 1212.5 c 128,-1,11
 0 1253 0 1253 0 1311 c 256,0,1
EndSplineSet
EndChar

StartChar: Taml_AU
Encoding: 3031 3031 146
Width: 1734
GlyphClass: 2
Flags: W
LayerCount: 2
Fore
SplineSet
802 905 m 1,0,-1
 854 942 l 1,1,2
 882 958 882 958 913 967 c 1,3,-1
 977 975 l 1,4,-1
 1554 975 l 1,5,-1
 1554 858 l 1,6,-1
 1277 858 l 1,7,-1
 1277 0 l 1,8,-1
 1117 0 l 1,9,-1
 1117 858 l 1,10,-1
 996 858 l 2,11,12
 965 858 965 858 946 847 c 1,13,14
 921 842 921 842 901.5 823 c 128,-1,15
 882 804 882 804 870 777 c 1,16,-1
 862 720 l 1,17,-1
 862 0 l 1,18,-1
 696 0 l 1,19,-1
 696 671 l 2,20,21
 696 698 696 698 684 737.5 c 128,-1,22
 672 777 672 777 649 800 c 1,23,24
 631 826 631 826 611 835 c 1,25,26
 596 846 596 846 558 858 c 1,27,-1
 418 858 l 2,28,29
 378 858 378 858 367 854 c 1,30,31
 351 854 351 854 317 838 c 1,32,33
 284 826 284 826 246 789 c 1,34,35
 214 762 214 762 184 697 c 1,36,37
 163 621 163 621 163 579 c 1,38,39
 185 601 185 601 229 621 c 128,-1,40
 273 641 273 641 313 641 c 0,41,42
 357 641 357 641 386 628 c 1,43,44
 421 615 421 615 450.5 589.5 c 128,-1,45
 480 564 480 564 495.5 524 c 128,-1,46
 511 484 511 484 511 439 c 2,47,-1
 511 232 l 2,48,49
 511 180 511 180 491 136 c 128,-1,50
 471 92 471 92 431 63.5 c 128,-1,51
 391 35 391 35 347 20 c 1,52,-1
 302 11 l 1,53,-1
 252 7 l 1,54,55
 208 7 208 7 159.5 19 c 128,-1,56
 111 31 111 31 79.5 59.5 c 128,-1,57
 48 88 48 88 18 133 c 1,58,59
 0 176 0 176 0 232 c 2,60,-1
 0 531 l 2,61,62
 0 576 0 576 6 612.5 c 128,-1,63
 12 649 12 649 28 689 c 1,64,65
 61 762 61 762 123 835 c 1,66,67
 177 897 177 897 257 936 c 128,-1,68
 337 975 337 975 418 975 c 2,69,-1
 532 975 l 2,70,71
 572 975 572 975 596 967 c 1,72,-1
 660 942 l 2,73,74
 691 930 691 930 717 903 c 1,75,76
 741 885 741 885 762 858 c 1,77,-1
 802 905 l 1,0,-1
220 478 m 1,78,-1
 192 458 l 1,79,-1
 169 424 l 1,80,-1
 163 390 l 1,81,-1
 163 209 l 1,82,-1
 169 169 l 1,83,-1
 189 141 l 1,84,85
 204 129 204 129 218 123 c 1,86,-1
 256 119 l 1,87,88
 282 119 282 119 290 123 c 2,89,-1
 322 141 l 1,90,-1
 343 169 l 1,91,-1
 351 209 l 1,92,-1
 351 390 l 2,93,94
 351 407 351 407 344 424.5 c 128,-1,95
 337 442 337 442 321 456 c 1,96,-1
 288 478 l 1,97,-1
 256 487 l 1,98,99
 237 487 237 487 220 478 c 1,78,-1
EndSplineSet
EndChar

StartChar: Taml2
Encoding: 3048 3048 147
Width: 2167
GlyphClass: 2
Flags: W
LayerCount: 2
Fore
SplineSet
1710 -120 m 1,0,-1
 -47 -120 l 2,1,2
 -125 -120 -125 -120 -180 -83 c 1,3,4
 -247 -36 -247 -36 -247 48 c 0,5,6
 -247 221 -247 221 -12 221 c 0,7,8
 19 221 19 221 83.5 217.5 c 128,-1,9
 148 214 148 214 178 214 c 0,10,11
 389 214 389 214 481 310 c 1,12,13
 533 366 533 366 533 481 c 0,14,15
 533 676 533 676 319 697 c 1,16,17
 384 626 384 626 384 508 c 0,18,19
 384 404 384 404 305 331 c 128,-1,20
 226 258 226 258 123 258 c 0,21,22
 13 258 13 258 -52 331 c 0,23,24
 -116 402 -116 402 -116 508 c 0,25,26
 -116 685 -116 685 25 774 c 0,27,28
 139 846 139 846 312 846 c 0,29,30
 522 846 522 846 649 759 c 0,31,32
 799 656 799 656 799 445 c 0,33,34
 799 299 799 299 682 203 c 1,35,36
 548 96 548 96 341 77 c 1,37,38
 159 73 159 73 -24 70 c 0,39,40
 -74 69 -74 69 -74 45 c 0,41,42
 -74 19 -74 19 -23 19 c 2,43,-1
 425 19 l 2,44,45
 1658 19 1658 19 1742 20 c 1,46,-1
 1710 -120 l 1,0,-1
121 656 m 1,47,48
 46 620 46 620 46 524 c 0,49,50
 46 459 46 459 95 459 c 0,51,52
 117 459 117 459 136 495 c 128,-1,53
 155 531 155 531 155 570 c 0,54,55
 155 616 155 616 121 656 c 1,47,48
EndSplineSet
EndChar

StartChar: Taml3
Encoding: 3049 3049 148
Width: 1539
GlyphClass: 2
Flags: W
LayerCount: 2
Fore
SplineSet
523 520 m 1,0,1
 560 537 560 537 609 537 c 0,2,3
 737 537 737 537 814 455 c 0,4,5
 889 375 889 375 889 249 c 0,6,7
 889 112 889 112 792 20 c 1,8,-1
 1192 20 l 1,9,-1
 1156 -118 l 1,10,-1
 144 -118 l 1,11,-1
 176 20 l 1,12,-1
 466 20 l 2,13,14
 523 20 523 20 568 72 c 0,15,16
 627 140 627 140 627 243 c 0,17,18
 627 362 627 362 540 362 c 0,19,20
 472 362 472 362 447 270 c 1,21,22
 438 206 438 206 415 82 c 1,23,-1
 152 82 l 1,24,-1
 308 690 l 1,25,-1
 167 690 l 1,26,-1
 -22 -118 l 1,27,-1
 -169 -118 l 1,28,-1
 53 836 l 1,29,-1
 790 836 l 1,30,-1
 746 690 l 1,31,-1
 567 690 l 1,32,-1
 523 520 l 1,0,1
EndSplineSet
EndChar

StartChar: Taml4
Encoding: 3050 3050 149
Width: 1545
GlyphClass: 2
Flags: W
LayerCount: 2
Fore
SplineSet
1110 335 m 1,0,-1
 726 335 l 1,1,2
 618 -122 618 -122 246 -122 c 0,3,4
 -169 -122 -169 -122 -169 190 c 0,5,6
 -169 426 -169 426 77 468 c 1,7,-1
 175 866 l 1,8,-1
 1141 866 l 1,9,-1
 1110 719 l 1,10,-1
 831 719 l 1,11,-1
 774 484 l 1,12,-1
 889 484 l 1,13,-1
 945 702 l 1,14,-1
 1197 702 l 1,15,-1
 1110 335 l 1,0,-1
296 719 m 1,16,-1
 240 484 l 1,17,-1
 480 484 l 1,18,-1
 540 719 l 1,19,-1
 296 719 l 1,16,-1
158 335 m 2,20,21
 -20 338 -20 338 -20 179 c 0,22,23
 -20 110 -20 110 33 71 c 128,-1,24
 86 32 86 32 167 32 c 0,25,26
 373 32 373 32 446 330 c 1,27,-1
 158 335 l 2,20,21
EndSplineSet
EndChar

StartChar: Taml5
Encoding: 3051 3051 150
Width: 1790
GlyphClass: 2
Flags: W
LayerCount: 2
Fore
SplineSet
1186 -371 m 0,0,1
 950 -613 950 -613 530 -613 c 0,2,3
 191 -613 191 -613 -16 -331 c 0,4,5
 -200 -80 -200 -80 -200 262 c 0,6,7
 -200 438 -200 438 -98 623 c 0,8,9
 10 818 10 818 188 943 c 1,10,-1
 188 774 l 1,11,12
 -38 563 -38 563 -38 212 c 0,13,14
 -38 -50 -38 -50 121 -241 c 0,15,16
 287 -439 287 -439 538 -439 c 0,17,18
 800 -439 800 -439 961.5 -268 c 128,-1,19
 1123 -97 1123 -97 1123 169 c 0,20,21
 1123 345 1123 345 996 345 c 0,22,23
 964 345 964 345 925 335 c 1,24,-1
 836 -52 l 1,25,-1
 562 -52 l 1,26,-1
 754 757 l 1,27,-1
 550 757 l 1,28,-1
 364 -52 l 1,29,-1
 207 -52 l 1,30,-1
 432 898 l 1,31,-1
 1395 903 l 1,32,-1
 1364 757 l 1,33,-1
 1020 757 l 1,34,-1
 970 544 l 1,35,36
 1006 556 1006 556 1053 556 c 0,37,38
 1222 556 1222 556 1322 440 c 1,39,40
 1412 331 1412 331 1412 164 c 0,41,42
 1412 -140 1412 -140 1186 -371 c 0,0,1
EndSplineSet
EndChar

StartChar: Tmil6
Encoding: 3052 3052 151
Width: 1700
GlyphClass: 2
Flags: W
LayerCount: 2
Fore
SplineSet
938 -113 m 1,0,-1
 1047 335 l 1,1,-1
 1024 335 l 1,2,-1
 910 -89 l 1,3,-1
 689 -89 l 1,4,-1
 801 335 l 1,5,-1
 708 335 l 1,6,7
 600 -122 600 -122 226 -122 c 0,8,9
 -189 -122 -189 -122 -189 190 c 0,10,11
 -189 426 -189 426 59 468 c 1,12,-1
 157 866 l 1,13,-1
 1124 866 l 1,14,-1
 1091 719 l 1,15,-1
 811 719 l 1,16,-1
 754 484 l 1,17,-1
 1333 484 l 1,18,-1
 938 -113 l 1,0,-1
277 719 m 1,19,-1
 222 484 l 1,20,-1
 460 484 l 1,21,-1
 521 719 l 1,22,-1
 277 719 l 1,19,-1
138 335 m 2,23,24
 -40 338 -40 338 -40 179 c 0,25,26
 -40 110 -40 110 16 70 c 1,27,28
 67 32 67 32 149 32 c 0,29,30
 358 32 358 32 431 330 c 1,31,-1
 138 335 l 2,23,24
EndSplineSet
EndChar

StartChar: Taml7
Encoding: 3053 3053 152
Width: 1875
GlyphClass: 2
Flags: W
LayerCount: 2
Fore
SplineSet
1456 715 m 1,0,-1
 1172 715 l 1,1,-1
 984 -94 l 1,2,-1
 710 -94 l 1,3,-1
 896 715 l 1,4,-1
 629 715 l 2,5,6
 -51 715 -51 715 -51 280 c 0,7,8
 -51 193 -51 193 -15 127 c 1,9,10
 -17 154 -17 154 -17 167 c 0,11,12
 -17 296 -17 296 57 397 c 1,13,14
 140 513 140 513 271 513 c 0,15,16
 415 513 415 513 498 424.5 c 128,-1,17
 581 336 581 336 581 195 c 0,18,19
 581 144 581 144 547 74 c 1,20,21
 448 -122 448 -122 169 -122 c 0,22,23
 -21 -122 -21 -122 -120 -3 c 0,24,25
 -210 106 -210 106 -210 295 c 0,26,27
 -210 603 -210 603 24 731 c 0,28,29
 263 861 263 861 524 861 c 2,30,-1
 1486 861 l 1,31,-1
 1456 715 l 1,0,-1
239 310 m 0,32,33
 129 310 129 310 129 135 c 0,34,35
 129 71 129 71 136 39 c 1,36,37
 217 46 217 46 274.5 95 c 128,-1,38
 332 144 332 144 332 215 c 0,39,40
 332 310 332 310 239 310 c 0,32,33
EndSplineSet
EndChar

StartChar: Tamil8
Encoding: 3054 3054 153
Width: 2530
GlyphClass: 2
Flags: W
LayerCount: 2
Fore
SplineSet
1506 383 m 1,0,-1
 1554 383 l 2,1,2
 1540 383 1540 383 1639 387 c 1,3,-1
 1783 1020 l 1,4,-1
 2060 1020 l 1,5,-1
 1741 -391 l 1,6,-1
 1461 -391 l 1,7,-1
 1606 236 l 1,8,-1
 1403 236 l 1,9,10
 1223 53 1223 53 949 -42 c 1,11,12
 702 -129 702 -129 425 -129 c 0,13,14
 244 -129 244 -129 73 -78 c 0,15,16
 -135 -17 -135 -17 -244 97 c 1,17,18
 -292 149 -292 149 -292 224 c 0,19,20
 -292 286 -292 286 -252 331 c 1,21,22
 -205 382 -205 382 -106 382 c 2,23,-1
 1017 383 l 2,24,25
 1118 383 1118 383 1202 382 c 1,26,27
 1284 492 1284 492 1284 616 c 0,28,29
 1284 822 1284 822 1159 869 c 1,30,31
 1210 784 1210 784 1210 709 c 0,32,33
 1210 579 1210 579 1098 486 c 0,34,35
 994 399 994 399 868 399 c 0,36,37
 739 399 739 399 661 486 c 1,38,39
 586 567 586 567 586 693 c 0,40,41
 586 886 586 886 752 983 c 0,42,43
 883 1059 883 1059 1074 1059 c 0,44,45
 1283 1059 1283 1059 1417 930 c 1,46,47
 1556 800 1556 800 1556 591 c 0,48,49
 1556 482 1556 482 1506 383 c 1,0,-1
903 877 m 1,50,51
 752 847 752 847 752 701 c 0,52,53
 752 611 752 611 823 611 c 0,54,55
 864 611 864 611 904 659.5 c 128,-1,56
 944 708 944 708 944 760 c 0,57,58
 944 830 944 830 903 877 c 1,50,51
-108 238 m 2,59,60
 -145 238 -145 238 -145 229 c 0,61,62
 -145 200 -145 200 -70 158 c 0,63,64
 79 75 79 75 204 49 c 0,65,66
 303 29 303 29 505 29 c 0,67,68
 823 29 823 29 1070 236 c 1,69,-1
 -108 238 l 2,59,60
EndSplineSet
EndChar

StartChar: Taml9
Encoding: 3055 3055 154
Width: 2119
GlyphClass: 2
Flags: W
LayerCount: 2
Fore
SplineSet
1583 -6 m 1,0,-1
 1536 -147 l 1,1,-1
 1313 -147 l 1,2,-1
 1329 67 l 1,3,4
 1425 133 1425 133 1425 281 c 0,5,6
 1425 366 1425 366 1360.5 425.5 c 128,-1,7
 1296 485 1296 485 1208 485 c 0,8,9
 1188 485 1188 485 1243 423.5 c 128,-1,10
 1298 362 1298 362 1298 199 c 0,11,12
 1298 78 1298 78 1236 -22 c 0,13,14
 1160 -143 1160 -143 1034 -143 c 0,15,16
 899 -143 899 -143 815 -26 c 0,17,18
 740 79 740 79 740 208 c 0,19,20
 740 266 740 266 748 310 c 1,21,-1
 669 310 l 1,22,-1
 669 228 l 2,23,24
 669 54 669 54 524 -51 c 0,25,26
 396 -143 396 -143 225 -143 c 0,27,28
 27 -143 27 -143 -104 -27 c 1,29,30
 -241 92 -241 92 -241 292 c 0,31,32
 -241 506 -241 506 19 580 c 1,33,-1
 19 1039 l 1,34,-1
 1056 1039 l 1,35,-1
 1056 756 l 1,36,-1
 669 756 l 1,37,-1
 669 595 l 1,38,-1
 878 595 l 1,39,40
 1000 745 1000 745 1210 745 c 0,41,42
 1441 745 1441 745 1570.5 612 c 128,-1,43
 1700 479 1700 479 1700 249 c 0,44,45
 1700 132 1700 132 1583 -6 c 1,0,-1
999 301 m 1,46,47
 963 264 963 264 963 191 c 0,48,49
 963 168 963 168 984.5 144 c 128,-1,50
 1006 120 1006 120 1024 120 c 0,51,52
 1056 120 1056 120 1056 228 c 0,53,54
 1056 266 1056 266 999 301 c 1,46,47
386 756 m 1,55,-1
 303 756 l 1,56,-1
 303 595 l 1,57,-1
 386 595 l 1,58,-1
 386 756 l 1,55,-1
386 310 m 1,59,-1
 93 310 l 2,60,61
 33 310 33 310 33 266 c 0,62,63
 33 205 33 205 101 161 c 0,64,65
 164 120 164 120 242 120 c 0,66,67
 386 120 386 120 386 216 c 2,68,-1
 386 310 l 1,59,-1
EndSplineSet
EndChar

StartChar: afii61664
Encoding: 8204 8204 155
Width: 232
GlyphClass: 2
Flags: W
LayerCount: 2
Fore
SplineSet
164 -478 m 1,0,-1
 68 -478 l 1,1,-1
 68 1474 l 1,2,-1
 164 1474 l 1,3,-1
 164 -478 l 1,0,-1
EndSplineSet
EndChar

StartChar: afii301
Encoding: 8205 8205 156
Width: 598
GlyphClass: 2
Flags: W
LayerCount: 2
Fore
SplineSet
590 1453 m 1,0,-1
 525 1394 l 1,1,-1
 347 1557 l 1,2,-1
 347 -520 l 1,3,-1
 251 -520 l 1,4,-1
 251 1557 l 1,5,-1
 73 1394 l 1,6,-1
 8 1453 l 1,7,-1
 235 1656 l 1,8,-1
 8 1858 l 1,9,-1
 73 1916 l 1,10,-1
 299 1711 l 1,11,-1
 525 1916 l 1,12,-1
 590 1858 l 1,13,-1
 363 1656 l 1,14,-1
 590 1453 l 1,0,-1
EndSplineSet
EndChar

StartChar: quoteleft
Encoding: 8216 8216 157
Width: 625
GlyphClass: 2
Flags: W
LayerCount: 2
Fore
SplineSet
196 768 m 1,0,1
 186 767 186 767 177 767 c 0,2,3
 79 767 79 767 10 864 c 1,4,5
 -55 950 -55 950 -55 1057 c 1,6,7
 -51 1160 -51 1160 -19 1222 c 128,-1,8
 13 1284 13 1284 57 1323 c 128,-1,9
 101 1362 101 1362 129.5 1381 c 128,-1,10
 158 1400 158 1400 175.5 1410.5 c 128,-1,11
 193 1421 193 1421 227 1438.5 c 128,-1,12
 261 1456 261 1456 337 1493 c 1,13,-1
 337 1373 l 1,14,-1
 236 1316 l 1,15,16
 196 1283 196 1283 178.5 1267.5 c 128,-1,17
 161 1252 161 1252 143.5 1213.5 c 128,-1,18
 126 1175 126 1175 126 1154.5 c 128,-1,19
 126 1134 126 1134 128.5 1116.5 c 128,-1,20
 131 1099 131 1099 131 1101 c 1,21,22
 231 1118 231 1118 227 1118 c 1,23,24
 295 1118 295 1118 342.5 1067 c 128,-1,25
 390 1016 390 1016 390 949 c 0,26,27
 390 872 390 872 330.5 820 c 128,-1,28
 271 768 271 768 196 768 c 1,0,1
EndSplineSet
EndChar

StartChar: quoteright
Encoding: 8217 8217 158
Width: 625
GlyphClass: 2
Flags: W
LayerCount: 2
Fore
SplineSet
58.5 820 m 128,-1,1
 -1 872 -1 872 -1 949 c 0,2,3
 -1 1016 -1 1016 46.5 1067 c 128,-1,4
 94 1118 94 1118 162 1118 c 1,5,6
 158 1118 158 1118 258 1101 c 1,7,8
 258 1099 258 1099 260.5 1116.5 c 128,-1,9
 263 1134 263 1134 263 1154.5 c 128,-1,10
 263 1175 263 1175 245.5 1213.5 c 128,-1,11
 228 1252 228 1252 210.5 1267.5 c 128,-1,12
 193 1283 193 1283 153 1316 c 1,13,-1
 52 1373 l 1,14,-1
 52 1493 l 1,15,16
 128 1456 128 1456 162 1438.5 c 128,-1,17
 196 1421 196 1421 213.5 1410.5 c 128,-1,18
 231 1400 231 1400 259.5 1381 c 128,-1,19
 288 1362 288 1362 332 1323 c 128,-1,20
 376 1284 376 1284 408 1222 c 128,-1,21
 440 1160 440 1160 444 1057 c 1,22,23
 444 950 444 950 379 864 c 1,24,25
 310 767 310 767 212 767 c 0,26,27
 203 767 203 767 193 768 c 1,28,0
 118 768 118 768 58.5 820 c 128,-1,1
EndSplineSet
EndChar

StartChar: quotedblright
Encoding: 8221 8221 160
Width: 1218
GlyphClass: 2
Flags: W
LayerCount: 2
Fore
SplineSet
60.5 820 m 128,-1,1
 1 872 1 872 1 949 c 0,2,3
 1 1016 1 1016 48.5 1067 c 128,-1,4
 96 1118 96 1118 164 1118 c 1,5,6
 160 1118 160 1118 260 1101 c 1,7,8
 260 1099 260 1099 262.5 1116.5 c 128,-1,9
 265 1134 265 1134 265 1154.5 c 128,-1,10
 265 1175 265 1175 247.5 1213.5 c 128,-1,11
 230 1252 230 1252 212.5 1267.5 c 128,-1,12
 195 1283 195 1283 155 1316 c 1,13,-1
 54 1373 l 1,14,-1
 54 1493 l 1,15,16
 130 1456 130 1456 164 1438.5 c 128,-1,17
 198 1421 198 1421 215.5 1410.5 c 128,-1,18
 233 1400 233 1400 261.5 1381 c 128,-1,19
 290 1362 290 1362 334 1323 c 128,-1,20
 378 1284 378 1284 410 1222 c 128,-1,21
 442 1160 442 1160 446 1057 c 1,22,23
 446 950 446 950 381 864 c 1,24,25
 312 767 312 767 214 767 c 0,26,27
 205 767 205 767 195 768 c 1,28,0
 120 768 120 768 60.5 820 c 128,-1,1
600.5 820 m 128,-1,30
 541 872 541 872 541 949 c 0,31,32
 541 1016 541 1016 588.5 1067 c 128,-1,33
 636 1118 636 1118 704 1118 c 1,34,35
 700 1118 700 1118 800 1101 c 1,36,37
 800 1099 800 1099 802.5 1116.5 c 128,-1,38
 805 1134 805 1134 805 1154.5 c 128,-1,39
 805 1175 805 1175 787.5 1213.5 c 128,-1,40
 770 1252 770 1252 752.5 1267.5 c 128,-1,41
 735 1283 735 1283 695 1316 c 1,42,-1
 594 1373 l 1,43,-1
 594 1493 l 1,44,45
 670 1456 670 1456 704 1438.5 c 128,-1,46
 738 1421 738 1421 755.5 1410.5 c 128,-1,47
 773 1400 773 1400 801.5 1381 c 128,-1,48
 830 1362 830 1362 874 1323 c 128,-1,49
 918 1284 918 1284 950 1222 c 128,-1,50
 982 1160 982 1160 986 1057 c 1,51,52
 986 950 986 950 921 864 c 1,53,54
 852 767 852 767 754 767 c 0,55,56
 745 767 745 767 735 768 c 1,57,29
 660 768 660 768 600.5 820 c 128,-1,30
EndSplineSet
EndChar

StartChar: uni25CC
Encoding: 9676 9676 161
Width: 1331
GlyphClass: 2
Flags: W
LayerCount: 2
Fore
SplineSet
1338 986 m 1,0,-1
 1184 878 l 1,1,2
 1109 1002 1109 1002 987 1076 c 1,3,-1
 1095 1228 l 1,4,5
 1245 1134 1245 1134 1338 986 c 1,0,-1
835 1342 m 1,6,-1
 803 1159 l 1,7,8
 737 1175 737 1175 666 1175 c 0,9,10
 593 1175 593 1175 527 1159 c 1,11,-1
 495 1342 l 1,12,13
 581 1362 581 1362 665 1362 c 256,14,15
 749 1362 749 1362 835 1342 c 1,6,-1
1444 583 m 256,16,17
 1444 499 1444 499 1424 413 c 1,18,-1
 1241 445 l 1,19,20
 1257 511 1257 511 1257 582 c 0,21,22
 1257 655 1257 655 1241 721 c 1,23,-1
 1424 753 l 1,24,25
 1444 667 1444 667 1444 583 c 256,16,17
1338 180 m 1,26,27
 1244 31 1244 31 1095 -63 c 1,28,-1
 987 90 l 1,29,30
 1109 164 1109 164 1184 288 c 1,31,-1
 1338 180 l 1,26,27
344 1076 m 1,32,33
 222 1002 222 1002 148 878 c 1,34,-1
 -7 986 l 1,35,36
 86 1134 86 1134 237 1228 c 1,37,-1
 344 1076 l 1,32,33
90 445 m 1,38,-1
 -94 413 l 1,39,40
 -113 494 -113 494 -113 583 c 256,41,42
 -113 672 -113 672 -94 753 c 1,43,-1
 90 721 l 1,44,45
 74 655 74 655 74 582 c 0,46,47
 74 511 74 511 90 445 c 1,38,-1
835 -176 m 1,48,49
 749 -196 749 -196 665 -196 c 256,50,51
 581 -196 581 -196 495 -176 c 1,52,-1
 527 7 l 1,53,54
 593 -9 593 -9 666 -9 c 0,55,56
 737 -9 737 -9 803 7 c 1,57,-1
 835 -176 l 1,48,49
344 90 m 1,58,-1
 237 -63 l 1,59,60
 88 31 88 31 -7 180 c 1,61,-1
 148 288 l 1,62,63
 222 164 222 164 344 90 c 1,58,-1
EndSplineSet
EndChar

StartChar: TamlTTA_Taml_v_I.abvs
Encoding: 65558 -1 181
Width: 1340
GlyphClass: 3
Flags: W
LayerCount: 2
Fore
SplineSet
976 444 m 1,0,-1
 837 123 l 1,1,-1
 1160 123 l 1,2,-1
 1160 6 l 1,3,-1
 766 6 l 1,4,-1
 532 -529 l 1,5,-1
 351 -529 l 1,6,-1
 581 6 l 1,7,-1
 0 6 l 1,8,-1
 0 980 l 1,9,-1
 162 980 l 1,10,-1
 162 123 l 1,11,-1
 581 123 l 1,12,-1
 535 149 l 1,13,-1
 486 184 l 1,14,-1
 422 242 l 1,15,16
 383 284 383 284 367 326 c 1,17,-1
 355 369 l 1,18,-1
 351 421 l 1,19,-1
 351 470 l 2,20,21
 351 506 351 506 355 516 c 2,22,-1
 375 563 l 1,23,24
 394 593 394 593 440 641 c 1,25,26
 488 681 488 681 541 702 c 1,27,-1
 592 718 l 1,28,-1
 649 725 l 1,29,-1
 721 725 l 2,30,31
 772 725 772 725 810 708 c 1,32,33
 851 696 851 696 893 664.5 c 128,-1,34
 935 633 935 633 955 593 c 1,35,-1
 970 558 l 1,36,-1
 976 516 l 1,37,-1
 976 444 l 1,0,-1
787 492 m 1,38,-1
 794 516 l 1,39,40
 794 532 794 532 786 550 c 1,41,-1
 768 577 l 1,42,-1
 733 600 l 1,43,-1
 696 608 l 1,44,-1
 649 608 l 2,45,46
 633 608 633 608 603 596 c 1,47,-1
 555 558 l 1,48,-1
 520 510 l 1,49,-1
 511 470 l 1,50,-1
 511 421 l 2,51,52
 511 383 511 383 519 361 c 2,53,-1
 531 326 l 1,54,-1
 549 299 l 1,55,-1
 600 238 l 1,56,-1
 665 185 l 1,57,-1
 787 492 l 1,38,-1
EndSplineSet
Ligature2: "'abvs' Above Base Substitutions in Tamil lookup 5 subtable" TamlTTA Taml_v_I
EndChar

StartChar: TamlTTA_Taml_v_II.abvs
Encoding: 65559 -1 182
Width: 1340
GlyphClass: 3
Flags: W
LayerCount: 2
Fore
SplineSet
809 536 m 1,0,-1
 821 513 l 1,1,-1
 841 497 l 1,2,-1
 875 493 l 1,3,4
 909 493 909 493 927.5 510.5 c 128,-1,5
 946 528 946 528 946 561 c 2,6,-1
 946 610 l 1,7,-1
 940 638 l 1,8,9
 940 650 940 650 925 660 c 1,10,-1
 902 672 l 1,11,-1
 875 676 l 1,12,-1
 844 669 l 1,13,-1
 828 657 l 1,14,-1
 811 637 l 1,15,-1
 807 610 l 1,16,-1
 807 561 l 1,17,-1
 809 536 l 1,0,-1
0 981 m 1,18,-1
 162 981 l 1,19,-1
 162 123 l 1,20,-1
 466 123 l 1,21,-1
 452 137 l 1,22,-1
 443 158 l 1,23,-1
 401 322 l 1,24,-1
 388 351 l 1,25,-1
 370 402 l 1,26,-1
 364 444 l 1,27,-1
 364 519 l 2,28,29
 364 577 364 577 383 615 c 128,-1,30
 402 653 402 653 456 699 c 0,31,32
 502 737 502 737 561 755.5 c 128,-1,33
 620 774 620 774 691 774 c 2,34,-1
 819 774 l 2,35,36
 894 774 894 774 936 759 c 1,37,38
 989 745 989 745 1023 723.5 c 128,-1,39
 1057 702 1057 702 1083 661 c 1,40,-1
 1099 624 l 1,41,-1
 1106 585 l 1,42,-1
 1106 519 l 2,43,44
 1106 493 1106 493 1093 469 c 1,45,-1
 1054 422 l 1,46,-1
 1001 387 l 1,47,-1
 946 378 l 1,48,-1
 851 378 l 2,49,50
 813 378 813 378 777.5 390 c 128,-1,51
 742 402 742 402 719 431 c 2,52,-1
 700 455 l 1,53,-1
 684 492 l 1,54,-1
 674 565 l 1,55,-1
 674 593 l 1,56,-1
 676 614 l 1,57,-1
 680 633 l 1,58,-1
 691 657 l 1,59,-1
 638 645 l 1,60,-1
 582 608 l 1,61,-1
 542 555 l 1,62,-1
 527 493 l 1,63,-1
 527 444 l 2,64,65
 527 402 527 402 531 395 c 1,66,-1
 537 351 l 1,67,-1
 599 123 l 1,68,-1
 1160 123 l 1,69,-1
 1160 6 l 1,70,-1
 0 6 l 1,71,-1
 0 981 l 1,18,-1
EndSplineSet
Ligature2: "'abvs' Above Base Substitutions in Tamil lookup 5 subtable" TamlTTA Taml_v_II
EndChar

StartChar: TamlKA_Taml_v_U.psts
Encoding: 65560 -1 183
Width: 1783
GlyphClass: 3
Flags: W
LayerCount: 2
Fore
SplineSet
370 883 m 1,0,1
 326 858 326 858 288 813 c 1,2,-1
 249 755 l 1,3,-1
 222 715 l 2,4,5
 192 670 192 670 177 601 c 1,6,-1
 168 544 l 1,7,-1
 163 487 l 1,8,-1
 163 275 l 2,9,10
 163 153 163 153 206 36 c 128,-1,11
 249 -81 249 -81 341 -176 c 128,-1,12
 433 -271 433 -271 550.5 -322.5 c 128,-1,13
 668 -374 668 -374 788 -374 c 1,14,-1
 929 -376 l 1,15,16
 1019 -376 1019 -376 1103 -342 c 1,17,18
 1187 -310 1187 -310 1268.5 -239.5 c 128,-1,19
 1350 -169 1350 -169 1394.5 -82.5 c 128,-1,20
 1439 4 1439 4 1439 92 c 2,21,-1
 1439 231 l 1,22,-1
 1438 282 l 2,23,24
 1438 315 1438 315 1427 342 c 1,25,26
 1422 374 1422 374 1402 409.5 c 128,-1,27
 1382 445 1382 445 1348 465 c 1,28,29
 1332 473 1332 473 1314.5 480 c 128,-1,30
 1297 487 1297 487 1277 487 c 2,31,-1
 1160 487 l 1,32,-1
 1160 298 l 2,33,34
 1160 157 1160 157 1053.5 78.5 c 128,-1,35
 947 0 947 0 741 0 c 1,36,-1
 668 3 l 1,37,-1
 607 15 l 1,38,-1
 546 37 l 1,39,-1
 484 69 l 1,40,41
 429 104 429 104 399.5 157 c 128,-1,42
 370 210 370 210 370 275 c 2,43,-1
 370 464 l 2,44,45
 370 491 370 491 378 515.5 c 128,-1,46
 386 540 386 540 406 556 c 1,47,-1
 443 590 l 1,48,49
 462 602 462 602 486 602 c 2,50,-1
 582 602 l 1,51,-1
 582 975 l 1,52,-1
 1439 975 l 1,53,-1
 1439 858 l 1,54,-1
 1160 858 l 1,55,-1
 1160 602 l 1,56,-1
 1298 602 l 2,57,58
 1374 602 1374 602 1429.5 577 c 128,-1,59
 1485 552 1485 552 1530 500 c 0,60,61
 1567 456 1567 456 1585 399.5 c 128,-1,62
 1603 343 1603 343 1603 275 c 2,63,-1
 1603 92 l 2,64,65
 1603 -19 1603 -19 1554.5 -125 c 128,-1,66
 1506 -231 1506 -231 1405 -325 c 1,67,68
 1320 -399 1320 -399 1209.5 -443.5 c 128,-1,69
 1099 -488 1099 -488 997 -488 c 1,70,-1
 766 -491 l 1,71,72
 599 -491 599 -491 466 -434.5 c 128,-1,73
 333 -378 333 -378 226 -267.5 c 128,-1,74
 119 -157 119 -157 54 -16 c 1,75,76
 36 27 36 27 14 121 c 1,77,-1
 4 195 l 1,78,-1
 0 275 l 1,79,-1
 0 464 l 2,80,81
 0 523 0 523 4 560 c 128,-1,82
 8 597 8 597 22 640 c 0,83,84
 47 715 47 715 92 781 c 1,85,86
 111 811 111 811 132 834 c 1,87,-1
 188 884 l 2,88,89
 234 926 234 926 326 975 c 1,90,-1
 370 883 l 1,0,1
558 255 m 2,91,92
 558 229 558 229 574 205 c 1,93,-1
 625 160 l 1,94,-1
 695 126 l 1,95,-1
 737 117 l 1,96,-1
 766 117 l 2,97,98
 806 117 806 117 847.5 129 c 128,-1,99
 889 141 889 141 927 165 c 1,100,-1
 981 218 l 1,101,-1
 997 275 l 1,102,-1
 997 487 l 1,103,-1
 607 487 l 1,104,-1
 586 481 l 1,105,-1
 572 472 l 1,106,-1
 559 456 l 1,107,-1
 558 439 l 1,108,-1
 558 255 l 2,91,92
997 858 m 1,109,-1
 741 858 l 1,110,-1
 741 602 l 1,111,-1
 997 602 l 1,112,-1
 997 858 l 1,109,-1
EndSplineSet
Ligature2: "'psts' Post Base Substitutions in Tamil lookup 2 subtable" TamlKA Taml_v_U
EndChar

StartChar: TamlNGA_Taml_v_U.psts
Encoding: 65561 -1 184
Width: 1572
GlyphClass: 3
Flags: W
LayerCount: 2
Fore
SplineSet
370 6 m 1,0,-1
 370 123 l 1,1,-1
 669 123 l 1,2,3
 717 139 717 139 742.5 162 c 128,-1,4
 768 185 768 185 794 231 c 1,5,-1
 809 264 l 1,6,-1
 824 321 l 1,7,-1
 833 378 l 1,8,-1
 833 421 l 2,9,10
 833 470 833 470 824 487 c 1,11,12
 817 519 817 519 797.5 540.5 c 128,-1,13
 778 562 778 562 757 570 c 1,14,-1
 709 582 l 1,15,16
 664 582 664 582 633 559 c 1,17,18
 603 540 603 540 578 493 c 1,19,-1
 578 281 l 1,20,-1
 414 281 l 1,21,-1
 414 864 l 1,22,-1
 159 864 l 1,23,-1
 159 6 l 1,24,-1
 0 6 l 1,25,-1
 0 981 l 1,26,-1
 833 981 l 1,27,-1
 833 864 l 1,28,-1
 578 864 l 1,29,-1
 578 634 l 1,30,31
 612 664 612 664 666.5 682 c 128,-1,32
 721 700 721 700 788 700 c 0,33,34
 832 700 832 700 869.5 680.5 c 128,-1,35
 907 661 907 661 935 620 c 1,36,37
 966 584 966 584 981 531 c 1,38,-1
 993 479 l 1,39,-1
 997 421 l 1,40,-1
 991 337 l 1,41,-1
 985 302 l 1,42,-1
 973 250 l 2,43,44
 966 223 966 223 935 181 c 1,45,46
 921 159 921 159 881 123 c 1,47,-1
 1228 123 l 1,48,-1
 1228 981 l 1,49,-1
 1392 981 l 1,50,-1
 1392 -371 l 1,51,-1
 1228 -371 l 1,52,-1
 1228 6 l 1,53,-1
 370 6 l 1,0,-1
EndSplineSet
Ligature2: "'psts' Post Base Substitutions in Tamil lookup 2 subtable" TamlNGA Taml_v_U
EndChar

StartChar: TamlCA_Taml_v_U.psts
Encoding: 65562 -1 185
Width: 1364
GlyphClass: 3
Flags: W
LayerCount: 2
Fore
SplineSet
1068 975 m 1,0,-1
 1068 858 l 1,1,-1
 788 858 l 1,2,-1
 788 603 l 1,3,-1
 1184 603 l 1,4,-1
 1184 487 l 1,5,-1
 1117 487 l 1,6,-1
 1117 0 l 1,7,-1
 951 0 l 1,8,-1
 951 487 l 1,9,-1
 788 487 l 1,10,-1
 788 298 l 2,11,12
 788 157 788 157 682 78.5 c 128,-1,13
 576 0 576 0 370 0 c 1,14,-1
 295 3 l 2,15,16
 273 3 273 3 233 16 c 1,17,18
 158 35 158 35 116 69 c 1,19,20
 61 100 61 100 30.5 155 c 128,-1,21
 0 210 0 210 0 276 c 2,22,-1
 0 464 l 2,23,24
 0 488 0 488 8.5 511.5 c 128,-1,25
 17 535 17 535 35 556 c 1,26,-1
 71 588 l 1,27,-1
 115 603 l 1,28,-1
 210 603 l 1,29,-1
 210 975 l 1,30,-1
 1068 975 l 1,0,-1
625 487 m 1,31,-1
 230 487 l 1,32,-1
 214 482 l 1,33,-1
 200 472 l 1,34,-1
 188 456 l 1,35,-1
 185 439 l 1,36,-1
 185 256 l 2,37,38
 185 229 185 229 202 205 c 1,39,-1
 253 160 l 1,40,-1
 322 127 l 1,41,-1
 365 117 l 1,42,-1
 394 117 l 2,43,44
 435 117 435 117 475.5 129 c 128,-1,45
 516 141 516 141 555 165 c 1,46,-1
 608 218 l 1,47,-1
 625 276 l 1,48,-1
 625 487 l 1,31,-1
625 858 m 1,49,-1
 370 858 l 1,50,-1
 370 603 l 1,51,-1
 625 603 l 1,52,-1
 625 858 l 1,49,-1
EndSplineSet
Ligature2: "'psts' Post Base Substitutions in Tamil lookup 2 subtable" TamlCA Taml_v_U
EndChar

